<?xml version="1.0" encoding="utf-8" standalone="no"?>
<!DOCTYPE svg PUBLIC "-//W3C//DTD SVG 1.1//EN"
  "http://www.w3.org/Graphics/SVG/1.1/DTD/svg11.dtd">
<svg xmlns:xlink="http://www.w3.org/1999/xlink" width="336.87pt" height="209.555781pt" viewBox="0 0 336.87 209.555781" xmlns="http://www.w3.org/2000/svg" version="1.1">
 <metadata>
  <rdf:RDF xmlns:dc="http://purl.org/dc/elements/1.1/" xmlns:cc="http://creativecommons.org/ns#" xmlns:rdf="http://www.w3.org/1999/02/22-rdf-syntax-ns#">
   <cc:Work>
    <dc:type rdf:resource="http://purl.org/dc/dcmitype/StillImage"/>
    <dc:date>2024-09-29T15:14:50.934936</dc:date>
    <dc:format>image/svg+xml</dc:format>
    <dc:creator>
     <cc:Agent>
      <dc:title>Matplotlib v3.7.5, https://matplotlib.org/</dc:title>
     </cc:Agent>
    </dc:creator>
   </cc:Work>
  </rdf:RDF>
 </metadata>
 <defs>
  <style type="text/css">*{stroke-linejoin: round; stroke-linecap: butt}</style>
 </defs>
 <g id="figure_1">
  <g id="patch_1">
   <path d="M -0 209.555781 
L 336.87 209.555781 
L 336.87 0 
L -0 0 
z
" style="fill: #ffffff"/>
  </g>
  <g id="axes_1">
   <g id="patch_2">
    <path d="M 165.285 107.633281 
C 164.091984 107.633281 162.94661 108.107711 162.103019 108.951301 
C 161.259429 109.794891 160.785 110.940265 160.785 112.133281 
C 160.785 113.326298 161.259429 114.471672 162.103019 115.315262 
C 162.94661 116.158852 164.091984 116.633281 165.285 116.633281 
" clip-path="url(#pbe4b6a5939)" style="fill: none; stroke: #000000; stroke-width: 2; stroke-linejoin: miter"/>
   </g>
   <g id="patch_3">
    <path d="M 165.285 98.633281 
C 164.091984 98.633281 162.94661 99.107711 162.103019 99.951301 
C 161.259429 100.794891 160.785 101.940265 160.785 103.133281 
C 160.785 104.326298 161.259429 105.471672 162.103019 106.315262 
C 162.94661 107.158852 164.091984 107.633281 165.285 107.633281 
" clip-path="url(#pbe4b6a5939)" style="fill: none; stroke: #000000; stroke-width: 2; stroke-linejoin: miter"/>
   </g>
   <g id="patch_4">
    <path d="M 165.285 89.633281 
C 164.091984 89.633281 162.94661 90.107711 162.103019 90.951301 
C 161.259429 91.794891 160.785 92.940265 160.785 94.133281 
C 160.785 95.326298 161.259429 96.471672 162.103019 97.315262 
C 162.94661 98.158852 164.091984 98.633281 165.285 98.633281 
" clip-path="url(#pbe4b6a5939)" style="fill: none; stroke: #000000; stroke-width: 2; stroke-linejoin: miter"/>
   </g>
   <g id="patch_5">
    <path d="M 165.285 80.633281 
C 164.091984 80.633281 162.94661 81.107711 162.103019 81.951301 
C 161.259429 82.794891 160.785 83.940265 160.785 85.133281 
C 160.785 86.326298 161.259429 87.471672 162.103019 88.315262 
C 162.94661 89.158852 164.091984 89.633281 165.285 89.633281 
" clip-path="url(#pbe4b6a5939)" style="fill: none; stroke: #000000; stroke-width: 2; stroke-linejoin: miter"/>
   </g>
   <g id="patch_6">
    <path d="M 309.285 125.633281 
C 310.478016 125.633281 311.62339 125.158852 312.466981 124.315262 
C 313.310571 123.471672 313.785 122.326298 313.785 121.133281 
C 313.785 119.940265 313.310571 118.794891 312.466981 117.951301 
C 311.62339 117.107711 310.478016 116.633281 309.285 116.633281 
" clip-path="url(#pbe4b6a5939)" style="fill: none; stroke: #000000; stroke-width: 2; stroke-linejoin: miter"/>
   </g>
   <g id="patch_7">
    <path d="M 309.285 134.633281 
C 310.478016 134.633281 311.62339 134.158852 312.466981 133.315262 
C 313.310571 132.471672 313.785 131.326298 313.785 130.133281 
C 313.785 128.940265 313.310571 127.794891 312.466981 126.951301 
C 311.62339 126.107711 310.478016 125.633281 309.285 125.633281 
" clip-path="url(#pbe4b6a5939)" style="fill: none; stroke: #000000; stroke-width: 2; stroke-linejoin: miter"/>
   </g>
   <g id="patch_8">
    <path d="M 309.285 143.633281 
C 310.478016 143.633281 311.62339 143.158852 312.466981 142.315262 
C 313.310571 141.471672 313.785 140.326298 313.785 139.133281 
C 313.785 137.940265 313.310571 136.794891 312.466981 135.951301 
C 311.62339 135.107711 310.478016 134.633281 309.285 134.633281 
" clip-path="url(#pbe4b6a5939)" style="fill: none; stroke: #000000; stroke-width: 2; stroke-linejoin: miter"/>
   </g>
   <g id="patch_9">
    <path d="M 309.285 152.633281 
C 310.478016 152.633281 311.62339 152.158852 312.466981 151.315262 
C 313.310571 150.471672 313.785 149.326298 313.785 148.133281 
C 313.785 146.940265 313.310571 145.794891 312.466981 144.951301 
C 311.62339 144.107711 310.478016 143.633281 309.285 143.633281 
" clip-path="url(#pbe4b6a5939)" style="fill: none; stroke: #000000; stroke-width: 2; stroke-linejoin: miter"/>
   </g>
   <g id="line2d_1">
    <path d="M 21.285 170.633281 
L 57.285 170.633281 
L 93.285 170.633281 
" clip-path="url(#pbe4b6a5939)" style="fill: none; stroke: #000000; stroke-width: 2; stroke-linecap: round"/>
   </g>
   <g id="line2d_2">
    <path d="M 93.285 26.633281 
L 75.285 26.633281 
L 57.285 26.633281 
" clip-path="url(#pbe4b6a5939)" style="fill: none; stroke: #000000; stroke-width: 2; stroke-linecap: round"/>
   </g>
   <g id="line2d_3">
    <path d="M 48.285 26.633281 
L 39.285 26.633281 
L 21.285 26.633281 
" clip-path="url(#pbe4b6a5939)" style="fill: none; stroke: #000000; stroke-width: 2; stroke-linecap: round"/>
   </g>
   <g id="patch_10">
    <path d="M 48.285 23.933281 
L 57.285 26.633281 
L 48.285 29.333281 
z
" clip-path="url(#pbe4b6a5939)"/>
   </g>
   <g id="line2d_4">
    <path d="M 93.285 26.633281 
L 111.285 26.633281 
L 129.285 26.633281 
" clip-path="url(#pbe4b6a5939)" style="fill: none; stroke: #000000; stroke-width: 2; stroke-linecap: round"/>
   </g>
   <g id="line2d_5">
    <path d="M 129.285 177.833281 
L 129.285 159.833281 
L 129.285 141.833281 
" clip-path="url(#pbe4b6a5939)" style="fill: none; stroke: #000000; stroke-linecap: round"/>
   </g>
   <g id="line2d_6">
    <path d="M 129.285 141.833281 
L 138.285 141.833281 
L 138.285 141.833281 
" clip-path="url(#pbe4b6a5939)" style="fill: none; stroke: #000000; stroke-linecap: round"/>
   </g>
   <g id="patch_11">
    <path d="M 138.285 139.133281 
L 147.285 141.833281 
L 138.285 144.533281 
z
" clip-path="url(#pbe4b6a5939)"/>
   </g>
   <g id="line2d_7">
    <path d="M 129.285 170.633281 
L 111.285 170.633281 
L 93.285 170.633281 
" clip-path="url(#pbe4b6a5939)" style="fill: none; stroke: #000000; stroke-width: 2; stroke-linecap: round"/>
   </g>
   <g id="line2d_8">
    <path d="M 129.285 170.633281 
L 147.285 170.633281 
L 165.285 170.633281 
" clip-path="url(#pbe4b6a5939)" style="fill: none; stroke: #000000; stroke-width: 2; stroke-linecap: round"/>
   </g>
   <g id="line2d_9">
    <path d="M 129.285 26.633281 
L 147.285 26.633281 
L 165.285 26.633281 
" clip-path="url(#pbe4b6a5939)" style="fill: none; stroke: #000000; stroke-width: 2; stroke-linecap: round"/>
   </g>
   <g id="line2d_10">
    <path d="M 165.285 170.633281 
L 165.285 116.633281 
M 165.285 80.633281 
L 165.285 26.633281 
" clip-path="url(#pbe4b6a5939)" style="fill: none; stroke: #000000; stroke-width: 2; stroke-linecap: round"/>
   </g>
   <g id="line2d_11">
    <path d="M 165.285 26.633281 
L 201.285 26.633281 
L 237.285 26.633281 
" clip-path="url(#pbe4b6a5939)" style="fill: none; stroke: #000000; stroke-width: 2; stroke-linecap: round"/>
   </g>
   <g id="line2d_12">
    <path d="M 237.285 170.633281 
L 201.285 170.633281 
L 165.285 170.633281 
" clip-path="url(#pbe4b6a5939)" style="fill: none; stroke: #000000; stroke-width: 2; stroke-linecap: round"/>
   </g>
   <g id="line2d_13">
    <path d="M 237.285 170.633281 
L 237.285 101.873281 
M 228.285 101.873281 
L 246.285 101.873281 
M 228.285 95.393281 
L 246.285 95.393281 
M 237.285 95.393281 
L 237.285 26.633281 
" clip-path="url(#pbe4b6a5939)" style="fill: none; stroke: #000000; stroke-width: 2; stroke-linecap: round"/>
   </g>
   <g id="line2d_14">
    <path d="M 237.285 26.633281 
L 273.285 26.633281 
L 309.285 26.633281 
" clip-path="url(#pbe4b6a5939)" style="fill: none; stroke: #000000; stroke-width: 2; stroke-linecap: round"/>
   </g>
   <g id="line2d_15">
    <path d="M 309.285 170.633281 
L 273.285 170.633281 
L 237.285 170.633281 
" clip-path="url(#pbe4b6a5939)" style="fill: none; stroke: #000000; stroke-width: 2; stroke-linecap: round"/>
   </g>
   <g id="line2d_16">
    <path d="M 309.285 26.633281 
L 309.285 59.393281 
M 318.285 59.393281 
L 300.285 59.393281 
M 318.285 65.873281 
L 300.285 65.873281 
M 309.285 65.873281 
L 309.285 98.633281 
" clip-path="url(#pbe4b6a5939)" style="fill: none; stroke: #000000; stroke-width: 2; stroke-linecap: round"/>
   </g>
   <g id="line2d_17">
    <path d="M 309.285 98.633281 
L 309.285 116.633281 
M 309.285 152.633281 
L 309.285 170.633281 
" clip-path="url(#pbe4b6a5939)" style="fill: none; stroke: #000000; stroke-width: 2; stroke-linecap: round"/>
   </g>
   <g id="text_1">
    <!-- + -->
    <g transform="translate(15.209727 66.634375) scale(0.145 -0.145)">
     <defs>
      <path id="DejaVuSans-2b" d="M 2944 4013 
L 2944 2272 
L 4684 2272 
L 4684 1741 
L 2944 1741 
L 2944 0 
L 2419 0 
L 2419 1741 
L 678 1741 
L 678 2272 
L 2419 2272 
L 2419 4013 
L 2944 4013 
z
" transform="scale(0.015625)"/>
     </defs>
     <use xlink:href="#DejaVuSans-2b"/>
    </g>
   </g>
   <g id="text_2">
    <!-- $V$ -->
    <g transform="translate(16.2825 102.634375) scale(0.145 -0.145)">
     <defs>
      <path id="DejaVuSans-Oblique-56" d="M 1319 0 
L 500 4666 
L 1119 4666 
L 1797 653 
L 4063 4666 
L 4750 4666 
L 2053 0 
L 1319 0 
z
" transform="scale(0.015625)"/>
     </defs>
     <use xlink:href="#DejaVuSans-Oblique-56" transform="translate(0 0.09375)"/>
    </g>
   </g>
   <g id="text_3">
    <!-- - -->
    <g transform="translate(18.669336 138.634375) scale(0.145 -0.145)">
     <defs>
      <path id="DejaVuSans-2d" d="M 313 2009 
L 1997 2009 
L 1997 1497 
L 313 1497 
L 313 2009 
z
" transform="scale(0.015625)"/>
     </defs>
     <use xlink:href="#DejaVuSans-2d"/>
    </g>
   </g>
   <g id="text_4">
    <!-- $I$ -->
    <g transform="translate(37.11 14.617734) scale(0.145 -0.145)">
     <defs>
      <path id="DejaVuSans-Oblique-49" d="M 1081 4666 
L 1716 4666 
L 806 0 
L 172 0 
L 1081 4666 
z
" transform="scale(0.015625)"/>
     </defs>
     <use xlink:href="#DejaVuSans-Oblique-49" transform="translate(0 0.09375)"/>
    </g>
   </g>
   <g id="text_5">
    <!-- $ Y = \frac{\left(s^{2} + 1\right) \left(s^{2} + 3\right)}{s^{3} + 2 s} $ -->
    <g transform="translate(56.2025 195.295781) scale(0.205 -0.205)">
     <defs>
      <path id="DejaVuSans-Oblique-59" d="M 403 4666 
L 1081 4666 
L 1953 2747 
L 3616 4666 
L 4325 4666 
L 2209 2222 
L 1778 0 
L 1147 0 
L 1575 2222 
L 403 4666 
z
" transform="scale(0.015625)"/>
      <path id="DejaVuSans-3d" d="M 678 2906 
L 4684 2906 
L 4684 2381 
L 678 2381 
L 678 2906 
z
M 678 1631 
L 4684 1631 
L 4684 1100 
L 678 1100 
L 678 1631 
z
" transform="scale(0.015625)"/>
      <path id="DejaVuSans-28" d="M 1984 4856 
Q 1566 4138 1362 3434 
Q 1159 2731 1159 2009 
Q 1159 1288 1364 580 
Q 1569 -128 1984 -844 
L 1484 -844 
Q 1016 -109 783 600 
Q 550 1309 550 2009 
Q 550 2706 781 3412 
Q 1013 4119 1484 4856 
L 1984 4856 
z
" transform="scale(0.015625)"/>
      <path id="DejaVuSans-Oblique-73" d="M 3200 3397 
L 3091 2853 
Q 2863 2978 2609 3040 
Q 2356 3103 2088 3103 
Q 1634 3103 1373 2948 
Q 1113 2794 1113 2528 
Q 1113 2219 1719 2053 
Q 1766 2041 1788 2034 
L 1972 1978 
Q 2547 1819 2739 1644 
Q 2931 1469 2931 1166 
Q 2931 609 2489 259 
Q 2047 -91 1331 -91 
Q 1053 -91 747 -37 
Q 441 16 72 128 
L 184 722 
Q 500 559 806 475 
Q 1113 391 1394 391 
Q 1816 391 2080 572 
Q 2344 753 2344 1031 
Q 2344 1331 1650 1516 
L 1591 1531 
L 1394 1581 
Q 956 1697 753 1886 
Q 550 2075 550 2369 
Q 550 2928 970 3256 
Q 1391 3584 2113 3584 
Q 2397 3584 2667 3537 
Q 2938 3491 3200 3397 
z
" transform="scale(0.015625)"/>
      <path id="DejaVuSans-32" d="M 1228 531 
L 3431 531 
L 3431 0 
L 469 0 
L 469 531 
Q 828 903 1448 1529 
Q 2069 2156 2228 2338 
Q 2531 2678 2651 2914 
Q 2772 3150 2772 3378 
Q 2772 3750 2511 3984 
Q 2250 4219 1831 4219 
Q 1534 4219 1204 4116 
Q 875 4013 500 3803 
L 500 4441 
Q 881 4594 1212 4672 
Q 1544 4750 1819 4750 
Q 2544 4750 2975 4387 
Q 3406 4025 3406 3419 
Q 3406 3131 3298 2873 
Q 3191 2616 2906 2266 
Q 2828 2175 2409 1742 
Q 1991 1309 1228 531 
z
" transform="scale(0.015625)"/>
      <path id="DejaVuSans-31" d="M 794 531 
L 1825 531 
L 1825 4091 
L 703 3866 
L 703 4441 
L 1819 4666 
L 2450 4666 
L 2450 531 
L 3481 531 
L 3481 0 
L 794 0 
L 794 531 
z
" transform="scale(0.015625)"/>
      <path id="DejaVuSans-29" d="M 513 4856 
L 1013 4856 
Q 1481 4119 1714 3412 
Q 1947 2706 1947 2009 
Q 1947 1309 1714 600 
Q 1481 -109 1013 -844 
L 513 -844 
Q 928 -128 1133 580 
Q 1338 1288 1338 2009 
Q 1338 2731 1133 3434 
Q 928 4138 513 4856 
z
" transform="scale(0.015625)"/>
      <path id="DejaVuSans-33" d="M 2597 2516 
Q 3050 2419 3304 2112 
Q 3559 1806 3559 1356 
Q 3559 666 3084 287 
Q 2609 -91 1734 -91 
Q 1441 -91 1130 -33 
Q 819 25 488 141 
L 488 750 
Q 750 597 1062 519 
Q 1375 441 1716 441 
Q 2309 441 2620 675 
Q 2931 909 2931 1356 
Q 2931 1769 2642 2001 
Q 2353 2234 1838 2234 
L 1294 2234 
L 1294 2753 
L 1863 2753 
Q 2328 2753 2575 2939 
Q 2822 3125 2822 3475 
Q 2822 3834 2567 4026 
Q 2313 4219 1838 4219 
Q 1578 4219 1281 4162 
Q 984 4106 628 3988 
L 628 4550 
Q 988 4650 1302 4700 
Q 1616 4750 1894 4750 
Q 2613 4750 3031 4423 
Q 3450 4097 3450 3541 
Q 3450 3153 3228 2886 
Q 3006 2619 2597 2516 
z
" transform="scale(0.015625)"/>
     </defs>
     <use xlink:href="#DejaVuSans-Oblique-59" transform="translate(0 0.807813)"/>
     <use xlink:href="#DejaVuSans-3d" transform="translate(80.566406 0.807813)"/>
     <use xlink:href="#DejaVuSans-28" transform="translate(183.837891 53.835938) scale(0.7)"/>
     <use xlink:href="#DejaVuSans-Oblique-73" transform="translate(211.147461 53.835938) scale(0.7)"/>
     <use xlink:href="#DejaVuSans-32" transform="translate(250.872115 80.632812) scale(0.49)"/>
     <use xlink:href="#DejaVuSans-2b" transform="translate(297.599165 53.835938) scale(0.7)"/>
     <use xlink:href="#DejaVuSans-31" transform="translate(369.889204 53.835938) scale(0.7)"/>
     <use xlink:href="#DejaVuSans-29" transform="translate(414.425337 53.835938) scale(0.7)"/>
     <use xlink:href="#DejaVuSans-28" transform="translate(441.734908 53.835938) scale(0.7)"/>
     <use xlink:href="#DejaVuSans-Oblique-73" transform="translate(469.044478 53.835938) scale(0.7)"/>
     <use xlink:href="#DejaVuSans-32" transform="translate(508.769132 80.632812) scale(0.49)"/>
     <use xlink:href="#DejaVuSans-2b" transform="translate(555.496182 53.835938) scale(0.7)"/>
     <use xlink:href="#DejaVuSans-33" transform="translate(627.786221 53.835938) scale(0.7)"/>
     <use xlink:href="#DejaVuSans-29" transform="translate(672.322354 53.835938) scale(0.7)"/>
     <use xlink:href="#DejaVuSans-Oblique-73" transform="translate(321.837891 -49.809375) scale(0.7)"/>
     <use xlink:href="#DejaVuSans-33" transform="translate(361.562544 -23.0125) scale(0.49)"/>
     <use xlink:href="#DejaVuSans-2b" transform="translate(408.289595 -49.809375) scale(0.7)"/>
     <use xlink:href="#DejaVuSans-32" transform="translate(480.579634 -49.809375) scale(0.7)"/>
     <use xlink:href="#DejaVuSans-Oblique-73" transform="translate(525.115767 -49.809375) scale(0.7)"/>
     <path d="M 183.837891 19.604688 
L 183.837891 25.854688 
L 699.631924 25.854688 
L 699.631924 19.604688 
L 183.837891 19.604688 
z
"/>
    </g>
   </g>
   <g id="text_6">
    <!-- $\frac{2}{3}$ -->
    <g transform="translate(148.775022 102.620781) scale(0.145 -0.145)">
     <use xlink:href="#DejaVuSans-32" transform="translate(0 44.046875) scale(0.7)"/>
     <use xlink:href="#DejaVuSans-33" transform="translate(0 -39.15625) scale(0.7)"/>
     <path d="M 0 19.046875 
L 0 25.296875 
L 44.536133 25.296875 
L 44.536133 19.046875 
L 0 19.046875 
z
"/>
    </g>
   </g>
   <g id="text_7">
    <!-- $1$ -->
    <g transform="translate(215.405 102.634375) scale(0.145 -0.145)">
     <use xlink:href="#DejaVuSans-31" transform="translate(0 0.09375)"/>
    </g>
   </g>
   <g id="text_8">
    <!-- $\frac{1}{4}$ -->
    <g transform="translate(288.275 66.693281) scale(0.145 -0.145)">
     <defs>
      <path id="DejaVuSans-34" d="M 2419 4116 
L 825 1625 
L 2419 1625 
L 2419 4116 
z
M 2253 4666 
L 3047 4666 
L 3047 1625 
L 3713 1625 
L 3713 1100 
L 3047 1100 
L 3047 0 
L 2419 0 
L 2419 1100 
L 313 1100 
L 313 1709 
L 2253 4666 
z
" transform="scale(0.015625)"/>
     </defs>
     <use xlink:href="#DejaVuSans-31" transform="translate(0 43.965625) scale(0.7)"/>
     <use xlink:href="#DejaVuSans-34" transform="translate(0 -38.31875) scale(0.7)"/>
     <path d="M 0 18.965625 
L 0 25.215625 
L 44.536133 25.215625 
L 44.536133 18.965625 
L 0 18.965625 
z
"/>
    </g>
   </g>
   <g id="text_9">
    <!-- $2$ -->
    <g transform="translate(296.405 138.634375) scale(0.145 -0.145)">
     <use xlink:href="#DejaVuSans-32" transform="translate(0 0.78125)"/>
    </g>
   </g>
   <g id="patch_12">
    <path d="M 21.285 29.333281 
C 22.001048 29.333281 22.687866 29.048792 23.194188 28.54247 
C 23.700511 28.036147 23.985 27.34933 23.985 26.633281 
C 23.985 25.917233 23.700511 25.230416 23.194188 24.724093 
C 22.687866 24.21777 22.001048 23.933281 21.285 23.933281 
C 20.568952 23.933281 19.882134 24.21777 19.375812 24.724093 
C 18.869489 25.230416 18.585 25.917233 18.585 26.633281 
C 18.585 27.34933 18.869489 28.036147 19.375812 28.54247 
C 19.882134 29.048792 20.568952 29.333281 21.285 29.333281 
z
" clip-path="url(#pbe4b6a5939)" style="fill: #ffffff; stroke: #000000; stroke-width: 2; stroke-linejoin: miter"/>
   </g>
   <g id="patch_13">
    <path d="M 21.285 173.333281 
C 22.001048 173.333281 22.687866 173.048792 23.194188 172.54247 
C 23.700511 172.036147 23.985 171.34933 23.985 170.633281 
C 23.985 169.917233 23.700511 169.230416 23.194188 168.724093 
C 22.687866 168.21777 22.001048 167.933281 21.285 167.933281 
C 20.568952 167.933281 19.882134 168.21777 19.375812 168.724093 
C 18.869489 169.230416 18.585 169.917233 18.585 170.633281 
C 18.585 171.34933 18.869489 172.036147 19.375812 172.54247 
C 19.882134 173.048792 20.568952 173.333281 21.285 173.333281 
z
" clip-path="url(#pbe4b6a5939)" style="fill: #ffffff; stroke: #000000; stroke-width: 2; stroke-linejoin: miter"/>
   </g>
   <g id="patch_14">
    <path d="M 165.285 173.333281 
C 166.001048 173.333281 166.687866 173.048792 167.194188 172.54247 
C 167.700511 172.036147 167.985 171.34933 167.985 170.633281 
C 167.985 169.917233 167.700511 169.230416 167.194188 168.724093 
C 166.687866 168.21777 166.001048 167.933281 165.285 167.933281 
C 164.568952 167.933281 163.882134 168.21777 163.375812 168.724093 
C 162.869489 169.230416 162.585 169.917233 162.585 170.633281 
C 162.585 171.34933 162.869489 172.036147 163.375812 172.54247 
C 163.882134 173.048792 164.568952 173.333281 165.285 173.333281 
z
" clip-path="url(#pbe4b6a5939)" style="stroke: #000000; stroke-width: 2; stroke-linejoin: miter"/>
   </g>
   <g id="patch_15">
    <path d="M 165.285 29.333281 
C 166.001048 29.333281 166.687866 29.048792 167.194188 28.54247 
C 167.700511 28.036147 167.985 27.34933 167.985 26.633281 
C 167.985 25.917233 167.700511 25.230416 167.194188 24.724093 
C 166.687866 24.21777 166.001048 23.933281 165.285 23.933281 
C 164.568952 23.933281 163.882134 24.21777 163.375812 24.724093 
C 162.869489 25.230416 162.585 25.917233 162.585 26.633281 
C 162.585 27.34933 162.869489 28.036147 163.375812 28.54247 
C 163.882134 29.048792 164.568952 29.333281 165.285 29.333281 
z
" clip-path="url(#pbe4b6a5939)" style="stroke: #000000; stroke-width: 2; stroke-linejoin: miter"/>
   </g>
   <g id="patch_16">
    <path d="M 237.285 173.333281 
C 238.001048 173.333281 238.687866 173.048792 239.194188 172.54247 
C 239.700511 172.036147 239.985 171.34933 239.985 170.633281 
C 239.985 169.917233 239.700511 169.230416 239.194188 168.724093 
C 238.687866 168.21777 238.001048 167.933281 237.285 167.933281 
C 236.568952 167.933281 235.882134 168.21777 235.375812 168.724093 
C 234.869489 169.230416 234.585 169.917233 234.585 170.633281 
C 234.585 171.34933 234.869489 172.036147 235.375812 172.54247 
C 235.882134 173.048792 236.568952 173.333281 237.285 173.333281 
z
" clip-path="url(#pbe4b6a5939)" style="stroke: #000000; stroke-width: 2; stroke-linejoin: miter"/>
   </g>
   <g id="patch_17">
    <path d="M 237.285 29.333281 
C 238.001048 29.333281 238.687866 29.048792 239.194188 28.54247 
C 239.700511 28.036147 239.985 27.34933 239.985 26.633281 
C 239.985 25.917233 239.700511 25.230416 239.194188 24.724093 
C 238.687866 24.21777 238.001048 23.933281 237.285 23.933281 
C 236.568952 23.933281 235.882134 24.21777 235.375812 24.724093 
C 234.869489 25.230416 234.585 25.917233 234.585 26.633281 
C 234.585 27.34933 234.869489 28.036147 235.375812 28.54247 
C 235.882134 29.048792 236.568952 29.333281 237.285 29.333281 
z
" clip-path="url(#pbe4b6a5939)" style="stroke: #000000; stroke-width: 2; stroke-linejoin: miter"/>
   </g>
   <g id="patch_18">
    <path d="M 309.285 29.333281 
C 310.001048 29.333281 310.687866 29.048792 311.194188 28.54247 
C 311.700511 28.036147 311.985 27.34933 311.985 26.633281 
C 311.985 25.917233 311.700511 25.230416 311.194188 24.724093 
C 310.687866 24.21777 310.001048 23.933281 309.285 23.933281 
C 308.568952 23.933281 307.882134 24.21777 307.375812 24.724093 
C 306.869489 25.230416 306.585 25.917233 306.585 26.633281 
C 306.585 27.34933 306.869489 28.036147 307.375812 28.54247 
C 307.882134 29.048792 308.568952 29.333281 309.285 29.333281 
z
" clip-path="url(#pbe4b6a5939)" style="stroke: #000000; stroke-width: 2; stroke-linejoin: miter"/>
   </g>
   <g id="patch_19">
    <path d="M 309.285 173.333281 
C 310.001048 173.333281 310.687866 173.048792 311.194188 172.54247 
C 311.700511 172.036147 311.985 171.34933 311.985 170.633281 
C 311.985 169.917233 311.700511 169.230416 311.194188 168.724093 
C 310.687866 168.21777 310.001048 167.933281 309.285 167.933281 
C 308.568952 167.933281 307.882134 168.21777 307.375812 168.724093 
C 306.869489 169.230416 306.585 169.917233 306.585 170.633281 
C 306.585 171.34933 306.869489 172.036147 307.375812 172.54247 
C 307.882134 173.048792 308.568952 173.333281 309.285 173.333281 
z
" clip-path="url(#pbe4b6a5939)" style="stroke: #000000; stroke-width: 2; stroke-linejoin: miter"/>
   </g>
  </g>
 </g>
 <defs>
  <clipPath id="pbe4b6a5939">
   <rect x="3.6" y="16.238281" width="329.67" height="169.29"/>
  </clipPath>
 </defs>
</svg>
