<?xml version="1.0" encoding="utf-8" standalone="no"?>
<!DOCTYPE svg PUBLIC "-//W3C//DTD SVG 1.1//EN"
  "http://www.w3.org/Graphics/SVG/1.1/DTD/svg11.dtd">
<svg xmlns:xlink="http://www.w3.org/1999/xlink" width="410.6428pt" height="244.46304pt" viewBox="0 0 410.6428 244.46304" xmlns="http://www.w3.org/2000/svg" version="1.1">
 <metadata>
  <rdf:RDF xmlns:dc="http://purl.org/dc/elements/1.1/" xmlns:cc="http://creativecommons.org/ns#" xmlns:rdf="http://www.w3.org/1999/02/22-rdf-syntax-ns#">
   <cc:Work>
    <dc:type rdf:resource="http://purl.org/dc/dcmitype/StillImage"/>
    <dc:date>2024-09-30T21:26:26.268579</dc:date>
    <dc:format>image/svg+xml</dc:format>
    <dc:creator>
     <cc:Agent>
      <dc:title>Matplotlib v3.9.1, https://matplotlib.org/</dc:title>
     </cc:Agent>
    </dc:creator>
   </cc:Work>
  </rdf:RDF>
 </metadata>
 <defs>
  <style type="text/css">*{stroke-linejoin: round; stroke-linecap: butt}</style>
 </defs>
 <g id="figure_1">
  <g id="patch_1">
   <path d="M 0 244.46304 
L 410.6428 244.46304 
L 410.6428 0 
L 0 0 
z
" style="fill: #ffffff"/>
  </g>
  <g id="axes_1">
   <g id="patch_2">
    <path d="M 265.7428 119.45304 
C 264.728736 119.45304 263.755168 119.856305 263.038117 120.573357 
C 262.321065 121.290408 261.9178 122.263976 261.9178 123.27804 
C 261.9178 124.292104 262.321065 125.265672 263.038117 125.982723 
C 263.755168 126.699775 264.728736 127.10304 265.7428 127.10304 
" clip-path="url(#pc0a88568e2)" style="fill: none; stroke: #000000; stroke-width: 2; stroke-linejoin: miter"/>
   </g>
   <g id="patch_3">
    <path d="M 265.7428 111.80304 
C 264.728736 111.80304 263.755168 112.206305 263.038117 112.923357 
C 262.321065 113.640408 261.9178 114.613976 261.9178 115.62804 
C 261.9178 116.642104 262.321065 117.615672 263.038117 118.332723 
C 263.755168 119.049775 264.728736 119.45304 265.7428 119.45304 
" clip-path="url(#pc0a88568e2)" style="fill: none; stroke: #000000; stroke-width: 2; stroke-linejoin: miter"/>
   </g>
   <g id="patch_4">
    <path d="M 265.7428 104.15304 
C 264.728736 104.15304 263.755168 104.556305 263.038117 105.273357 
C 262.321065 105.990408 261.9178 106.963976 261.9178 107.97804 
C 261.9178 108.992104 262.321065 109.965672 263.038117 110.682723 
C 263.755168 111.399775 264.728736 111.80304 265.7428 111.80304 
" clip-path="url(#pc0a88568e2)" style="fill: none; stroke: #000000; stroke-width: 2; stroke-linejoin: miter"/>
   </g>
   <g id="patch_5">
    <path d="M 265.7428 96.50304 
C 264.728736 96.50304 263.755168 96.906305 263.038117 97.623357 
C 262.321065 98.340408 261.9178 99.313976 261.9178 100.32804 
C 261.9178 101.342104 262.321065 102.315672 263.038117 103.032723 
C 263.755168 103.749775 264.728736 104.15304 265.7428 104.15304 
" clip-path="url(#pc0a88568e2)" style="fill: none; stroke: #000000; stroke-width: 2; stroke-linejoin: miter"/>
   </g>
   <g id="patch_6">
    <path d="M 388.1428 119.45304 
C 387.128736 119.45304 386.155168 119.856305 385.438117 120.573357 
C 384.721065 121.290408 384.3178 122.263976 384.3178 123.27804 
C 384.3178 124.292104 384.721065 125.265672 385.438117 125.982723 
C 386.155168 126.699775 387.128736 127.10304 388.1428 127.10304 
" clip-path="url(#pc0a88568e2)" style="fill: none; stroke: #000000; stroke-width: 2; stroke-linejoin: miter"/>
   </g>
   <g id="patch_7">
    <path d="M 388.1428 111.80304 
C 387.128736 111.80304 386.155168 112.206305 385.438117 112.923357 
C 384.721065 113.640408 384.3178 114.613976 384.3178 115.62804 
C 384.3178 116.642104 384.721065 117.615672 385.438117 118.332723 
C 386.155168 119.049775 387.128736 119.45304 388.1428 119.45304 
" clip-path="url(#pc0a88568e2)" style="fill: none; stroke: #000000; stroke-width: 2; stroke-linejoin: miter"/>
   </g>
   <g id="patch_8">
    <path d="M 388.1428 104.15304 
C 387.128736 104.15304 386.155168 104.556305 385.438117 105.273357 
C 384.721065 105.990408 384.3178 106.963976 384.3178 107.97804 
C 384.3178 108.992104 384.721065 109.965672 385.438117 110.682723 
C 386.155168 111.399775 387.128736 111.80304 388.1428 111.80304 
" clip-path="url(#pc0a88568e2)" style="fill: none; stroke: #000000; stroke-width: 2; stroke-linejoin: miter"/>
   </g>
   <g id="patch_9">
    <path d="M 388.1428 96.50304 
C 387.128736 96.50304 386.155168 96.906305 385.438117 97.623357 
C 384.721065 98.340408 384.3178 99.313976 384.3178 100.32804 
C 384.3178 101.342104 384.721065 102.315672 385.438117 103.032723 
C 386.155168 103.749775 387.128736 104.15304 388.1428 104.15304 
" clip-path="url(#pc0a88568e2)" style="fill: none; stroke: #000000; stroke-width: 2; stroke-linejoin: miter"/>
   </g>
   <g id="line2d_1">
    <path d="M 20.9428 173.00304 
L 51.5428 173.00304 
L 82.1428 173.00304 
" clip-path="url(#pc0a88568e2)" style="fill: none; stroke: #000000; stroke-width: 2; stroke-linecap: round"/>
   </g>
   <g id="line2d_2">
    <path d="M 82.1428 50.60304 
L 66.8428 50.60304 
L 51.5428 50.60304 
" clip-path="url(#pc0a88568e2)" style="fill: none; stroke: #000000; stroke-width: 2; stroke-linecap: round"/>
   </g>
   <g id="line2d_3">
    <path d="M 43.8928 50.60304 
L 36.2428 50.60304 
L 20.9428 50.60304 
" clip-path="url(#pc0a88568e2)" style="fill: none; stroke: #000000; stroke-width: 2; stroke-linecap: round"/>
   </g>
   <g id="patch_10">
    <path d="M 43.8928 48.30804 
L 51.5428 50.60304 
L 43.8928 52.89804 
z
" clip-path="url(#pc0a88568e2)"/>
   </g>
   <g id="line2d_4">
    <path d="M 82.1428 50.60304 
L 97.4428 50.60304 
L 112.7428 50.60304 
" clip-path="url(#pc0a88568e2)" style="fill: none; stroke: #000000; stroke-width: 2; stroke-linecap: round"/>
   </g>
   <g id="line2d_5">
    <path d="M 112.7428 179.12304 
L 112.7428 163.82304 
L 112.7428 148.52304 
" clip-path="url(#pc0a88568e2)" style="fill: none; stroke: #000000; stroke-linecap: round"/>
   </g>
   <g id="line2d_6">
    <path d="M 112.7428 148.52304 
L 120.3928 148.52304 
L 120.3928 148.52304 
" clip-path="url(#pc0a88568e2)" style="fill: none; stroke: #000000; stroke-linecap: round"/>
   </g>
   <g id="patch_11">
    <path d="M 120.3928 146.22804 
L 128.0428 148.52304 
L 120.3928 150.81804 
z
" clip-path="url(#pc0a88568e2)"/>
   </g>
   <g id="line2d_7">
    <path d="M 112.7428 173.00304 
L 97.4428 173.00304 
L 82.1428 173.00304 
" clip-path="url(#pc0a88568e2)" style="fill: none; stroke: #000000; stroke-width: 2; stroke-linecap: round"/>
   </g>
   <g id="line2d_8">
    <path d="M 112.7428 173.00304 
L 128.0428 173.00304 
L 143.3428 173.00304 
" clip-path="url(#pc0a88568e2)" style="fill: none; stroke: #000000; stroke-width: 2; stroke-linecap: round"/>
   </g>
   <g id="line2d_9">
    <path d="M 112.7428 50.60304 
L 128.0428 50.60304 
L 143.3428 50.60304 
" clip-path="url(#pc0a88568e2)" style="fill: none; stroke: #000000; stroke-width: 2; stroke-linecap: round"/>
   </g>
   <g id="line2d_10">
    <path d="M 143.3428 50.60304 
L 201.7888 50.60304 
M 201.7888 42.95304 
L 201.7888 58.25304 
M 207.2968 42.95304 
L 207.2968 58.25304 
M 207.2968 50.60304 
L 265.7428 50.60304 
" clip-path="url(#pc0a88568e2)" style="fill: none; stroke: #000000; stroke-width: 2; stroke-linecap: round"/>
   </g>
   <g id="line2d_11">
    <path d="M 265.7428 173.00304 
L 204.5428 173.00304 
L 143.3428 173.00304 
" clip-path="url(#pc0a88568e2)" style="fill: none; stroke: #000000; stroke-width: 2; stroke-linecap: round"/>
   </g>
   <g id="line2d_12">
    <path d="M 265.7428 173.00304 
L 265.7428 127.10304 
M 265.7428 96.50304 
L 265.7428 50.60304 
" clip-path="url(#pc0a88568e2)" style="fill: none; stroke: #000000; stroke-width: 2; stroke-linecap: round"/>
   </g>
   <g id="line2d_13">
    <path d="M 265.7428 50.60304 
L 324.1888 50.60304 
M 324.1888 42.95304 
L 324.1888 58.25304 
M 329.6968 42.95304 
L 329.6968 58.25304 
M 329.6968 50.60304 
L 388.1428 50.60304 
" clip-path="url(#pc0a88568e2)" style="fill: none; stroke: #000000; stroke-width: 2; stroke-linecap: round"/>
   </g>
   <g id="line2d_14">
    <path d="M 388.1428 173.00304 
L 326.9428 173.00304 
L 265.7428 173.00304 
" clip-path="url(#pc0a88568e2)" style="fill: none; stroke: #000000; stroke-width: 2; stroke-linecap: round"/>
   </g>
   <g id="line2d_15">
    <path d="M 388.1428 173.00304 
L 388.1428 127.10304 
M 388.1428 96.50304 
L 388.1428 50.60304 
" clip-path="url(#pc0a88568e2)" style="fill: none; stroke: #000000; stroke-width: 2; stroke-linecap: round"/>
   </g>
   <g id="text_1">
    <g clip-path="url(#pc0a88568e2)">
     <!-- + -->
     <g transform="translate(14.867527 85.204134) scale(0.145 -0.145)">
      <defs>
       <path id="DejaVuSans-2b" d="M 2944 4013 
L 2944 2272 
L 4684 2272 
L 4684 1741 
L 2944 1741 
L 2944 0 
L 2419 0 
L 2419 1741 
L 678 1741 
L 678 2272 
L 2419 2272 
L 2419 4013 
L 2944 4013 
z
" transform="scale(0.015625)"/>
      </defs>
      <use xlink:href="#DejaVuSans-2b"/>
     </g>
    </g>
   </g>
   <g id="text_2">
    <g clip-path="url(#pc0a88568e2)">
     <!-- $V$ -->
     <g transform="translate(15.9403 115.804134) scale(0.145 -0.145)">
      <defs>
       <path id="DejaVuSans-Oblique-56" d="M 1319 0 
L 500 4666 
L 1119 4666 
L 1797 653 
L 4063 4666 
L 4750 4666 
L 2053 0 
L 1319 0 
z
" transform="scale(0.015625)"/>
      </defs>
      <use xlink:href="#DejaVuSans-Oblique-56" transform="translate(0 0.09375)"/>
     </g>
    </g>
   </g>
   <g id="text_3">
    <g clip-path="url(#pc0a88568e2)">
     <!-- - -->
     <g transform="translate(18.327136 146.404134) scale(0.145 -0.145)">
      <defs>
       <path id="DejaVuSans-2d" d="M 313 2009 
L 1997 2009 
L 1997 1497 
L 313 1497 
L 313 2009 
z
" transform="scale(0.015625)"/>
      </defs>
      <use xlink:href="#DejaVuSans-2d"/>
     </g>
    </g>
   </g>
   <g id="text_4">
    <g clip-path="url(#pc0a88568e2)">
     <!-- $I$ -->
     <g transform="translate(34.0678 44.527493) scale(0.145 -0.145)">
      <defs>
       <path id="DejaVuSans-Oblique-49" d="M 1081 4666 
L 1716 4666 
L 806 0 
L 172 0 
L 1081 4666 
z
" transform="scale(0.015625)"/>
      </defs>
      <use xlink:href="#DejaVuSans-Oblique-49" transform="translate(0 0.09375)"/>
     </g>
    </g>
   </g>
   <g id="text_5">
    <g clip-path="url(#pc0a88568e2)">
     <!-- $ Z = \frac{1}{\frac{1}{5 s + \frac{25}{2 s}} + \frac{4}{5 s}} + \frac{3}{2 s} $ -->
     <g transform="translate(36.1753 208.18804) scale(0.205 -0.205)">
      <defs>
       <path id="DejaVuSans-Oblique-5a" d="M 838 4666 
L 4500 4666 
L 4409 4184 
L 794 531 
L 3769 531 
L 3669 0 
L -141 0 
L -50 481 
L 3566 4134 
L 738 4134 
L 838 4666 
z
" transform="scale(0.015625)"/>
       <path id="DejaVuSans-3d" d="M 678 2906 
L 4684 2906 
L 4684 2381 
L 678 2381 
L 678 2906 
z
M 678 1631 
L 4684 1631 
L 4684 1100 
L 678 1100 
L 678 1631 
z
" transform="scale(0.015625)"/>
       <path id="DejaVuSans-31" d="M 794 531 
L 1825 531 
L 1825 4091 
L 703 3866 
L 703 4441 
L 1819 4666 
L 2450 4666 
L 2450 531 
L 3481 531 
L 3481 0 
L 794 0 
L 794 531 
z
" transform="scale(0.015625)"/>
       <path id="DejaVuSans-35" d="M 691 4666 
L 3169 4666 
L 3169 4134 
L 1269 4134 
L 1269 2991 
Q 1406 3038 1543 3061 
Q 1681 3084 1819 3084 
Q 2600 3084 3056 2656 
Q 3513 2228 3513 1497 
Q 3513 744 3044 326 
Q 2575 -91 1722 -91 
Q 1428 -91 1123 -41 
Q 819 9 494 109 
L 494 744 
Q 775 591 1075 516 
Q 1375 441 1709 441 
Q 2250 441 2565 725 
Q 2881 1009 2881 1497 
Q 2881 1984 2565 2268 
Q 2250 2553 1709 2553 
Q 1456 2553 1204 2497 
Q 953 2441 691 2322 
L 691 4666 
z
" transform="scale(0.015625)"/>
       <path id="DejaVuSans-Oblique-73" d="M 3200 3397 
L 3091 2853 
Q 2863 2978 2609 3040 
Q 2356 3103 2088 3103 
Q 1634 3103 1373 2948 
Q 1113 2794 1113 2528 
Q 1113 2219 1719 2053 
Q 1766 2041 1788 2034 
L 1972 1978 
Q 2547 1819 2739 1644 
Q 2931 1469 2931 1166 
Q 2931 609 2489 259 
Q 2047 -91 1331 -91 
Q 1053 -91 747 -37 
Q 441 16 72 128 
L 184 722 
Q 500 559 806 475 
Q 1113 391 1394 391 
Q 1816 391 2080 572 
Q 2344 753 2344 1031 
Q 2344 1331 1650 1516 
L 1591 1531 
L 1394 1581 
Q 956 1697 753 1886 
Q 550 2075 550 2369 
Q 550 2928 970 3256 
Q 1391 3584 2113 3584 
Q 2397 3584 2667 3537 
Q 2938 3491 3200 3397 
z
" transform="scale(0.015625)"/>
       <path id="DejaVuSans-32" d="M 1228 531 
L 3431 531 
L 3431 0 
L 469 0 
L 469 531 
Q 828 903 1448 1529 
Q 2069 2156 2228 2338 
Q 2531 2678 2651 2914 
Q 2772 3150 2772 3378 
Q 2772 3750 2511 3984 
Q 2250 4219 1831 4219 
Q 1534 4219 1204 4116 
Q 875 4013 500 3803 
L 500 4441 
Q 881 4594 1212 4672 
Q 1544 4750 1819 4750 
Q 2544 4750 2975 4387 
Q 3406 4025 3406 3419 
Q 3406 3131 3298 2873 
Q 3191 2616 2906 2266 
Q 2828 2175 2409 1742 
Q 1991 1309 1228 531 
z
" transform="scale(0.015625)"/>
       <path id="DejaVuSans-34" d="M 2419 4116 
L 825 1625 
L 2419 1625 
L 2419 4116 
z
M 2253 4666 
L 3047 4666 
L 3047 1625 
L 3713 1625 
L 3713 1100 
L 3047 1100 
L 3047 0 
L 2419 0 
L 2419 1100 
L 313 1100 
L 313 1709 
L 2253 4666 
z
" transform="scale(0.015625)"/>
       <path id="DejaVuSans-33" d="M 2597 2516 
Q 3050 2419 3304 2112 
Q 3559 1806 3559 1356 
Q 3559 666 3084 287 
Q 2609 -91 1734 -91 
Q 1441 -91 1130 -33 
Q 819 25 488 141 
L 488 750 
Q 750 597 1062 519 
Q 1375 441 1716 441 
Q 2309 441 2620 675 
Q 2931 909 2931 1356 
Q 2931 1769 2642 2001 
Q 2353 2234 1838 2234 
L 1294 2234 
L 1294 2753 
L 1863 2753 
Q 2328 2753 2575 2939 
Q 2822 3125 2822 3475 
Q 2822 3834 2567 4026 
Q 2313 4219 1838 4219 
Q 1578 4219 1281 4162 
Q 984 4106 628 3988 
L 628 4550 
Q 988 4650 1302 4700 
Q 1616 4750 1894 4750 
Q 2613 4750 3031 4423 
Q 3450 4097 3450 3541 
Q 3450 3153 3228 2886 
Q 3006 2619 2597 2516 
z
" transform="scale(0.015625)"/>
      </defs>
      <use xlink:href="#DejaVuSans-Oblique-5a" transform="translate(0 0.254687)"/>
      <use xlink:href="#DejaVuSans-3d" transform="translate(87.988281 0.254687)"/>
      <use xlink:href="#DejaVuSans-31" transform="translate(332.259766 44.051562) scale(0.7)"/>
      <use xlink:href="#DejaVuSans-31" transform="translate(259.259766 -22.9225) scale(0.49)"/>
      <use xlink:href="#DejaVuSans-35" transform="translate(191.259766 -92.202703) scale(0.49)"/>
      <use xlink:href="#DejaVuSans-Oblique-73" transform="translate(222.435059 -92.202703) scale(0.49)"/>
      <use xlink:href="#DejaVuSans-2b" transform="translate(257.510254 -92.202703) scale(0.49)"/>
      <use xlink:href="#DejaVuSans-32" transform="translate(308.113281 -70.254531) scale(0.343)"/>
      <use xlink:href="#DejaVuSans-35" transform="translate(329.935986 -70.254531) scale(0.343)"/>
      <use xlink:href="#DejaVuSans-32" transform="translate(310.113281 -111.511766) scale(0.343)"/>
      <use xlink:href="#DejaVuSans-Oblique-73" transform="translate(331.935986 -111.511766) scale(0.343)"/>
      <use xlink:href="#DejaVuSans-2b" transform="translate(380.271387 -53.580312) scale(0.7)"/>
      <use xlink:href="#DejaVuSans-34" transform="translate(465.561426 -22.9225) scale(0.49)"/>
      <use xlink:href="#DejaVuSans-35" transform="translate(452.561426 -80.521563) scale(0.49)"/>
      <use xlink:href="#DejaVuSans-Oblique-73" transform="translate(483.736719 -80.521563) scale(0.49)"/>
      <use xlink:href="#DejaVuSans-2b" transform="translate(549.997949 0.254687)"/>
      <use xlink:href="#DejaVuSans-33" transform="translate(671.269434 45.046875) scale(0.7)"/>
      <use xlink:href="#DejaVuSans-32" transform="translate(653.269434 -39.151563) scale(0.7)"/>
      <use xlink:href="#DejaVuSans-Oblique-73" transform="translate(697.805566 -39.151563) scale(0.7)"/>
      <path d="M 191.259766 19.051562 
L 191.259766 25.301562 
L 518.015527 25.301562 
L 518.015527 19.051562 
L 191.259766 19.051562 
z
"/>
      <path d="M 191.259766 -40.4225 
L 191.259766 -36.0475 
L 357.883691 -36.0475 
L 357.883691 -40.4225 
L 191.259766 -40.4225 
z
"/>
      <path d="M 308.113281 -82.992234 
L 308.113281 -79.929734 
L 351.758691 -79.929734 
L 351.758691 -82.992234 
L 308.113281 -82.992234 
z
"/>
      <path d="M 452.561426 -40.4225 
L 452.561426 -36.0475 
L 509.265527 -36.0475 
L 509.265527 -40.4225 
L 452.561426 -40.4225 
z
"/>
      <path d="M 653.269434 19.051563 
L 653.269434 25.301563 
L 734.275293 25.301563 
L 734.275293 19.051563 
L 653.269434 19.051563 
z
"/>
     </g>
    </g>
   </g>
   <g id="text_6">
    <g clip-path="url(#pc0a88568e2)">
     <!-- $\frac{2}{3}$ -->
     <g transform="translate(200.3378 33.94804) scale(0.145 -0.145)">
      <use xlink:href="#DejaVuSans-32" transform="translate(0 44.046875) scale(0.7)"/>
      <use xlink:href="#DejaVuSans-33" transform="translate(0 -39.15625) scale(0.7)"/>
      <path d="M 0 19.046875 
L 0 25.296875 
L 44.536133 25.296875 
L 44.536133 19.046875 
L 0 19.046875 
z
"/>
     </g>
    </g>
   </g>
   <g id="text_7">
    <g clip-path="url(#pc0a88568e2)">
     <!-- $\frac{5}{4}$ -->
     <g transform="translate(250.447819 115.93554) scale(0.145 -0.145)">
      <use xlink:href="#DejaVuSans-35" transform="translate(0 44.965625) scale(0.7)"/>
      <use xlink:href="#DejaVuSans-34" transform="translate(0 -38.314062) scale(0.7)"/>
      <path d="M 0 18.970313 
L 0 25.220313 
L 44.536133 25.220313 
L 44.536133 18.970313 
L 0 18.970313 
z
"/>
     </g>
    </g>
   </g>
   <g id="text_8">
    <g clip-path="url(#pc0a88568e2)">
     <!-- $\frac{2}{25}$ -->
     <g transform="translate(319.5478 33.94804) scale(0.145 -0.145)">
      <use xlink:href="#DejaVuSans-32" transform="translate(22 44.046875) scale(0.7)"/>
      <use xlink:href="#DejaVuSans-32" transform="translate(0 -39.15625) scale(0.7)"/>
      <use xlink:href="#DejaVuSans-35" transform="translate(44.536133 -39.15625) scale(0.7)"/>
      <path d="M 0 19.046875 
L 0 25.296875 
L 89.072266 25.296875 
L 89.072266 19.046875 
L 0 19.046875 
z
"/>
     </g>
    </g>
   </g>
   <g id="text_9">
    <g clip-path="url(#pc0a88568e2)">
     <!-- $5$ -->
     <g transform="translate(371.977819 115.804134) scale(0.145 -0.145)">
      <use xlink:href="#DejaVuSans-35" transform="translate(0 0.09375)"/>
     </g>
    </g>
   </g>
   <g id="patch_12">
    <path d="M 20.9428 52.89804 
C 21.551441 52.89804 22.135236 52.656224 22.56561 52.22585 
C 22.995984 51.795476 23.2378 51.211681 23.2378 50.60304 
C 23.2378 49.994399 22.995984 49.410604 22.56561 48.98023 
C 22.135236 48.549856 21.551441 48.30804 20.9428 48.30804 
C 20.334159 48.30804 19.750364 48.549856 19.31999 48.98023 
C 18.889616 49.410604 18.6478 49.994399 18.6478 50.60304 
C 18.6478 51.211681 18.889616 51.795476 19.31999 52.22585 
C 19.750364 52.656224 20.334159 52.89804 20.9428 52.89804 
z
" clip-path="url(#pc0a88568e2)" style="fill: #ffffff; stroke: #000000; stroke-width: 2; stroke-linejoin: miter"/>
   </g>
   <g id="patch_13">
    <path d="M 20.9428 175.29804 
C 21.551441 175.29804 22.135236 175.056224 22.56561 174.62585 
C 22.995984 174.195476 23.2378 173.611681 23.2378 173.00304 
C 23.2378 172.394399 22.995984 171.810604 22.56561 171.38023 
C 22.135236 170.949856 21.551441 170.70804 20.9428 170.70804 
C 20.334159 170.70804 19.750364 170.949856 19.31999 171.38023 
C 18.889616 171.810604 18.6478 172.394399 18.6478 173.00304 
C 18.6478 173.611681 18.889616 174.195476 19.31999 174.62585 
C 19.750364 175.056224 20.334159 175.29804 20.9428 175.29804 
z
" clip-path="url(#pc0a88568e2)" style="fill: #ffffff; stroke: #000000; stroke-width: 2; stroke-linejoin: miter"/>
   </g>
   <g id="patch_14">
    <path d="M 265.7428 175.29804 
C 266.351441 175.29804 266.935236 175.056224 267.36561 174.62585 
C 267.795984 174.195476 268.0378 173.611681 268.0378 173.00304 
C 268.0378 172.394399 267.795984 171.810604 267.36561 171.38023 
C 266.935236 170.949856 266.351441 170.70804 265.7428 170.70804 
C 265.134159 170.70804 264.550364 170.949856 264.11999 171.38023 
C 263.689616 171.810604 263.4478 172.394399 263.4478 173.00304 
C 263.4478 173.611681 263.689616 174.195476 264.11999 174.62585 
C 264.550364 175.056224 265.134159 175.29804 265.7428 175.29804 
z
" clip-path="url(#pc0a88568e2)" style="stroke: #000000; stroke-width: 2; stroke-linejoin: miter"/>
   </g>
   <g id="patch_15">
    <path d="M 265.7428 52.89804 
C 266.351441 52.89804 266.935236 52.656224 267.36561 52.22585 
C 267.795984 51.795476 268.0378 51.211681 268.0378 50.60304 
C 268.0378 49.994399 267.795984 49.410604 267.36561 48.98023 
C 266.935236 48.549856 266.351441 48.30804 265.7428 48.30804 
C 265.134159 48.30804 264.550364 48.549856 264.11999 48.98023 
C 263.689616 49.410604 263.4478 49.994399 263.4478 50.60304 
C 263.4478 51.211681 263.689616 51.795476 264.11999 52.22585 
C 264.550364 52.656224 265.134159 52.89804 265.7428 52.89804 
z
" clip-path="url(#pc0a88568e2)" style="stroke: #000000; stroke-width: 2; stroke-linejoin: miter"/>
   </g>
   <g id="patch_16">
    <path d="M 388.1428 175.29804 
C 388.751441 175.29804 389.335236 175.056224 389.76561 174.62585 
C 390.195984 174.195476 390.4378 173.611681 390.4378 173.00304 
C 390.4378 172.394399 390.195984 171.810604 389.76561 171.38023 
C 389.335236 170.949856 388.751441 170.70804 388.1428 170.70804 
C 387.534159 170.70804 386.950364 170.949856 386.51999 171.38023 
C 386.089616 171.810604 385.8478 172.394399 385.8478 173.00304 
C 385.8478 173.611681 386.089616 174.195476 386.51999 174.62585 
C 386.950364 175.056224 387.534159 175.29804 388.1428 175.29804 
z
" clip-path="url(#pc0a88568e2)" style="stroke: #000000; stroke-width: 2; stroke-linejoin: miter"/>
   </g>
   <g id="patch_17">
    <path d="M 388.1428 52.89804 
C 388.751441 52.89804 389.335236 52.656224 389.76561 52.22585 
C 390.195984 51.795476 390.4378 51.211681 390.4378 50.60304 
C 390.4378 49.994399 390.195984 49.410604 389.76561 48.98023 
C 389.335236 48.549856 388.751441 48.30804 388.1428 48.30804 
C 387.534159 48.30804 386.950364 48.549856 386.51999 48.98023 
C 386.089616 49.410604 385.8478 49.994399 385.8478 50.60304 
C 385.8478 51.211681 386.089616 51.795476 386.51999 52.22585 
C 386.950364 52.656224 387.534159 52.89804 388.1428 52.89804 
z
" clip-path="url(#pc0a88568e2)" style="stroke: #000000; stroke-width: 2; stroke-linejoin: miter"/>
   </g>
  </g>
 </g>
 <defs>
  <clipPath id="pc0a88568e2">
   <rect x="7.2" y="7.2" width="396.2428" height="230.06304"/>
  </clipPath>
 </defs>
</svg>
