<?xml version="1.0" encoding="utf-8" standalone="no"?>
<!DOCTYPE svg PUBLIC "-//W3C//DTD SVG 1.1//EN"
  "http://www.w3.org/Graphics/SVG/1.1/DTD/svg11.dtd">
<svg xmlns:xlink="http://www.w3.org/1999/xlink" width="416.07pt" height="189.569978pt" viewBox="0 0 416.07 189.569978" xmlns="http://www.w3.org/2000/svg" version="1.1">
 <metadata>
  <rdf:RDF xmlns:dc="http://purl.org/dc/elements/1.1/" xmlns:cc="http://creativecommons.org/ns#" xmlns:rdf="http://www.w3.org/1999/02/22-rdf-syntax-ns#">
   <cc:Work>
    <dc:type rdf:resource="http://purl.org/dc/dcmitype/StillImage"/>
    <dc:date>2024-10-19T22:10:58.267230</dc:date>
    <dc:format>image/svg+xml</dc:format>
    <dc:creator>
     <cc:Agent>
      <dc:title>Matplotlib v3.7.5, https://matplotlib.org/</dc:title>
     </cc:Agent>
    </dc:creator>
   </cc:Work>
  </rdf:RDF>
 </metadata>
 <defs>
  <style type="text/css">*{stroke-linejoin: round; stroke-linecap: butt}</style>
 </defs>
 <g id="figure_1">
  <g id="patch_1">
   <path d="M 0 189.569978 
L 416.07 189.569978 
L 416.07 0 
L 0 0 
z
" style="fill: #ffffff"/>
  </g>
  <g id="axes_1">
   <g id="patch_2">
    <path d="M 159.885 31.709978 
C 159.885 30.516961 159.410571 29.371587 158.566981 28.527997 
C 157.72339 27.684407 156.578016 27.209978 155.385 27.209978 
C 154.191984 27.209978 153.04661 27.684407 152.203019 28.527997 
C 151.359429 29.371587 150.885 30.516961 150.885 31.709978 
" clip-path="url(#p312c996ec8)" style="fill: none; stroke: #000000; stroke-width: 2; stroke-linejoin: miter"/>
   </g>
   <g id="patch_3">
    <path d="M 168.885 31.709978 
C 168.885 30.516961 168.410571 29.371587 167.566981 28.527997 
C 166.72339 27.684407 165.578016 27.209978 164.385 27.209978 
C 163.191984 27.209978 162.04661 27.684407 161.203019 28.527997 
C 160.359429 29.371587 159.885 30.516961 159.885 31.709978 
" clip-path="url(#p312c996ec8)" style="fill: none; stroke: #000000; stroke-width: 2; stroke-linejoin: miter"/>
   </g>
   <g id="patch_4">
    <path d="M 177.885 31.709978 
C 177.885 30.516961 177.410571 29.371587 176.566981 28.527997 
C 175.72339 27.684407 174.578016 27.209978 173.385 27.209978 
C 172.191984 27.209978 171.04661 27.684407 170.203019 28.527997 
C 169.359429 29.371587 168.885 30.516961 168.885 31.709978 
" clip-path="url(#p312c996ec8)" style="fill: none; stroke: #000000; stroke-width: 2; stroke-linejoin: miter"/>
   </g>
   <g id="patch_5">
    <path d="M 186.885 31.709978 
C 186.885 30.516961 186.410571 29.371587 185.566981 28.527997 
C 184.72339 27.684407 183.578016 27.209978 182.385 27.209978 
C 181.191984 27.209978 180.04661 27.684407 179.203019 28.527997 
C 178.359429 29.371587 177.885 30.516961 177.885 31.709978 
" clip-path="url(#p312c996ec8)" style="fill: none; stroke: #000000; stroke-width: 2; stroke-linejoin: miter"/>
   </g>
   <g id="patch_6">
    <path d="M 240.885 130.709978 
C 242.078016 130.709978 243.22339 130.235548 244.066981 129.391958 
C 244.910571 128.548368 245.385 127.402994 245.385 126.209978 
C 245.385 125.016961 244.910571 123.871587 244.066981 123.027997 
C 243.22339 122.184407 242.078016 121.709978 240.885 121.709978 
" clip-path="url(#p312c996ec8)" style="fill: none; stroke: #000000; stroke-width: 2; stroke-linejoin: miter"/>
   </g>
   <g id="patch_7">
    <path d="M 240.885 139.709978 
C 242.078016 139.709978 243.22339 139.235548 244.066981 138.391958 
C 244.910571 137.548368 245.385 136.402994 245.385 135.209978 
C 245.385 134.016961 244.910571 132.871587 244.066981 132.027997 
C 243.22339 131.184407 242.078016 130.709978 240.885 130.709978 
" clip-path="url(#p312c996ec8)" style="fill: none; stroke: #000000; stroke-width: 2; stroke-linejoin: miter"/>
   </g>
   <g id="patch_8">
    <path d="M 240.885 148.709978 
C 242.078016 148.709978 243.22339 148.235548 244.066981 147.391958 
C 244.910571 146.548368 245.385 145.402994 245.385 144.209978 
C 245.385 143.016961 244.910571 141.871587 244.066981 141.027997 
C 243.22339 140.184407 242.078016 139.709978 240.885 139.709978 
" clip-path="url(#p312c996ec8)" style="fill: none; stroke: #000000; stroke-width: 2; stroke-linejoin: miter"/>
   </g>
   <g id="patch_9">
    <path d="M 240.885 157.709978 
C 242.078016 157.709978 243.22339 157.235548 244.066981 156.391958 
C 244.910571 155.548368 245.385 154.402994 245.385 153.209978 
C 245.385 152.016961 244.910571 150.871587 244.066981 150.027997 
C 243.22339 149.184407 242.078016 148.709978 240.885 148.709978 
" clip-path="url(#p312c996ec8)" style="fill: none; stroke: #000000; stroke-width: 2; stroke-linejoin: miter"/>
   </g>
   <g id="patch_10">
    <path d="M 303.885 31.709978 
C 303.885 30.516961 303.410571 29.371587 302.566981 28.527997 
C 301.72339 27.684407 300.578016 27.209978 299.385 27.209978 
C 298.191984 27.209978 297.04661 27.684407 296.203019 28.527997 
C 295.359429 29.371587 294.885 30.516961 294.885 31.709978 
" clip-path="url(#p312c996ec8)" style="fill: none; stroke: #000000; stroke-width: 2; stroke-linejoin: miter"/>
   </g>
   <g id="patch_11">
    <path d="M 312.885 31.709978 
C 312.885 30.516961 312.410571 29.371587 311.566981 28.527997 
C 310.72339 27.684407 309.578016 27.209978 308.385 27.209978 
C 307.191984 27.209978 306.04661 27.684407 305.203019 28.527997 
C 304.359429 29.371587 303.885 30.516961 303.885 31.709978 
" clip-path="url(#p312c996ec8)" style="fill: none; stroke: #000000; stroke-width: 2; stroke-linejoin: miter"/>
   </g>
   <g id="patch_12">
    <path d="M 321.885 31.709978 
C 321.885 30.516961 321.410571 29.371587 320.566981 28.527997 
C 319.72339 27.684407 318.578016 27.209978 317.385 27.209978 
C 316.191984 27.209978 315.04661 27.684407 314.203019 28.527997 
C 313.359429 29.371587 312.885 30.516961 312.885 31.709978 
" clip-path="url(#p312c996ec8)" style="fill: none; stroke: #000000; stroke-width: 2; stroke-linejoin: miter"/>
   </g>
   <g id="patch_13">
    <path d="M 330.885 31.709978 
C 330.885 30.516961 330.410571 29.371587 329.566981 28.527997 
C 328.72339 27.684407 327.578016 27.209978 326.385 27.209978 
C 325.191984 27.209978 324.04661 27.684407 323.203019 28.527997 
C 322.359429 29.371587 321.885 30.516961 321.885 31.709978 
" clip-path="url(#p312c996ec8)" style="fill: none; stroke: #000000; stroke-width: 2; stroke-linejoin: miter"/>
   </g>
   <g id="patch_14">
    <path d="M 384.885 130.709978 
C 386.078016 130.709978 387.22339 130.235548 388.066981 129.391958 
C 388.910571 128.548368 389.385 127.402994 389.385 126.209978 
C 389.385 125.016961 388.910571 123.871587 388.066981 123.027997 
C 387.22339 122.184407 386.078016 121.709978 384.885 121.709978 
" clip-path="url(#p312c996ec8)" style="fill: none; stroke: #000000; stroke-width: 2; stroke-linejoin: miter"/>
   </g>
   <g id="patch_15">
    <path d="M 384.885 139.709978 
C 386.078016 139.709978 387.22339 139.235548 388.066981 138.391958 
C 388.910571 137.548368 389.385 136.402994 389.385 135.209978 
C 389.385 134.016961 388.910571 132.871587 388.066981 132.027997 
C 387.22339 131.184407 386.078016 130.709978 384.885 130.709978 
" clip-path="url(#p312c996ec8)" style="fill: none; stroke: #000000; stroke-width: 2; stroke-linejoin: miter"/>
   </g>
   <g id="patch_16">
    <path d="M 384.885 148.709978 
C 386.078016 148.709978 387.22339 148.235548 388.066981 147.391958 
C 388.910571 146.548368 389.385 145.402994 389.385 144.209978 
C 389.385 143.016961 388.910571 141.871587 388.066981 141.027997 
C 387.22339 140.184407 386.078016 139.709978 384.885 139.709978 
" clip-path="url(#p312c996ec8)" style="fill: none; stroke: #000000; stroke-width: 2; stroke-linejoin: miter"/>
   </g>
   <g id="patch_17">
    <path d="M 384.885 157.709978 
C 386.078016 157.709978 387.22339 157.235548 388.066981 156.391958 
C 388.910571 155.548368 389.385 154.402994 389.385 153.209978 
C 389.385 152.016961 388.910571 150.871587 388.066981 150.027997 
C 387.22339 149.184407 386.078016 148.709978 384.885 148.709978 
" clip-path="url(#p312c996ec8)" style="fill: none; stroke: #000000; stroke-width: 2; stroke-linejoin: miter"/>
   </g>
   <g id="line2d_1">
    <path d="M 24.885 175.709978 
L 60.885 175.709978 
L 96.885 175.709978 
" clip-path="url(#p312c996ec8)" style="fill: none; stroke: #000000; stroke-width: 2; stroke-linecap: round"/>
   </g>
   <g id="line2d_2">
    <path d="M 96.885 31.709978 
L 78.885 31.709978 
L 60.885 31.709978 
" clip-path="url(#p312c996ec8)" style="fill: none; stroke: #000000; stroke-width: 2; stroke-linecap: round"/>
   </g>
   <g id="line2d_3">
    <path d="M 51.885 31.709978 
L 42.885 31.709978 
L 24.885 31.709978 
" clip-path="url(#p312c996ec8)" style="fill: none; stroke: #000000; stroke-width: 2; stroke-linecap: round"/>
   </g>
   <g id="patch_18">
    <path d="M 51.885 29.009978 
L 60.885 31.709978 
L 51.885 34.409978 
z
" clip-path="url(#p312c996ec8)"/>
   </g>
   <g id="line2d_4">
    <path d="M 96.885 31.709978 
L 150.885 31.709978 
M 186.885 31.709978 
L 240.885 31.709978 
" clip-path="url(#p312c996ec8)" style="fill: none; stroke: #000000; stroke-width: 2; stroke-linecap: round"/>
   </g>
   <g id="line2d_5">
    <path d="M 240.885 175.709978 
L 168.885 175.709978 
L 96.885 175.709978 
" clip-path="url(#p312c996ec8)" style="fill: none; stroke: #000000; stroke-width: 2; stroke-linecap: round"/>
   </g>
   <g id="line2d_6">
    <path d="M 240.885 31.709978 
L 240.885 64.469978 
M 249.885 64.469978 
L 231.885 64.469978 
M 249.885 70.949978 
L 231.885 70.949978 
M 240.885 70.949978 
L 240.885 103.709978 
" clip-path="url(#p312c996ec8)" style="fill: none; stroke: #000000; stroke-width: 2; stroke-linecap: round"/>
   </g>
   <g id="line2d_7">
    <path d="M 240.885 103.709978 
L 240.885 121.709978 
M 240.885 157.709978 
L 240.885 175.709978 
" clip-path="url(#p312c996ec8)" style="fill: none; stroke: #000000; stroke-width: 2; stroke-linecap: round"/>
   </g>
   <g id="line2d_8">
    <path d="M 240.885 31.709978 
L 294.885 31.709978 
M 330.885 31.709978 
L 384.885 31.709978 
" clip-path="url(#p312c996ec8)" style="fill: none; stroke: #000000; stroke-width: 2; stroke-linecap: round"/>
   </g>
   <g id="line2d_9">
    <path d="M 384.885 175.709978 
L 312.885 175.709978 
L 240.885 175.709978 
" clip-path="url(#p312c996ec8)" style="fill: none; stroke: #000000; stroke-width: 2; stroke-linecap: round"/>
   </g>
   <g id="line2d_10">
    <path d="M 384.885 31.709978 
L 384.885 64.469978 
M 393.885 64.469978 
L 375.885 64.469978 
M 393.885 70.949978 
L 375.885 70.949978 
M 384.885 70.949978 
L 384.885 103.709978 
" clip-path="url(#p312c996ec8)" style="fill: none; stroke: #000000; stroke-width: 2; stroke-linecap: round"/>
   </g>
   <g id="line2d_11">
    <path d="M 384.885 103.709978 
L 384.885 121.709978 
M 384.885 157.709978 
L 384.885 175.709978 
" clip-path="url(#p312c996ec8)" style="fill: none; stroke: #000000; stroke-width: 2; stroke-linecap: round"/>
   </g>
   <g id="text_1">
    <!-- + -->
    <g transform="translate(18.809727 71.711071) scale(0.145 -0.145)">
     <defs>
      <path id="DejaVuSans-2b" d="M 2944 4013 
L 2944 2272 
L 4684 2272 
L 4684 1741 
L 2944 1741 
L 2944 0 
L 2419 0 
L 2419 1741 
L 678 1741 
L 678 2272 
L 2419 2272 
L 2419 4013 
L 2944 4013 
z
" transform="scale(0.015625)"/>
     </defs>
     <use xlink:href="#DejaVuSans-2b"/>
    </g>
   </g>
   <g id="text_2">
    <!-- $V$ -->
    <g transform="translate(19.8825 107.711071) scale(0.145 -0.145)">
     <defs>
      <path id="DejaVuSans-Oblique-56" d="M 1319 0 
L 500 4666 
L 1119 4666 
L 1797 653 
L 4063 4666 
L 4750 4666 
L 2053 0 
L 1319 0 
z
" transform="scale(0.015625)"/>
     </defs>
     <use xlink:href="#DejaVuSans-Oblique-56" transform="translate(0 0.09375)"/>
    </g>
   </g>
   <g id="text_3">
    <!-- - -->
    <g transform="translate(22.269336 143.711071) scale(0.145 -0.145)">
     <defs>
      <path id="DejaVuSans-2d" d="M 313 2009 
L 1997 2009 
L 1997 1497 
L 313 1497 
L 313 2009 
z
" transform="scale(0.015625)"/>
     </defs>
     <use xlink:href="#DejaVuSans-2d"/>
    </g>
   </g>
   <g id="text_4">
    <!-- $I$ -->
    <g transform="translate(40.71 19.694431) scale(0.145 -0.145)">
     <defs>
      <path id="DejaVuSans-Oblique-49" d="M 1081 4666 
L 1716 4666 
L 806 0 
L 172 0 
L 1081 4666 
z
" transform="scale(0.015625)"/>
     </defs>
     <use xlink:href="#DejaVuSans-Oblique-49" transform="translate(0 0.09375)"/>
    </g>
   </g>
   <g id="text_5">
    <!-- $\frac{32}{45}$ -->
    <g transform="translate(161.49 17.81) scale(0.145 -0.145)">
     <defs>
      <path id="DejaVuSans-33" d="M 2597 2516 
Q 3050 2419 3304 2112 
Q 3559 1806 3559 1356 
Q 3559 666 3084 287 
Q 2609 -91 1734 -91 
Q 1441 -91 1130 -33 
Q 819 25 488 141 
L 488 750 
Q 750 597 1062 519 
Q 1375 441 1716 441 
Q 2309 441 2620 675 
Q 2931 909 2931 1356 
Q 2931 1769 2642 2001 
Q 2353 2234 1838 2234 
L 1294 2234 
L 1294 2753 
L 1863 2753 
Q 2328 2753 2575 2939 
Q 2822 3125 2822 3475 
Q 2822 3834 2567 4026 
Q 2313 4219 1838 4219 
Q 1578 4219 1281 4162 
Q 984 4106 628 3988 
L 628 4550 
Q 988 4650 1302 4700 
Q 1616 4750 1894 4750 
Q 2613 4750 3031 4423 
Q 3450 4097 3450 3541 
Q 3450 3153 3228 2886 
Q 3006 2619 2597 2516 
z
" transform="scale(0.015625)"/>
      <path id="DejaVuSans-32" d="M 1228 531 
L 3431 531 
L 3431 0 
L 469 0 
L 469 531 
Q 828 903 1448 1529 
Q 2069 2156 2228 2338 
Q 2531 2678 2651 2914 
Q 2772 3150 2772 3378 
Q 2772 3750 2511 3984 
Q 2250 4219 1831 4219 
Q 1534 4219 1204 4116 
Q 875 4013 500 3803 
L 500 4441 
Q 881 4594 1212 4672 
Q 1544 4750 1819 4750 
Q 2544 4750 2975 4387 
Q 3406 4025 3406 3419 
Q 3406 3131 3298 2873 
Q 3191 2616 2906 2266 
Q 2828 2175 2409 1742 
Q 1991 1309 1228 531 
z
" transform="scale(0.015625)"/>
      <path id="DejaVuSans-34" d="M 2419 4116 
L 825 1625 
L 2419 1625 
L 2419 4116 
z
M 2253 4666 
L 3047 4666 
L 3047 1625 
L 3713 1625 
L 3713 1100 
L 3047 1100 
L 3047 0 
L 2419 0 
L 2419 1100 
L 313 1100 
L 313 1709 
L 2253 4666 
z
" transform="scale(0.015625)"/>
      <path id="DejaVuSans-35" d="M 691 4666 
L 3169 4666 
L 3169 4134 
L 1269 4134 
L 1269 2991 
Q 1406 3038 1543 3061 
Q 1681 3084 1819 3084 
Q 2600 3084 3056 2656 
Q 3513 2228 3513 1497 
Q 3513 744 3044 326 
Q 2575 -91 1722 -91 
Q 1428 -91 1123 -41 
Q 819 9 494 109 
L 494 744 
Q 775 591 1075 516 
Q 1375 441 1709 441 
Q 2250 441 2565 725 
Q 2881 1009 2881 1497 
Q 2881 1984 2565 2268 
Q 2250 2553 1709 2553 
Q 1456 2553 1204 2497 
Q 953 2441 691 2322 
L 691 4666 
z
" transform="scale(0.015625)"/>
     </defs>
     <use xlink:href="#DejaVuSans-33" transform="translate(0 45.046875) scale(0.7)"/>
     <use xlink:href="#DejaVuSans-32" transform="translate(44.536133 45.046875) scale(0.7)"/>
     <use xlink:href="#DejaVuSans-34" transform="translate(0 -38.232812) scale(0.7)"/>
     <use xlink:href="#DejaVuSans-35" transform="translate(44.536133 -38.232812) scale(0.7)"/>
     <path d="M 0 19.051563 
L 0 25.301563 
L 89.072266 25.301563 
L 89.072266 19.051563 
L 0 19.051563 
z
"/>
    </g>
   </g>
   <g id="text_6">
    <!-- $\frac{25}{68}$ -->
    <g transform="translate(213.495 71.769978) scale(0.145 -0.145)">
     <defs>
      <path id="DejaVuSans-36" d="M 2113 2584 
Q 1688 2584 1439 2293 
Q 1191 2003 1191 1497 
Q 1191 994 1439 701 
Q 1688 409 2113 409 
Q 2538 409 2786 701 
Q 3034 994 3034 1497 
Q 3034 2003 2786 2293 
Q 2538 2584 2113 2584 
z
M 3366 4563 
L 3366 3988 
Q 3128 4100 2886 4159 
Q 2644 4219 2406 4219 
Q 1781 4219 1451 3797 
Q 1122 3375 1075 2522 
Q 1259 2794 1537 2939 
Q 1816 3084 2150 3084 
Q 2853 3084 3261 2657 
Q 3669 2231 3669 1497 
Q 3669 778 3244 343 
Q 2819 -91 2113 -91 
Q 1303 -91 875 529 
Q 447 1150 447 2328 
Q 447 3434 972 4092 
Q 1497 4750 2381 4750 
Q 2619 4750 2861 4703 
Q 3103 4656 3366 4563 
z
" transform="scale(0.015625)"/>
      <path id="DejaVuSans-38" d="M 2034 2216 
Q 1584 2216 1326 1975 
Q 1069 1734 1069 1313 
Q 1069 891 1326 650 
Q 1584 409 2034 409 
Q 2484 409 2743 651 
Q 3003 894 3003 1313 
Q 3003 1734 2745 1975 
Q 2488 2216 2034 2216 
z
M 1403 2484 
Q 997 2584 770 2862 
Q 544 3141 544 3541 
Q 544 4100 942 4425 
Q 1341 4750 2034 4750 
Q 2731 4750 3128 4425 
Q 3525 4100 3525 3541 
Q 3525 3141 3298 2862 
Q 3072 2584 2669 2484 
Q 3125 2378 3379 2068 
Q 3634 1759 3634 1313 
Q 3634 634 3220 271 
Q 2806 -91 2034 -91 
Q 1263 -91 848 271 
Q 434 634 434 1313 
Q 434 1759 690 2068 
Q 947 2378 1403 2484 
z
M 1172 3481 
Q 1172 3119 1398 2916 
Q 1625 2713 2034 2713 
Q 2441 2713 2670 2916 
Q 2900 3119 2900 3481 
Q 2900 3844 2670 4047 
Q 2441 4250 2034 4250 
Q 1625 4250 1398 4047 
Q 1172 3844 1172 3481 
z
" transform="scale(0.015625)"/>
     </defs>
     <use xlink:href="#DejaVuSans-32" transform="translate(0 45.046875) scale(0.7)"/>
     <use xlink:href="#DejaVuSans-35" transform="translate(44.536133 45.046875) scale(0.7)"/>
     <use xlink:href="#DejaVuSans-36" transform="translate(0 -39.151563) scale(0.7)"/>
     <use xlink:href="#DejaVuSans-38" transform="translate(44.536133 -39.151563) scale(0.7)"/>
     <path d="M 0 19.051563 
L 0 25.301563 
L 89.072266 25.301563 
L 89.072266 19.051563 
L 0 19.051563 
z
"/>
    </g>
   </g>
   <g id="text_7">
    <!-- $\frac{68}{225}$ -->
    <g transform="translate(215.97 143.769978) scale(0.145 -0.145)">
     <use xlink:href="#DejaVuSans-36" transform="translate(22 45.046875) scale(0.7)"/>
     <use xlink:href="#DejaVuSans-38" transform="translate(66.536133 45.046875) scale(0.7)"/>
     <use xlink:href="#DejaVuSans-32" transform="translate(0 -39.151563) scale(0.7)"/>
     <use xlink:href="#DejaVuSans-32" transform="translate(44.536133 -39.151563) scale(0.7)"/>
     <use xlink:href="#DejaVuSans-35" transform="translate(89.072266 -39.151563) scale(0.7)"/>
     <path d="M 0 19.051563 
L 0 25.301563 
L 133.608398 25.301563 
L 133.608398 19.051563 
L 0 19.051563 
z
"/>
    </g>
   </g>
   <g id="text_8">
    <!-- $\frac{374}{135}$ -->
    <g transform="translate(302.2275 17.665) scale(0.145 -0.145)">
     <defs>
      <path id="DejaVuSans-37" d="M 525 4666 
L 3525 4666 
L 3525 4397 
L 1831 0 
L 1172 0 
L 2766 4134 
L 525 4134 
L 525 4666 
z
" transform="scale(0.015625)"/>
      <path id="DejaVuSans-31" d="M 794 531 
L 1825 531 
L 1825 4091 
L 703 3866 
L 703 4441 
L 1819 4666 
L 2450 4666 
L 2450 531 
L 3481 531 
L 3481 0 
L 794 0 
L 794 531 
z
" transform="scale(0.015625)"/>
     </defs>
     <use xlink:href="#DejaVuSans-33" transform="translate(0 45.046875) scale(0.7)"/>
     <use xlink:href="#DejaVuSans-37" transform="translate(44.536133 45.046875) scale(0.7)"/>
     <use xlink:href="#DejaVuSans-34" transform="translate(89.072266 45.046875) scale(0.7)"/>
     <use xlink:href="#DejaVuSans-31" transform="translate(0 -39.151563) scale(0.7)"/>
     <use xlink:href="#DejaVuSans-33" transform="translate(44.536133 -39.151563) scale(0.7)"/>
     <use xlink:href="#DejaVuSans-35" transform="translate(89.072266 -39.151563) scale(0.7)"/>
     <path d="M 0 19.051563 
L 0 25.301563 
L 133.608398 25.301563 
L 133.608398 19.051563 
L 0 19.051563 
z
"/>
    </g>
   </g>
   <g id="text_9">
    <!-- $\frac{9}{68}$ -->
    <g transform="translate(357.495 71.769978) scale(0.145 -0.145)">
     <defs>
      <path id="DejaVuSans-39" d="M 703 97 
L 703 672 
Q 941 559 1184 500 
Q 1428 441 1663 441 
Q 2288 441 2617 861 
Q 2947 1281 2994 2138 
Q 2813 1869 2534 1725 
Q 2256 1581 1919 1581 
Q 1219 1581 811 2004 
Q 403 2428 403 3163 
Q 403 3881 828 4315 
Q 1253 4750 1959 4750 
Q 2769 4750 3195 4129 
Q 3622 3509 3622 2328 
Q 3622 1225 3098 567 
Q 2575 -91 1691 -91 
Q 1453 -91 1209 -44 
Q 966 3 703 97 
z
M 1959 2075 
Q 2384 2075 2632 2365 
Q 2881 2656 2881 3163 
Q 2881 3666 2632 3958 
Q 2384 4250 1959 4250 
Q 1534 4250 1286 3958 
Q 1038 3666 1038 3163 
Q 1038 2656 1286 2365 
Q 1534 2075 1959 2075 
z
" transform="scale(0.015625)"/>
     </defs>
     <use xlink:href="#DejaVuSans-39" transform="translate(22 45.046875) scale(0.7)"/>
     <use xlink:href="#DejaVuSans-36" transform="translate(0 -39.151563) scale(0.7)"/>
     <use xlink:href="#DejaVuSans-38" transform="translate(44.536133 -39.151563) scale(0.7)"/>
     <path d="M 0 19.051563 
L 0 25.301563 
L 89.072266 25.301563 
L 89.072266 19.051563 
L 0 19.051563 
z
"/>
    </g>
   </g>
   <g id="text_10">
    <!-- $\frac{34}{9}$ -->
    <g transform="translate(366.495 143.769978) scale(0.145 -0.145)">
     <use xlink:href="#DejaVuSans-33" transform="translate(0 45.046875) scale(0.7)"/>
     <use xlink:href="#DejaVuSans-34" transform="translate(44.536133 45.046875) scale(0.7)"/>
     <use xlink:href="#DejaVuSans-39" transform="translate(22 -39.151563) scale(0.7)"/>
     <path d="M 0 19.051563 
L 0 25.301563 
L 89.072266 25.301563 
L 89.072266 19.051563 
L 0 19.051563 
z
"/>
    </g>
   </g>
   <g id="patch_19">
    <path d="M 24.885 34.409978 
C 25.601048 34.409978 26.287866 34.125489 26.794188 33.619166 
C 27.300511 33.112843 27.585 32.426026 27.585 31.709978 
C 27.585 30.993929 27.300511 30.307112 26.794188 29.800789 
C 26.287866 29.294467 25.601048 29.009978 24.885 29.009978 
C 24.168952 29.009978 23.482134 29.294467 22.975812 29.800789 
C 22.469489 30.307112 22.185 30.993929 22.185 31.709978 
C 22.185 32.426026 22.469489 33.112843 22.975812 33.619166 
C 23.482134 34.125489 24.168952 34.409978 24.885 34.409978 
z
" clip-path="url(#p312c996ec8)" style="fill: #ffffff; stroke: #000000; stroke-width: 2; stroke-linejoin: miter"/>
   </g>
   <g id="patch_20">
    <path d="M 24.885 178.409978 
C 25.601048 178.409978 26.287866 178.125489 26.794188 177.619166 
C 27.300511 177.112843 27.585 176.426026 27.585 175.709978 
C 27.585 174.993929 27.300511 174.307112 26.794188 173.800789 
C 26.287866 173.294467 25.601048 173.009978 24.885 173.009978 
C 24.168952 173.009978 23.482134 173.294467 22.975812 173.800789 
C 22.469489 174.307112 22.185 174.993929 22.185 175.709978 
C 22.185 176.426026 22.469489 177.112843 22.975812 177.619166 
C 23.482134 178.125489 24.168952 178.409978 24.885 178.409978 
z
" clip-path="url(#p312c996ec8)" style="fill: #ffffff; stroke: #000000; stroke-width: 2; stroke-linejoin: miter"/>
   </g>
   <g id="patch_21">
    <path d="M 240.885 34.409978 
C 241.601048 34.409978 242.287866 34.125489 242.794188 33.619166 
C 243.300511 33.112843 243.585 32.426026 243.585 31.709978 
C 243.585 30.993929 243.300511 30.307112 242.794188 29.800789 
C 242.287866 29.294467 241.601048 29.009978 240.885 29.009978 
C 240.168952 29.009978 239.482134 29.294467 238.975812 29.800789 
C 238.469489 30.307112 238.185 30.993929 238.185 31.709978 
C 238.185 32.426026 238.469489 33.112843 238.975812 33.619166 
C 239.482134 34.125489 240.168952 34.409978 240.885 34.409978 
z
" clip-path="url(#p312c996ec8)" style="stroke: #000000; stroke-width: 2; stroke-linejoin: miter"/>
   </g>
   <g id="patch_22">
    <path d="M 240.885 178.409978 
C 241.601048 178.409978 242.287866 178.125489 242.794188 177.619166 
C 243.300511 177.112843 243.585 176.426026 243.585 175.709978 
C 243.585 174.993929 243.300511 174.307112 242.794188 173.800789 
C 242.287866 173.294467 241.601048 173.009978 240.885 173.009978 
C 240.168952 173.009978 239.482134 173.294467 238.975812 173.800789 
C 238.469489 174.307112 238.185 174.993929 238.185 175.709978 
C 238.185 176.426026 238.469489 177.112843 238.975812 177.619166 
C 239.482134 178.125489 240.168952 178.409978 240.885 178.409978 
z
" clip-path="url(#p312c996ec8)" style="stroke: #000000; stroke-width: 2; stroke-linejoin: miter"/>
   </g>
   <g id="patch_23">
    <path d="M 384.885 34.409978 
C 385.601048 34.409978 386.287866 34.125489 386.794188 33.619166 
C 387.300511 33.112843 387.585 32.426026 387.585 31.709978 
C 387.585 30.993929 387.300511 30.307112 386.794188 29.800789 
C 386.287866 29.294467 385.601048 29.009978 384.885 29.009978 
C 384.168952 29.009978 383.482134 29.294467 382.975812 29.800789 
C 382.469489 30.307112 382.185 30.993929 382.185 31.709978 
C 382.185 32.426026 382.469489 33.112843 382.975812 33.619166 
C 383.482134 34.125489 384.168952 34.409978 384.885 34.409978 
z
" clip-path="url(#p312c996ec8)" style="stroke: #000000; stroke-width: 2; stroke-linejoin: miter"/>
   </g>
   <g id="patch_24">
    <path d="M 384.885 178.409978 
C 385.601048 178.409978 386.287866 178.125489 386.794188 177.619166 
C 387.300511 177.112843 387.585 176.426026 387.585 175.709978 
C 387.585 174.993929 387.300511 174.307112 386.794188 173.800789 
C 386.287866 173.294467 385.601048 173.009978 384.885 173.009978 
C 384.168952 173.009978 383.482134 173.294467 382.975812 173.800789 
C 382.469489 174.307112 382.185 174.993929 382.185 175.709978 
C 382.185 176.426026 382.469489 177.112843 382.975812 177.619166 
C 383.482134 178.125489 384.168952 178.409978 384.885 178.409978 
z
" clip-path="url(#p312c996ec8)" style="stroke: #000000; stroke-width: 2; stroke-linejoin: miter"/>
   </g>
  </g>
 </g>
 <defs>
  <clipPath id="p312c996ec8">
   <rect x="3.6" y="19.649978" width="408.87" height="166.32"/>
  </clipPath>
 </defs>
</svg>
