<?xml version="1.0" encoding="utf-8" standalone="no"?>
<!DOCTYPE svg PUBLIC "-//W3C//DTD SVG 1.1//EN"
  "http://www.w3.org/Graphics/SVG/1.1/DTD/svg11.dtd">
<svg xmlns:xlink="http://www.w3.org/1999/xlink" width="471.8428pt" height="185.51044pt" viewBox="0 0 471.8428 185.51044" xmlns="http://www.w3.org/2000/svg" version="1.1">
 <metadata>
  <rdf:RDF xmlns:dc="http://purl.org/dc/elements/1.1/" xmlns:cc="http://creativecommons.org/ns#" xmlns:rdf="http://www.w3.org/1999/02/22-rdf-syntax-ns#">
   <cc:Work>
    <dc:type rdf:resource="http://purl.org/dc/dcmitype/StillImage"/>
    <dc:date>2024-10-20T16:15:53.844135</dc:date>
    <dc:format>image/svg+xml</dc:format>
    <dc:creator>
     <cc:Agent>
      <dc:title>Matplotlib v3.9.1, https://matplotlib.org/</dc:title>
     </cc:Agent>
    </dc:creator>
   </cc:Work>
  </rdf:RDF>
 </metadata>
 <defs>
  <style type="text/css">*{stroke-linejoin: round; stroke-linecap: butt}</style>
 </defs>
 <g id="figure_1">
  <g id="patch_1">
   <path d="M 0 185.51044 
L 471.8428 185.51044 
L 471.8428 0 
L 0 0 
z
" style="fill: #ffffff"/>
  </g>
  <g id="axes_1">
   <g id="patch_2">
    <path d="M 204.5428 134.70544 
C 205.556864 134.70544 206.530432 134.302175 207.247483 133.585123 
C 207.964535 132.868072 208.3678 131.894504 208.3678 130.88044 
C 208.3678 129.866376 207.964535 128.892808 207.247483 128.175757 
C 206.530432 127.458705 205.556864 127.05544 204.5428 127.05544 
" clip-path="url(#pdc6e1e6580)" style="fill: none; stroke: #000000; stroke-width: 2; stroke-linejoin: miter"/>
   </g>
   <g id="patch_3">
    <path d="M 204.5428 142.35544 
C 205.556864 142.35544 206.530432 141.952175 207.247483 141.235123 
C 207.964535 140.518072 208.3678 139.544504 208.3678 138.53044 
C 208.3678 137.516376 207.964535 136.542808 207.247483 135.825757 
C 206.530432 135.108705 205.556864 134.70544 204.5428 134.70544 
" clip-path="url(#pdc6e1e6580)" style="fill: none; stroke: #000000; stroke-width: 2; stroke-linejoin: miter"/>
   </g>
   <g id="patch_4">
    <path d="M 204.5428 150.00544 
C 205.556864 150.00544 206.530432 149.602175 207.247483 148.885123 
C 207.964535 148.168072 208.3678 147.194504 208.3678 146.18044 
C 208.3678 145.166376 207.964535 144.192808 207.247483 143.475757 
C 206.530432 142.758705 205.556864 142.35544 204.5428 142.35544 
" clip-path="url(#pdc6e1e6580)" style="fill: none; stroke: #000000; stroke-width: 2; stroke-linejoin: miter"/>
   </g>
   <g id="patch_5">
    <path d="M 204.5428 157.65544 
C 205.556864 157.65544 206.530432 157.252175 207.247483 156.535123 
C 207.964535 155.818072 208.3678 154.844504 208.3678 153.83044 
C 208.3678 152.816376 207.964535 151.842808 207.247483 151.125757 
C 206.530432 150.408705 205.556864 150.00544 204.5428 150.00544 
" clip-path="url(#pdc6e1e6580)" style="fill: none; stroke: #000000; stroke-width: 2; stroke-linejoin: miter"/>
   </g>
   <g id="patch_6">
    <path d="M 258.0928 50.55544 
C 258.0928 49.541376 257.689535 48.567808 256.972483 47.850757 
C 256.255432 47.133705 255.281864 46.73044 254.2678 46.73044 
C 253.253736 46.73044 252.280168 47.133705 251.563117 47.850757 
C 250.846065 48.567808 250.4428 49.541376 250.4428 50.55544 
" clip-path="url(#pdc6e1e6580)" style="fill: none; stroke: #000000; stroke-width: 2; stroke-linejoin: miter"/>
   </g>
   <g id="patch_7">
    <path d="M 265.7428 50.55544 
C 265.7428 49.541376 265.339535 48.567808 264.622483 47.850757 
C 263.905432 47.133705 262.931864 46.73044 261.9178 46.73044 
C 260.903736 46.73044 259.930168 47.133705 259.213117 47.850757 
C 258.496065 48.567808 258.0928 49.541376 258.0928 50.55544 
" clip-path="url(#pdc6e1e6580)" style="fill: none; stroke: #000000; stroke-width: 2; stroke-linejoin: miter"/>
   </g>
   <g id="patch_8">
    <path d="M 273.3928 50.55544 
C 273.3928 49.541376 272.989535 48.567808 272.272483 47.850757 
C 271.555432 47.133705 270.581864 46.73044 269.5678 46.73044 
C 268.553736 46.73044 267.580168 47.133705 266.863117 47.850757 
C 266.146065 48.567808 265.7428 49.541376 265.7428 50.55544 
" clip-path="url(#pdc6e1e6580)" style="fill: none; stroke: #000000; stroke-width: 2; stroke-linejoin: miter"/>
   </g>
   <g id="patch_9">
    <path d="M 281.0428 50.55544 
C 281.0428 49.541376 280.639535 48.567808 279.922483 47.850757 
C 279.205432 47.133705 278.231864 46.73044 277.2178 46.73044 
C 276.203736 46.73044 275.230168 47.133705 274.513117 47.850757 
C 273.796065 48.567808 273.3928 49.541376 273.3928 50.55544 
" clip-path="url(#pdc6e1e6580)" style="fill: none; stroke: #000000; stroke-width: 2; stroke-linejoin: miter"/>
   </g>
   <g id="line2d_1">
    <path d="M 20.9428 172.95544 
L 51.5428 172.95544 
L 82.1428 172.95544 
" clip-path="url(#pdc6e1e6580)" style="fill: none; stroke: #000000; stroke-width: 2; stroke-linecap: round"/>
   </g>
   <g id="line2d_2">
    <path d="M 82.1428 50.55544 
L 66.8428 50.55544 
L 51.5428 50.55544 
" clip-path="url(#pdc6e1e6580)" style="fill: none; stroke: #000000; stroke-width: 2; stroke-linecap: round"/>
   </g>
   <g id="line2d_3">
    <path d="M 43.8928 50.55544 
L 36.2428 50.55544 
L 20.9428 50.55544 
" clip-path="url(#pdc6e1e6580)" style="fill: none; stroke: #000000; stroke-width: 2; stroke-linecap: round"/>
   </g>
   <g id="patch_10">
    <path d="M 43.8928 48.26044 
L 51.5428 50.55544 
L 43.8928 52.85044 
z
" clip-path="url(#pdc6e1e6580)"/>
   </g>
   <g id="line2d_4">
    <path d="M 82.1428 50.55544 
L 140.5888 50.55544 
M 140.5888 42.90544 
L 140.5888 58.20544 
M 146.0968 42.90544 
L 146.0968 58.20544 
M 146.0968 50.55544 
L 204.5428 50.55544 
" clip-path="url(#pdc6e1e6580)" style="fill: none; stroke: #000000; stroke-width: 2; stroke-linecap: round"/>
   </g>
   <g id="line2d_5">
    <path d="M 204.5428 172.95544 
L 143.3428 172.95544 
L 82.1428 172.95544 
" clip-path="url(#pdc6e1e6580)" style="fill: none; stroke: #000000; stroke-width: 2; stroke-linecap: round"/>
   </g>
   <g id="line2d_6">
    <path d="M 204.5428 50.55544 
L 204.5428 78.40144 
M 212.1928 78.40144 
L 196.8928 78.40144 
M 212.1928 83.90944 
L 196.8928 83.90944 
M 204.5428 83.90944 
L 204.5428 111.75544 
" clip-path="url(#pdc6e1e6580)" style="fill: none; stroke: #000000; stroke-width: 2; stroke-linecap: round"/>
   </g>
   <g id="line2d_7">
    <path d="M 204.5428 111.75544 
L 204.5428 127.05544 
M 204.5428 157.65544 
L 204.5428 172.95544 
" clip-path="url(#pdc6e1e6580)" style="fill: none; stroke: #000000; stroke-width: 2; stroke-linecap: round"/>
   </g>
   <g id="line2d_8">
    <path d="M 204.5428 50.55544 
L 250.4428 50.55544 
M 281.0428 50.55544 
L 326.9428 50.55544 
" clip-path="url(#pdc6e1e6580)" style="fill: none; stroke: #000000; stroke-width: 2; stroke-linecap: round"/>
   </g>
   <g id="line2d_9">
    <path d="M 326.9428 172.95544 
L 265.7428 172.95544 
L 204.5428 172.95544 
" clip-path="url(#pdc6e1e6580)" style="fill: none; stroke: #000000; stroke-width: 2; stroke-linecap: round"/>
   </g>
   <g id="line2d_10">
    <path d="M 326.9428 50.55544 
L 385.3888 50.55544 
M 385.3888 42.90544 
L 385.3888 58.20544 
M 390.8968 42.90544 
L 390.8968 58.20544 
M 390.8968 50.55544 
L 449.3428 50.55544 
" clip-path="url(#pdc6e1e6580)" style="fill: none; stroke: #000000; stroke-width: 2; stroke-linecap: round"/>
   </g>
   <g id="line2d_11">
    <path d="M 449.3428 172.95544 
L 388.1428 172.95544 
L 326.9428 172.95544 
" clip-path="url(#pdc6e1e6580)" style="fill: none; stroke: #000000; stroke-width: 2; stroke-linecap: round"/>
   </g>
   <g id="text_1">
    <g clip-path="url(#pdc6e1e6580)">
     <!-- + -->
     <g transform="translate(14.867527 85.156534) scale(0.145 -0.145)">
      <defs>
       <path id="DejaVuSans-2b" d="M 2944 4013 
L 2944 2272 
L 4684 2272 
L 4684 1741 
L 2944 1741 
L 2944 0 
L 2419 0 
L 2419 1741 
L 678 1741 
L 678 2272 
L 2419 2272 
L 2419 4013 
L 2944 4013 
z
" transform="scale(0.015625)"/>
      </defs>
      <use xlink:href="#DejaVuSans-2b"/>
     </g>
    </g>
   </g>
   <g id="text_2">
    <g clip-path="url(#pdc6e1e6580)">
     <!-- $V$ -->
     <g transform="translate(15.9403 115.756534) scale(0.145 -0.145)">
      <defs>
       <path id="DejaVuSans-Oblique-56" d="M 1319 0 
L 500 4666 
L 1119 4666 
L 1797 653 
L 4063 4666 
L 4750 4666 
L 2053 0 
L 1319 0 
z
" transform="scale(0.015625)"/>
      </defs>
      <use xlink:href="#DejaVuSans-Oblique-56" transform="translate(0 0.09375)"/>
     </g>
    </g>
   </g>
   <g id="text_3">
    <g clip-path="url(#pdc6e1e6580)">
     <!-- - -->
     <g transform="translate(18.327136 146.356534) scale(0.145 -0.145)">
      <defs>
       <path id="DejaVuSans-2d" d="M 313 2009 
L 1997 2009 
L 1997 1497 
L 313 1497 
L 313 2009 
z
" transform="scale(0.015625)"/>
      </defs>
      <use xlink:href="#DejaVuSans-2d"/>
     </g>
    </g>
   </g>
   <g id="text_4">
    <g clip-path="url(#pdc6e1e6580)">
     <!-- $I$ -->
     <g transform="translate(34.0678 44.479893) scale(0.145 -0.145)">
      <defs>
       <path id="DejaVuSans-Oblique-49" d="M 1081 4666 
L 1716 4666 
L 806 0 
L 172 0 
L 1081 4666 
z
" transform="scale(0.015625)"/>
      </defs>
      <use xlink:href="#DejaVuSans-Oblique-49" transform="translate(0 0.09375)"/>
     </g>
    </g>
   </g>
   <g id="text_5">
    <g clip-path="url(#pdc6e1e6580)">
     <!-- $1$ -->
     <g transform="translate(138.7028 36.829893) scale(0.145 -0.145)">
      <defs>
       <path id="DejaVuSans-31" d="M 794 531 
L 1825 531 
L 1825 4091 
L 703 3866 
L 703 4441 
L 1819 4666 
L 2450 4666 
L 2450 531 
L 3481 531 
L 3481 0 
L 794 0 
L 794 531 
z
" transform="scale(0.015625)"/>
      </defs>
      <use xlink:href="#DejaVuSans-31" transform="translate(0 0.09375)"/>
     </g>
    </g>
   </g>
   <g id="text_6">
    <g clip-path="url(#pdc6e1e6580)">
     <!-- $2$ -->
     <g transform="translate(184.5528 85.156534) scale(0.145 -0.145)">
      <defs>
       <path id="DejaVuSans-32" d="M 1228 531 
L 3431 531 
L 3431 0 
L 469 0 
L 469 531 
Q 828 903 1448 1529 
Q 2069 2156 2228 2338 
Q 2531 2678 2651 2914 
Q 2772 3150 2772 3378 
Q 2772 3750 2511 3984 
Q 2250 4219 1831 4219 
Q 1534 4219 1204 4116 
Q 875 4013 500 3803 
L 500 4441 
Q 881 4594 1212 4672 
Q 1544 4750 1819 4750 
Q 2544 4750 2975 4387 
Q 3406 4025 3406 3419 
Q 3406 3131 3298 2873 
Q 3191 2616 2906 2266 
Q 2828 2175 2409 1742 
Q 1991 1309 1228 531 
z
" transform="scale(0.015625)"/>
      </defs>
      <use xlink:href="#DejaVuSans-32" transform="translate(0 0.78125)"/>
     </g>
    </g>
   </g>
   <g id="text_7">
    <g clip-path="url(#pdc6e1e6580)">
     <!-- $\frac{1}{2}$ -->
     <g transform="translate(193.0728 146.34294) scale(0.145 -0.145)">
      <use xlink:href="#DejaVuSans-31" transform="translate(0 43.965625) scale(0.7)"/>
      <use xlink:href="#DejaVuSans-32" transform="translate(0 -39.2375) scale(0.7)"/>
      <path d="M 0 18.965625 
L 0 25.215625 
L 44.536133 25.215625 
L 44.536133 18.965625 
L 0 18.965625 
z
"/>
     </g>
    </g>
   </g>
   <g id="text_8">
    <g clip-path="url(#pdc6e1e6580)">
     <!-- $1$ -->
     <g transform="translate(261.1028 40.654912) scale(0.145 -0.145)">
      <use xlink:href="#DejaVuSans-31" transform="translate(0 0.09375)"/>
     </g>
    </g>
   </g>
   <g id="text_9">
    <g clip-path="url(#pdc6e1e6580)">
     <!-- $\frac{1}{3}$ -->
     <g transform="translate(383.9378 33.90044) scale(0.145 -0.145)">
      <defs>
       <path id="DejaVuSans-33" d="M 2597 2516 
Q 3050 2419 3304 2112 
Q 3559 1806 3559 1356 
Q 3559 666 3084 287 
Q 2609 -91 1734 -91 
Q 1441 -91 1130 -33 
Q 819 25 488 141 
L 488 750 
Q 750 597 1062 519 
Q 1375 441 1716 441 
Q 2309 441 2620 675 
Q 2931 909 2931 1356 
Q 2931 1769 2642 2001 
Q 2353 2234 1838 2234 
L 1294 2234 
L 1294 2753 
L 1863 2753 
Q 2328 2753 2575 2939 
Q 2822 3125 2822 3475 
Q 2822 3834 2567 4026 
Q 2313 4219 1838 4219 
Q 1578 4219 1281 4162 
Q 984 4106 628 3988 
L 628 4550 
Q 988 4650 1302 4700 
Q 1616 4750 1894 4750 
Q 2613 4750 3031 4423 
Q 3450 4097 3450 3541 
Q 3450 3153 3228 2886 
Q 3006 2619 2597 2516 
z
" transform="scale(0.015625)"/>
      </defs>
      <use xlink:href="#DejaVuSans-31" transform="translate(0 43.965625) scale(0.7)"/>
      <use xlink:href="#DejaVuSans-33" transform="translate(0 -39.2375) scale(0.7)"/>
      <path d="M 0 18.965625 
L 0 25.215625 
L 44.536133 25.215625 
L 44.536133 18.965625 
L 0 18.965625 
z
"/>
     </g>
    </g>
   </g>
   <g id="patch_11">
    <path d="M 20.9428 52.85044 
C 21.551441 52.85044 22.135236 52.608624 22.56561 52.17825 
C 22.995984 51.747876 23.2378 51.164081 23.2378 50.55544 
C 23.2378 49.946799 22.995984 49.363004 22.56561 48.93263 
C 22.135236 48.502256 21.551441 48.26044 20.9428 48.26044 
C 20.334159 48.26044 19.750364 48.502256 19.31999 48.93263 
C 18.889616 49.363004 18.6478 49.946799 18.6478 50.55544 
C 18.6478 51.164081 18.889616 51.747876 19.31999 52.17825 
C 19.750364 52.608624 20.334159 52.85044 20.9428 52.85044 
z
" clip-path="url(#pdc6e1e6580)" style="fill: #ffffff; stroke: #000000; stroke-width: 2; stroke-linejoin: miter"/>
   </g>
   <g id="patch_12">
    <path d="M 20.9428 175.25044 
C 21.551441 175.25044 22.135236 175.008624 22.56561 174.57825 
C 22.995984 174.147876 23.2378 173.564081 23.2378 172.95544 
C 23.2378 172.346799 22.995984 171.763004 22.56561 171.33263 
C 22.135236 170.902256 21.551441 170.66044 20.9428 170.66044 
C 20.334159 170.66044 19.750364 170.902256 19.31999 171.33263 
C 18.889616 171.763004 18.6478 172.346799 18.6478 172.95544 
C 18.6478 173.564081 18.889616 174.147876 19.31999 174.57825 
C 19.750364 175.008624 20.334159 175.25044 20.9428 175.25044 
z
" clip-path="url(#pdc6e1e6580)" style="fill: #ffffff; stroke: #000000; stroke-width: 2; stroke-linejoin: miter"/>
   </g>
   <g id="patch_13">
    <path d="M 204.5428 52.85044 
C 205.151441 52.85044 205.735236 52.608624 206.16561 52.17825 
C 206.595984 51.747876 206.8378 51.164081 206.8378 50.55544 
C 206.8378 49.946799 206.595984 49.363004 206.16561 48.93263 
C 205.735236 48.502256 205.151441 48.26044 204.5428 48.26044 
C 203.934159 48.26044 203.350364 48.502256 202.91999 48.93263 
C 202.489616 49.363004 202.2478 49.946799 202.2478 50.55544 
C 202.2478 51.164081 202.489616 51.747876 202.91999 52.17825 
C 203.350364 52.608624 203.934159 52.85044 204.5428 52.85044 
z
" clip-path="url(#pdc6e1e6580)" style="stroke: #000000; stroke-width: 2; stroke-linejoin: miter"/>
   </g>
   <g id="patch_14">
    <path d="M 204.5428 175.25044 
C 205.151441 175.25044 205.735236 175.008624 206.16561 174.57825 
C 206.595984 174.147876 206.8378 173.564081 206.8378 172.95544 
C 206.8378 172.346799 206.595984 171.763004 206.16561 171.33263 
C 205.735236 170.902256 205.151441 170.66044 204.5428 170.66044 
C 203.934159 170.66044 203.350364 170.902256 202.91999 171.33263 
C 202.489616 171.763004 202.2478 172.346799 202.2478 172.95544 
C 202.2478 173.564081 202.489616 174.147876 202.91999 174.57825 
C 203.350364 175.008624 203.934159 175.25044 204.5428 175.25044 
z
" clip-path="url(#pdc6e1e6580)" style="stroke: #000000; stroke-width: 2; stroke-linejoin: miter"/>
   </g>
  </g>
 </g>
 <defs>
  <clipPath id="pdc6e1e6580">
   <rect x="7.2" y="7.2" width="457.4428" height="171.11044"/>
  </clipPath>
 </defs>
</svg>
