<?xml version="1.0" encoding="utf-8" standalone="no"?>
<!DOCTYPE svg PUBLIC "-//W3C//DTD SVG 1.1//EN"
  "http://www.w3.org/Graphics/SVG/1.1/DTD/svg11.dtd">
<svg xmlns:xlink="http://www.w3.org/1999/xlink" width="227.0428pt" height="246.75804pt" viewBox="0 0 227.0428 246.75804" xmlns="http://www.w3.org/2000/svg" version="1.1">
 <metadata>
  <rdf:RDF xmlns:dc="http://purl.org/dc/elements/1.1/" xmlns:cc="http://creativecommons.org/ns#" xmlns:rdf="http://www.w3.org/1999/02/22-rdf-syntax-ns#">
   <cc:Work>
    <dc:type rdf:resource="http://purl.org/dc/dcmitype/StillImage"/>
    <dc:date>2024-10-20T17:57:08.873267</dc:date>
    <dc:format>image/svg+xml</dc:format>
    <dc:creator>
     <cc:Agent>
      <dc:title>Matplotlib v3.9.1, https://matplotlib.org/</dc:title>
     </cc:Agent>
    </dc:creator>
   </cc:Work>
  </rdf:RDF>
 </metadata>
 <defs>
  <style type="text/css">*{stroke-linejoin: round; stroke-linecap: butt}</style>
 </defs>
 <g id="figure_1">
  <g id="patch_1">
   <path d="M 0 246.75804 
L 227.0428 246.75804 
L 227.0428 0 
L 0 0 
z
" style="fill: #ffffff"/>
  </g>
  <g id="axes_1">
   <g id="patch_2">
    <path d="M 135.6928 111.80304 
C 135.6928 110.788976 135.289535 109.815408 134.572483 109.098357 
C 133.855432 108.381305 132.881864 107.97804 131.8678 107.97804 
C 130.853736 107.97804 129.880168 108.381305 129.163117 109.098357 
C 128.446065 109.815408 128.0428 110.788976 128.0428 111.80304 
" clip-path="url(#p807b8537e7)" style="fill: none; stroke: #000000; stroke-width: 2; stroke-linejoin: miter"/>
   </g>
   <g id="patch_3">
    <path d="M 143.3428 111.80304 
C 143.3428 110.788976 142.939535 109.815408 142.222483 109.098357 
C 141.505432 108.381305 140.531864 107.97804 139.5178 107.97804 
C 138.503736 107.97804 137.530168 108.381305 136.813117 109.098357 
C 136.096065 109.815408 135.6928 110.788976 135.6928 111.80304 
" clip-path="url(#p807b8537e7)" style="fill: none; stroke: #000000; stroke-width: 2; stroke-linejoin: miter"/>
   </g>
   <g id="patch_4">
    <path d="M 150.9928 111.80304 
C 150.9928 110.788976 150.589535 109.815408 149.872483 109.098357 
C 149.155432 108.381305 148.181864 107.97804 147.1678 107.97804 
C 146.153736 107.97804 145.180168 108.381305 144.463117 109.098357 
C 143.746065 109.815408 143.3428 110.788976 143.3428 111.80304 
" clip-path="url(#p807b8537e7)" style="fill: none; stroke: #000000; stroke-width: 2; stroke-linejoin: miter"/>
   </g>
   <g id="patch_5">
    <path d="M 158.6428 111.80304 
C 158.6428 110.788976 158.239535 109.815408 157.522483 109.098357 
C 156.805432 108.381305 155.831864 107.97804 154.8178 107.97804 
C 153.803736 107.97804 152.830168 108.381305 152.113117 109.098357 
C 151.396065 109.815408 150.9928 110.788976 150.9928 111.80304 
" clip-path="url(#p807b8537e7)" style="fill: none; stroke: #000000; stroke-width: 2; stroke-linejoin: miter"/>
   </g>
   <g id="line2d_1">
    <path d="M 20.9428 234.20304 
L 51.5428 234.20304 
L 82.1428 234.20304 
" clip-path="url(#p807b8537e7)" style="fill: none; stroke: #000000; stroke-width: 2; stroke-linecap: round"/>
   </g>
   <g id="line2d_2">
    <path d="M 82.1428 111.80304 
L 66.8428 111.80304 
L 51.5428 111.80304 
" clip-path="url(#p807b8537e7)" style="fill: none; stroke: #000000; stroke-width: 2; stroke-linecap: round"/>
   </g>
   <g id="line2d_3">
    <path d="M 43.8928 111.80304 
L 36.2428 111.80304 
L 20.9428 111.80304 
" clip-path="url(#p807b8537e7)" style="fill: none; stroke: #000000; stroke-width: 2; stroke-linecap: round"/>
   </g>
   <g id="patch_6">
    <path d="M 43.8928 109.50804 
L 51.5428 111.80304 
L 43.8928 114.09804 
z
" clip-path="url(#p807b8537e7)"/>
   </g>
   <g id="line2d_4">
    <path d="M 82.1428 234.20304 
L 82.1428 175.75704 
M 74.4928 175.75704 
L 89.7928 175.75704 
M 74.4928 170.24904 
L 89.7928 170.24904 
M 82.1428 170.24904 
L 82.1428 111.80304 
" clip-path="url(#p807b8537e7)" style="fill: none; stroke: #000000; stroke-width: 2; stroke-linecap: round"/>
   </g>
   <g id="line2d_5">
    <path d="M 82.1428 111.80304 
L 128.0428 111.80304 
M 158.6428 111.80304 
L 204.5428 111.80304 
" clip-path="url(#p807b8537e7)" style="fill: none; stroke: #000000; stroke-width: 2; stroke-linecap: round"/>
   </g>
   <g id="line2d_6">
    <path d="M 82.1428 111.80304 
L 82.1428 81.20304 
L 82.1428 50.60304 
" clip-path="url(#p807b8537e7)" style="fill: none; stroke: #000000; stroke-width: 2; stroke-linecap: round"/>
   </g>
   <g id="line2d_7">
    <path d="M 82.1428 50.60304 
L 140.5888 50.60304 
M 140.5888 42.95304 
L 140.5888 58.25304 
M 146.0968 42.95304 
L 146.0968 58.25304 
M 146.0968 50.60304 
L 204.5428 50.60304 
" clip-path="url(#p807b8537e7)" style="fill: none; stroke: #000000; stroke-width: 2; stroke-linecap: round"/>
   </g>
   <g id="line2d_8">
    <path d="M 204.5428 50.60304 
L 204.5428 81.20304 
L 204.5428 111.80304 
" clip-path="url(#p807b8537e7)" style="fill: none; stroke: #000000; stroke-width: 2; stroke-linecap: round"/>
   </g>
   <g id="line2d_9">
    <path d="M 204.5428 234.20304 
L 143.3428 234.20304 
L 82.1428 234.20304 
" clip-path="url(#p807b8537e7)" style="fill: none; stroke: #000000; stroke-width: 2; stroke-linecap: round"/>
   </g>
   <g id="line2d_10">
    <path d="M 204.5428 234.20304 
L 204.5428 175.75704 
M 196.8928 175.75704 
L 212.1928 175.75704 
M 196.8928 170.24904 
L 212.1928 170.24904 
M 204.5428 170.24904 
L 204.5428 111.80304 
" clip-path="url(#p807b8537e7)" style="fill: none; stroke: #000000; stroke-width: 2; stroke-linecap: round"/>
   </g>
   <g id="text_1">
    <g clip-path="url(#p807b8537e7)">
     <!-- + -->
     <g transform="translate(14.867527 146.404134) scale(0.145 -0.145)">
      <defs>
       <path id="DejaVuSans-2b" d="M 2944 4013 
L 2944 2272 
L 4684 2272 
L 4684 1741 
L 2944 1741 
L 2944 0 
L 2419 0 
L 2419 1741 
L 678 1741 
L 678 2272 
L 2419 2272 
L 2419 4013 
L 2944 4013 
z
" transform="scale(0.015625)"/>
      </defs>
      <use xlink:href="#DejaVuSans-2b"/>
     </g>
    </g>
   </g>
   <g id="text_2">
    <g clip-path="url(#p807b8537e7)">
     <!-- $V$ -->
     <g transform="translate(15.9403 177.004134) scale(0.145 -0.145)">
      <defs>
       <path id="DejaVuSans-Oblique-56" d="M 1319 0 
L 500 4666 
L 1119 4666 
L 1797 653 
L 4063 4666 
L 4750 4666 
L 2053 0 
L 1319 0 
z
" transform="scale(0.015625)"/>
      </defs>
      <use xlink:href="#DejaVuSans-Oblique-56" transform="translate(0 0.09375)"/>
     </g>
    </g>
   </g>
   <g id="text_3">
    <g clip-path="url(#p807b8537e7)">
     <!-- - -->
     <g transform="translate(18.327136 207.604134) scale(0.145 -0.145)">
      <defs>
       <path id="DejaVuSans-2d" d="M 313 2009 
L 1997 2009 
L 1997 1497 
L 313 1497 
L 313 2009 
z
" transform="scale(0.015625)"/>
      </defs>
      <use xlink:href="#DejaVuSans-2d"/>
     </g>
    </g>
   </g>
   <g id="text_4">
    <g clip-path="url(#p807b8537e7)">
     <!-- $I$ -->
     <g transform="translate(34.0678 105.727493) scale(0.145 -0.145)">
      <defs>
       <path id="DejaVuSans-Oblique-49" d="M 1081 4666 
L 1716 4666 
L 806 0 
L 172 0 
L 1081 4666 
z
" transform="scale(0.015625)"/>
      </defs>
      <use xlink:href="#DejaVuSans-Oblique-49" transform="translate(0 0.09375)"/>
     </g>
    </g>
   </g>
   <g id="text_5">
    <g clip-path="url(#p807b8537e7)">
     <!-- $\frac{27}{17}$ -->
     <g transform="translate(56.6428 177.13554) scale(0.145 -0.145)">
      <defs>
       <path id="DejaVuSans-32" d="M 1228 531 
L 3431 531 
L 3431 0 
L 469 0 
L 469 531 
Q 828 903 1448 1529 
Q 2069 2156 2228 2338 
Q 2531 2678 2651 2914 
Q 2772 3150 2772 3378 
Q 2772 3750 2511 3984 
Q 2250 4219 1831 4219 
Q 1534 4219 1204 4116 
Q 875 4013 500 3803 
L 500 4441 
Q 881 4594 1212 4672 
Q 1544 4750 1819 4750 
Q 2544 4750 2975 4387 
Q 3406 4025 3406 3419 
Q 3406 3131 3298 2873 
Q 3191 2616 2906 2266 
Q 2828 2175 2409 1742 
Q 1991 1309 1228 531 
z
" transform="scale(0.015625)"/>
       <path id="DejaVuSans-37" d="M 525 4666 
L 3525 4666 
L 3525 4397 
L 1831 0 
L 1172 0 
L 2766 4134 
L 525 4134 
L 525 4666 
z
" transform="scale(0.015625)"/>
       <path id="DejaVuSans-31" d="M 794 531 
L 1825 531 
L 1825 4091 
L 703 3866 
L 703 4441 
L 1819 4666 
L 2450 4666 
L 2450 531 
L 3481 531 
L 3481 0 
L 794 0 
L 794 531 
z
" transform="scale(0.015625)"/>
      </defs>
      <use xlink:href="#DejaVuSans-32" transform="translate(0 44.046875) scale(0.7)"/>
      <use xlink:href="#DejaVuSans-37" transform="translate(44.536133 44.046875) scale(0.7)"/>
      <use xlink:href="#DejaVuSans-31" transform="translate(0 -38.2375) scale(0.7)"/>
      <use xlink:href="#DejaVuSans-37" transform="translate(44.536133 -38.2375) scale(0.7)"/>
      <path d="M 0 19.046875 
L 0 25.296875 
L 89.072266 25.296875 
L 89.072266 19.046875 
L 0 19.046875 
z
"/>
     </g>
    </g>
   </g>
   <g id="text_6">
    <g clip-path="url(#p807b8537e7)">
     <!-- $\frac{289}{243}$ -->
     <g transform="translate(132.6853 98.973059) scale(0.145 -0.145)">
      <defs>
       <path id="DejaVuSans-38" d="M 2034 2216 
Q 1584 2216 1326 1975 
Q 1069 1734 1069 1313 
Q 1069 891 1326 650 
Q 1584 409 2034 409 
Q 2484 409 2743 651 
Q 3003 894 3003 1313 
Q 3003 1734 2745 1975 
Q 2488 2216 2034 2216 
z
M 1403 2484 
Q 997 2584 770 2862 
Q 544 3141 544 3541 
Q 544 4100 942 4425 
Q 1341 4750 2034 4750 
Q 2731 4750 3128 4425 
Q 3525 4100 3525 3541 
Q 3525 3141 3298 2862 
Q 3072 2584 2669 2484 
Q 3125 2378 3379 2068 
Q 3634 1759 3634 1313 
Q 3634 634 3220 271 
Q 2806 -91 2034 -91 
Q 1263 -91 848 271 
Q 434 634 434 1313 
Q 434 1759 690 2068 
Q 947 2378 1403 2484 
z
M 1172 3481 
Q 1172 3119 1398 2916 
Q 1625 2713 2034 2713 
Q 2441 2713 2670 2916 
Q 2900 3119 2900 3481 
Q 2900 3844 2670 4047 
Q 2441 4250 2034 4250 
Q 1625 4250 1398 4047 
Q 1172 3844 1172 3481 
z
" transform="scale(0.015625)"/>
       <path id="DejaVuSans-39" d="M 703 97 
L 703 672 
Q 941 559 1184 500 
Q 1428 441 1663 441 
Q 2288 441 2617 861 
Q 2947 1281 2994 2138 
Q 2813 1869 2534 1725 
Q 2256 1581 1919 1581 
Q 1219 1581 811 2004 
Q 403 2428 403 3163 
Q 403 3881 828 4315 
Q 1253 4750 1959 4750 
Q 2769 4750 3195 4129 
Q 3622 3509 3622 2328 
Q 3622 1225 3098 567 
Q 2575 -91 1691 -91 
Q 1453 -91 1209 -44 
Q 966 3 703 97 
z
M 1959 2075 
Q 2384 2075 2632 2365 
Q 2881 2656 2881 3163 
Q 2881 3666 2632 3958 
Q 2384 4250 1959 4250 
Q 1534 4250 1286 3958 
Q 1038 3666 1038 3163 
Q 1038 2656 1286 2365 
Q 1534 2075 1959 2075 
z
" transform="scale(0.015625)"/>
       <path id="DejaVuSans-34" d="M 2419 4116 
L 825 1625 
L 2419 1625 
L 2419 4116 
z
M 2253 4666 
L 3047 4666 
L 3047 1625 
L 3713 1625 
L 3713 1100 
L 3047 1100 
L 3047 0 
L 2419 0 
L 2419 1100 
L 313 1100 
L 313 1709 
L 2253 4666 
z
" transform="scale(0.015625)"/>
       <path id="DejaVuSans-33" d="M 2597 2516 
Q 3050 2419 3304 2112 
Q 3559 1806 3559 1356 
Q 3559 666 3084 287 
Q 2609 -91 1734 -91 
Q 1441 -91 1130 -33 
Q 819 25 488 141 
L 488 750 
Q 750 597 1062 519 
Q 1375 441 1716 441 
Q 2309 441 2620 675 
Q 2931 909 2931 1356 
Q 2931 1769 2642 2001 
Q 2353 2234 1838 2234 
L 1294 2234 
L 1294 2753 
L 1863 2753 
Q 2328 2753 2575 2939 
Q 2822 3125 2822 3475 
Q 2822 3834 2567 4026 
Q 2313 4219 1838 4219 
Q 1578 4219 1281 4162 
Q 984 4106 628 3988 
L 628 4550 
Q 988 4650 1302 4700 
Q 1616 4750 1894 4750 
Q 2613 4750 3031 4423 
Q 3450 4097 3450 3541 
Q 3450 3153 3228 2886 
Q 3006 2619 2597 2516 
z
" transform="scale(0.015625)"/>
      </defs>
      <use xlink:href="#DejaVuSans-32" transform="translate(0 45.046875) scale(0.7)"/>
      <use xlink:href="#DejaVuSans-38" transform="translate(44.536133 45.046875) scale(0.7)"/>
      <use xlink:href="#DejaVuSans-39" transform="translate(89.072266 45.046875) scale(0.7)"/>
      <use xlink:href="#DejaVuSans-32" transform="translate(0 -39.151563) scale(0.7)"/>
      <use xlink:href="#DejaVuSans-34" transform="translate(44.536133 -39.151563) scale(0.7)"/>
      <use xlink:href="#DejaVuSans-33" transform="translate(89.072266 -39.151563) scale(0.7)"/>
      <path d="M 0 19.051563 
L 0 25.301563 
L 133.608398 25.301563 
L 133.608398 19.051563 
L 0 19.051563 
z
"/>
     </g>
    </g>
   </g>
   <g id="text_7">
    <g clip-path="url(#p807b8537e7)">
     <!-- $\frac{27}{289}$ -->
     <g transform="translate(132.6853 33.94804) scale(0.145 -0.145)">
      <use xlink:href="#DejaVuSans-32" transform="translate(22 44.046875) scale(0.7)"/>
      <use xlink:href="#DejaVuSans-37" transform="translate(66.536133 44.046875) scale(0.7)"/>
      <use xlink:href="#DejaVuSans-32" transform="translate(0 -39.15625) scale(0.7)"/>
      <use xlink:href="#DejaVuSans-38" transform="translate(44.536133 -39.15625) scale(0.7)"/>
      <use xlink:href="#DejaVuSans-39" transform="translate(89.072266 -39.15625) scale(0.7)"/>
      <path d="M 0 19.046875 
L 0 25.296875 
L 133.608398 25.296875 
L 133.608398 19.046875 
L 0 19.046875 
z
"/>
     </g>
    </g>
   </g>
   <g id="text_8">
    <g clip-path="url(#p807b8537e7)">
     <!-- $\frac{7}{17}$ -->
     <g transform="translate(179.0428 177.06304) scale(0.145 -0.145)">
      <use xlink:href="#DejaVuSans-37" transform="translate(22 43.965625) scale(0.7)"/>
      <use xlink:href="#DejaVuSans-31" transform="translate(0 -38.31875) scale(0.7)"/>
      <use xlink:href="#DejaVuSans-37" transform="translate(44.536133 -38.31875) scale(0.7)"/>
      <path d="M 0 18.965625 
L 0 25.215625 
L 89.072266 25.215625 
L 89.072266 18.965625 
L 0 18.965625 
z
"/>
     </g>
    </g>
   </g>
   <g id="patch_7">
    <path d="M 20.9428 114.09804 
C 21.551441 114.09804 22.135236 113.856224 22.56561 113.42585 
C 22.995984 112.995476 23.2378 112.411681 23.2378 111.80304 
C 23.2378 111.194399 22.995984 110.610604 22.56561 110.18023 
C 22.135236 109.749856 21.551441 109.50804 20.9428 109.50804 
C 20.334159 109.50804 19.750364 109.749856 19.31999 110.18023 
C 18.889616 110.610604 18.6478 111.194399 18.6478 111.80304 
C 18.6478 112.411681 18.889616 112.995476 19.31999 113.42585 
C 19.750364 113.856224 20.334159 114.09804 20.9428 114.09804 
z
" clip-path="url(#p807b8537e7)" style="fill: #ffffff; stroke: #000000; stroke-width: 2; stroke-linejoin: miter"/>
   </g>
   <g id="patch_8">
    <path d="M 20.9428 236.49804 
C 21.551441 236.49804 22.135236 236.256224 22.56561 235.82585 
C 22.995984 235.395476 23.2378 234.811681 23.2378 234.20304 
C 23.2378 233.594399 22.995984 233.010604 22.56561 232.58023 
C 22.135236 232.149856 21.551441 231.90804 20.9428 231.90804 
C 20.334159 231.90804 19.750364 232.149856 19.31999 232.58023 
C 18.889616 233.010604 18.6478 233.594399 18.6478 234.20304 
C 18.6478 234.811681 18.889616 235.395476 19.31999 235.82585 
C 19.750364 236.256224 20.334159 236.49804 20.9428 236.49804 
z
" clip-path="url(#p807b8537e7)" style="fill: #ffffff; stroke: #000000; stroke-width: 2; stroke-linejoin: miter"/>
   </g>
   <g id="patch_9">
    <path d="M 82.1428 236.49804 
C 82.751441 236.49804 83.335236 236.256224 83.76561 235.82585 
C 84.195984 235.395476 84.4378 234.811681 84.4378 234.20304 
C 84.4378 233.594399 84.195984 233.010604 83.76561 232.58023 
C 83.335236 232.149856 82.751441 231.90804 82.1428 231.90804 
C 81.534159 231.90804 80.950364 232.149856 80.51999 232.58023 
C 80.089616 233.010604 79.8478 233.594399 79.8478 234.20304 
C 79.8478 234.811681 80.089616 235.395476 80.51999 235.82585 
C 80.950364 236.256224 81.534159 236.49804 82.1428 236.49804 
z
" clip-path="url(#p807b8537e7)" style="stroke: #000000; stroke-width: 2; stroke-linejoin: miter"/>
   </g>
   <g id="patch_10">
    <path d="M 82.1428 114.09804 
C 82.751441 114.09804 83.335236 113.856224 83.76561 113.42585 
C 84.195984 112.995476 84.4378 112.411681 84.4378 111.80304 
C 84.4378 111.194399 84.195984 110.610604 83.76561 110.18023 
C 83.335236 109.749856 82.751441 109.50804 82.1428 109.50804 
C 81.534159 109.50804 80.950364 109.749856 80.51999 110.18023 
C 80.089616 110.610604 79.8478 111.194399 79.8478 111.80304 
C 79.8478 112.411681 80.089616 112.995476 80.51999 113.42585 
C 80.950364 113.856224 81.534159 114.09804 82.1428 114.09804 
z
" clip-path="url(#p807b8537e7)" style="stroke: #000000; stroke-width: 2; stroke-linejoin: miter"/>
   </g>
   <g id="patch_11">
    <path d="M 82.1428 114.09804 
C 82.751441 114.09804 83.335236 113.856224 83.76561 113.42585 
C 84.195984 112.995476 84.4378 112.411681 84.4378 111.80304 
C 84.4378 111.194399 84.195984 110.610604 83.76561 110.18023 
C 83.335236 109.749856 82.751441 109.50804 82.1428 109.50804 
C 81.534159 109.50804 80.950364 109.749856 80.51999 110.18023 
C 80.089616 110.610604 79.8478 111.194399 79.8478 111.80304 
C 79.8478 112.411681 80.089616 112.995476 80.51999 113.42585 
C 80.950364 113.856224 81.534159 114.09804 82.1428 114.09804 
z
" clip-path="url(#p807b8537e7)" style="stroke: #000000; stroke-width: 2; stroke-linejoin: miter"/>
   </g>
   <g id="patch_12">
    <path d="M 204.5428 114.09804 
C 205.151441 114.09804 205.735236 113.856224 206.16561 113.42585 
C 206.595984 112.995476 206.8378 112.411681 206.8378 111.80304 
C 206.8378 111.194399 206.595984 110.610604 206.16561 110.18023 
C 205.735236 109.749856 205.151441 109.50804 204.5428 109.50804 
C 203.934159 109.50804 203.350364 109.749856 202.91999 110.18023 
C 202.489616 110.610604 202.2478 111.194399 202.2478 111.80304 
C 202.2478 112.411681 202.489616 112.995476 202.91999 113.42585 
C 203.350364 113.856224 203.934159 114.09804 204.5428 114.09804 
z
" clip-path="url(#p807b8537e7)" style="stroke: #000000; stroke-width: 2; stroke-linejoin: miter"/>
   </g>
   <g id="patch_13">
    <path d="M 204.5428 236.49804 
C 205.151441 236.49804 205.735236 236.256224 206.16561 235.82585 
C 206.595984 235.395476 206.8378 234.811681 206.8378 234.20304 
C 206.8378 233.594399 206.595984 233.010604 206.16561 232.58023 
C 205.735236 232.149856 205.151441 231.90804 204.5428 231.90804 
C 203.934159 231.90804 203.350364 232.149856 202.91999 232.58023 
C 202.489616 233.010604 202.2478 233.594399 202.2478 234.20304 
C 202.2478 234.811681 202.489616 235.395476 202.91999 235.82585 
C 203.350364 236.256224 203.934159 236.49804 204.5428 236.49804 
z
" clip-path="url(#p807b8537e7)" style="stroke: #000000; stroke-width: 2; stroke-linejoin: miter"/>
   </g>
   <g id="patch_14">
    <path d="M 204.5428 114.09804 
C 205.151441 114.09804 205.735236 113.856224 206.16561 113.42585 
C 206.595984 112.995476 206.8378 112.411681 206.8378 111.80304 
C 206.8378 111.194399 206.595984 110.610604 206.16561 110.18023 
C 205.735236 109.749856 205.151441 109.50804 204.5428 109.50804 
C 203.934159 109.50804 203.350364 109.749856 202.91999 110.18023 
C 202.489616 110.610604 202.2478 111.194399 202.2478 111.80304 
C 202.2478 112.411681 202.489616 112.995476 202.91999 113.42585 
C 203.350364 113.856224 203.934159 114.09804 204.5428 114.09804 
z
" clip-path="url(#p807b8537e7)" style="stroke: #000000; stroke-width: 2; stroke-linejoin: miter"/>
   </g>
  </g>
 </g>
 <defs>
  <clipPath id="p807b8537e7">
   <rect x="7.2" y="7.2" width="212.6428" height="232.35804"/>
  </clipPath>
 </defs>
</svg>
