<?xml version="1.0" encoding="utf-8" standalone="no"?>
<!DOCTYPE svg PUBLIC "-//W3C//DTD SVG 1.1//EN"
  "http://www.w3.org/Graphics/SVG/1.1/DTD/svg11.dtd">
<svg xmlns:xlink="http://www.w3.org/1999/xlink" width="227.0428pt" height="246.7866pt" viewBox="0 0 227.0428 246.7866" xmlns="http://www.w3.org/2000/svg" version="1.1">
 <metadata>
  <rdf:RDF xmlns:dc="http://purl.org/dc/elements/1.1/" xmlns:cc="http://creativecommons.org/ns#" xmlns:rdf="http://www.w3.org/1999/02/22-rdf-syntax-ns#">
   <cc:Work>
    <dc:type rdf:resource="http://purl.org/dc/dcmitype/StillImage"/>
    <dc:date>2024-10-20T17:57:06.891833</dc:date>
    <dc:format>image/svg+xml</dc:format>
    <dc:creator>
     <cc:Agent>
      <dc:title>Matplotlib v3.9.1, https://matplotlib.org/</dc:title>
     </cc:Agent>
    </dc:creator>
   </cc:Work>
  </rdf:RDF>
 </metadata>
 <defs>
  <style type="text/css">*{stroke-linejoin: round; stroke-linecap: butt}</style>
 </defs>
 <g id="figure_1">
  <g id="patch_1">
   <path d="M 0 246.7866 
L 227.0428 246.7866 
L 227.0428 0 
L 0 0 
z
" style="fill: #ffffff"/>
  </g>
  <g id="axes_1">
   <g id="patch_2">
    <path d="M 82.1428 180.6816 
C 81.128736 180.6816 80.155168 181.084865 79.438117 181.801917 
C 78.721065 182.518968 78.3178 183.492536 78.3178 184.5066 
C 78.3178 185.520664 78.721065 186.494232 79.438117 187.211283 
C 80.155168 187.928335 81.128736 188.3316 82.1428 188.3316 
" clip-path="url(#pf6d18df8cc)" style="fill: none; stroke: #000000; stroke-width: 2; stroke-linejoin: miter"/>
   </g>
   <g id="patch_3">
    <path d="M 82.1428 173.0316 
C 81.128736 173.0316 80.155168 173.434865 79.438117 174.151917 
C 78.721065 174.868968 78.3178 175.842536 78.3178 176.8566 
C 78.3178 177.870664 78.721065 178.844232 79.438117 179.561283 
C 80.155168 180.278335 81.128736 180.6816 82.1428 180.6816 
" clip-path="url(#pf6d18df8cc)" style="fill: none; stroke: #000000; stroke-width: 2; stroke-linejoin: miter"/>
   </g>
   <g id="patch_4">
    <path d="M 82.1428 165.3816 
C 81.128736 165.3816 80.155168 165.784865 79.438117 166.501917 
C 78.721065 167.218968 78.3178 168.192536 78.3178 169.2066 
C 78.3178 170.220664 78.721065 171.194232 79.438117 171.911283 
C 80.155168 172.628335 81.128736 173.0316 82.1428 173.0316 
" clip-path="url(#pf6d18df8cc)" style="fill: none; stroke: #000000; stroke-width: 2; stroke-linejoin: miter"/>
   </g>
   <g id="patch_5">
    <path d="M 82.1428 157.7316 
C 81.128736 157.7316 80.155168 158.134865 79.438117 158.851917 
C 78.721065 159.568968 78.3178 160.542536 78.3178 161.5566 
C 78.3178 162.570664 78.721065 163.544232 79.438117 164.261283 
C 80.155168 164.978335 81.128736 165.3816 82.1428 165.3816 
" clip-path="url(#pf6d18df8cc)" style="fill: none; stroke: #000000; stroke-width: 2; stroke-linejoin: miter"/>
   </g>
   <g id="patch_6">
    <path d="M 135.6928 111.8316 
C 135.6928 110.817536 135.289535 109.843968 134.572483 109.126917 
C 133.855432 108.409865 132.881864 108.0066 131.8678 108.0066 
C 130.853736 108.0066 129.880168 108.409865 129.163117 109.126917 
C 128.446065 109.843968 128.0428 110.817536 128.0428 111.8316 
" clip-path="url(#pf6d18df8cc)" style="fill: none; stroke: #000000; stroke-width: 2; stroke-linejoin: miter"/>
   </g>
   <g id="patch_7">
    <path d="M 143.3428 111.8316 
C 143.3428 110.817536 142.939535 109.843968 142.222483 109.126917 
C 141.505432 108.409865 140.531864 108.0066 139.5178 108.0066 
C 138.503736 108.0066 137.530168 108.409865 136.813117 109.126917 
C 136.096065 109.843968 135.6928 110.817536 135.6928 111.8316 
" clip-path="url(#pf6d18df8cc)" style="fill: none; stroke: #000000; stroke-width: 2; stroke-linejoin: miter"/>
   </g>
   <g id="patch_8">
    <path d="M 150.9928 111.8316 
C 150.9928 110.817536 150.589535 109.843968 149.872483 109.126917 
C 149.155432 108.409865 148.181864 108.0066 147.1678 108.0066 
C 146.153736 108.0066 145.180168 108.409865 144.463117 109.126917 
C 143.746065 109.843968 143.3428 110.817536 143.3428 111.8316 
" clip-path="url(#pf6d18df8cc)" style="fill: none; stroke: #000000; stroke-width: 2; stroke-linejoin: miter"/>
   </g>
   <g id="patch_9">
    <path d="M 158.6428 111.8316 
C 158.6428 110.817536 158.239535 109.843968 157.522483 109.126917 
C 156.805432 108.409865 155.831864 108.0066 154.8178 108.0066 
C 153.803736 108.0066 152.830168 108.409865 152.113117 109.126917 
C 151.396065 109.843968 150.9928 110.817536 150.9928 111.8316 
" clip-path="url(#pf6d18df8cc)" style="fill: none; stroke: #000000; stroke-width: 2; stroke-linejoin: miter"/>
   </g>
   <g id="patch_10">
    <path d="M 204.5428 180.6816 
C 203.528736 180.6816 202.555168 181.084865 201.838117 181.801917 
C 201.121065 182.518968 200.7178 183.492536 200.7178 184.5066 
C 200.7178 185.520664 201.121065 186.494232 201.838117 187.211283 
C 202.555168 187.928335 203.528736 188.3316 204.5428 188.3316 
" clip-path="url(#pf6d18df8cc)" style="fill: none; stroke: #000000; stroke-width: 2; stroke-linejoin: miter"/>
   </g>
   <g id="patch_11">
    <path d="M 204.5428 173.0316 
C 203.528736 173.0316 202.555168 173.434865 201.838117 174.151917 
C 201.121065 174.868968 200.7178 175.842536 200.7178 176.8566 
C 200.7178 177.870664 201.121065 178.844232 201.838117 179.561283 
C 202.555168 180.278335 203.528736 180.6816 204.5428 180.6816 
" clip-path="url(#pf6d18df8cc)" style="fill: none; stroke: #000000; stroke-width: 2; stroke-linejoin: miter"/>
   </g>
   <g id="patch_12">
    <path d="M 204.5428 165.3816 
C 203.528736 165.3816 202.555168 165.784865 201.838117 166.501917 
C 201.121065 167.218968 200.7178 168.192536 200.7178 169.2066 
C 200.7178 170.220664 201.121065 171.194232 201.838117 171.911283 
C 202.555168 172.628335 203.528736 173.0316 204.5428 173.0316 
" clip-path="url(#pf6d18df8cc)" style="fill: none; stroke: #000000; stroke-width: 2; stroke-linejoin: miter"/>
   </g>
   <g id="patch_13">
    <path d="M 204.5428 157.7316 
C 203.528736 157.7316 202.555168 158.134865 201.838117 158.851917 
C 201.121065 159.568968 200.7178 160.542536 200.7178 161.5566 
C 200.7178 162.570664 201.121065 163.544232 201.838117 164.261283 
C 202.555168 164.978335 203.528736 165.3816 204.5428 165.3816 
" clip-path="url(#pf6d18df8cc)" style="fill: none; stroke: #000000; stroke-width: 2; stroke-linejoin: miter"/>
   </g>
   <g id="line2d_1">
    <path d="M 20.9428 234.2316 
L 51.5428 234.2316 
L 82.1428 234.2316 
" clip-path="url(#pf6d18df8cc)" style="fill: none; stroke: #000000; stroke-width: 2; stroke-linecap: round"/>
   </g>
   <g id="line2d_2">
    <path d="M 82.1428 111.8316 
L 66.8428 111.8316 
L 51.5428 111.8316 
" clip-path="url(#pf6d18df8cc)" style="fill: none; stroke: #000000; stroke-width: 2; stroke-linecap: round"/>
   </g>
   <g id="line2d_3">
    <path d="M 43.8928 111.8316 
L 36.2428 111.8316 
L 20.9428 111.8316 
" clip-path="url(#pf6d18df8cc)" style="fill: none; stroke: #000000; stroke-width: 2; stroke-linecap: round"/>
   </g>
   <g id="patch_14">
    <path d="M 43.8928 109.5366 
L 51.5428 111.8316 
L 43.8928 114.1266 
z
" clip-path="url(#pf6d18df8cc)"/>
   </g>
   <g id="line2d_4">
    <path d="M 82.1428 234.2316 
L 82.1428 188.3316 
M 82.1428 157.7316 
L 82.1428 111.8316 
" clip-path="url(#pf6d18df8cc)" style="fill: none; stroke: #000000; stroke-width: 2; stroke-linecap: round"/>
   </g>
   <g id="line2d_5">
    <path d="M 82.1428 111.8316 
L 128.0428 111.8316 
M 158.6428 111.8316 
L 204.5428 111.8316 
" clip-path="url(#pf6d18df8cc)" style="fill: none; stroke: #000000; stroke-width: 2; stroke-linecap: round"/>
   </g>
   <g id="line2d_6">
    <path d="M 82.1428 111.8316 
L 82.1428 81.2316 
L 82.1428 50.6316 
" clip-path="url(#pf6d18df8cc)" style="fill: none; stroke: #000000; stroke-width: 2; stroke-linecap: round"/>
   </g>
   <g id="line2d_7">
    <path d="M 82.1428 50.6316 
L 140.5888 50.6316 
M 140.5888 42.9816 
L 140.5888 58.2816 
M 146.0968 42.9816 
L 146.0968 58.2816 
M 146.0968 50.6316 
L 204.5428 50.6316 
" clip-path="url(#pf6d18df8cc)" style="fill: none; stroke: #000000; stroke-width: 2; stroke-linecap: round"/>
   </g>
   <g id="line2d_8">
    <path d="M 204.5428 50.6316 
L 204.5428 81.2316 
L 204.5428 111.8316 
" clip-path="url(#pf6d18df8cc)" style="fill: none; stroke: #000000; stroke-width: 2; stroke-linecap: round"/>
   </g>
   <g id="line2d_9">
    <path d="M 204.5428 234.2316 
L 143.3428 234.2316 
L 82.1428 234.2316 
" clip-path="url(#pf6d18df8cc)" style="fill: none; stroke: #000000; stroke-width: 2; stroke-linecap: round"/>
   </g>
   <g id="line2d_10">
    <path d="M 204.5428 234.2316 
L 204.5428 188.3316 
M 204.5428 157.7316 
L 204.5428 111.8316 
" clip-path="url(#pf6d18df8cc)" style="fill: none; stroke: #000000; stroke-width: 2; stroke-linecap: round"/>
   </g>
   <g id="text_1">
    <g clip-path="url(#pf6d18df8cc)">
     <!-- + -->
     <g transform="translate(14.867527 146.432694) scale(0.145 -0.145)">
      <defs>
       <path id="DejaVuSans-2b" d="M 2944 4013 
L 2944 2272 
L 4684 2272 
L 4684 1741 
L 2944 1741 
L 2944 0 
L 2419 0 
L 2419 1741 
L 678 1741 
L 678 2272 
L 2419 2272 
L 2419 4013 
L 2944 4013 
z
" transform="scale(0.015625)"/>
      </defs>
      <use xlink:href="#DejaVuSans-2b"/>
     </g>
    </g>
   </g>
   <g id="text_2">
    <g clip-path="url(#pf6d18df8cc)">
     <!-- $V$ -->
     <g transform="translate(15.9403 177.032694) scale(0.145 -0.145)">
      <defs>
       <path id="DejaVuSans-Oblique-56" d="M 1319 0 
L 500 4666 
L 1119 4666 
L 1797 653 
L 4063 4666 
L 4750 4666 
L 2053 0 
L 1319 0 
z
" transform="scale(0.015625)"/>
      </defs>
      <use xlink:href="#DejaVuSans-Oblique-56" transform="translate(0 0.09375)"/>
     </g>
    </g>
   </g>
   <g id="text_3">
    <g clip-path="url(#pf6d18df8cc)">
     <!-- - -->
     <g transform="translate(18.327136 207.632694) scale(0.145 -0.145)">
      <defs>
       <path id="DejaVuSans-2d" d="M 313 2009 
L 1997 2009 
L 1997 1497 
L 313 1497 
L 313 2009 
z
" transform="scale(0.015625)"/>
      </defs>
      <use xlink:href="#DejaVuSans-2d"/>
     </g>
    </g>
   </g>
   <g id="text_4">
    <g clip-path="url(#pf6d18df8cc)">
     <!-- $I$ -->
     <g transform="translate(34.0678 105.756053) scale(0.145 -0.145)">
      <defs>
       <path id="DejaVuSans-Oblique-49" d="M 1081 4666 
L 1716 4666 
L 806 0 
L 172 0 
L 1081 4666 
z
" transform="scale(0.015625)"/>
      </defs>
      <use xlink:href="#DejaVuSans-Oblique-49" transform="translate(0 0.09375)"/>
     </g>
    </g>
   </g>
   <g id="text_5">
    <g clip-path="url(#pf6d18df8cc)">
     <!-- $\frac{31}{14}$ -->
     <g transform="translate(60.467819 177.2366) scale(0.145 -0.145)">
      <defs>
       <path id="DejaVuSans-33" d="M 2597 2516 
Q 3050 2419 3304 2112 
Q 3559 1806 3559 1356 
Q 3559 666 3084 287 
Q 2609 -91 1734 -91 
Q 1441 -91 1130 -33 
Q 819 25 488 141 
L 488 750 
Q 750 597 1062 519 
Q 1375 441 1716 441 
Q 2309 441 2620 675 
Q 2931 909 2931 1356 
Q 2931 1769 2642 2001 
Q 2353 2234 1838 2234 
L 1294 2234 
L 1294 2753 
L 1863 2753 
Q 2328 2753 2575 2939 
Q 2822 3125 2822 3475 
Q 2822 3834 2567 4026 
Q 2313 4219 1838 4219 
Q 1578 4219 1281 4162 
Q 984 4106 628 3988 
L 628 4550 
Q 988 4650 1302 4700 
Q 1616 4750 1894 4750 
Q 2613 4750 3031 4423 
Q 3450 4097 3450 3541 
Q 3450 3153 3228 2886 
Q 3006 2619 2597 2516 
z
" transform="scale(0.015625)"/>
       <path id="DejaVuSans-31" d="M 794 531 
L 1825 531 
L 1825 4091 
L 703 3866 
L 703 4441 
L 1819 4666 
L 2450 4666 
L 2450 531 
L 3481 531 
L 3481 0 
L 794 0 
L 794 531 
z
" transform="scale(0.015625)"/>
       <path id="DejaVuSans-34" d="M 2419 4116 
L 825 1625 
L 2419 1625 
L 2419 4116 
z
M 2253 4666 
L 3047 4666 
L 3047 1625 
L 3713 1625 
L 3713 1100 
L 3047 1100 
L 3047 0 
L 2419 0 
L 2419 1100 
L 313 1100 
L 313 1709 
L 2253 4666 
z
" transform="scale(0.015625)"/>
      </defs>
      <use xlink:href="#DejaVuSans-33" transform="translate(0 45.046875) scale(0.7)"/>
      <use xlink:href="#DejaVuSans-31" transform="translate(44.536133 45.046875) scale(0.7)"/>
      <use xlink:href="#DejaVuSans-31" transform="translate(0 -38.232812) scale(0.7)"/>
      <use xlink:href="#DejaVuSans-34" transform="translate(44.536133 -38.232812) scale(0.7)"/>
      <path d="M 0 19.051563 
L 0 25.301563 
L 89.072266 25.301563 
L 89.072266 19.051563 
L 0 19.051563 
z
"/>
     </g>
    </g>
   </g>
   <g id="text_6">
    <g clip-path="url(#pf6d18df8cc)">
     <!-- $\frac{961}{48}$ -->
     <g transform="translate(132.6853 99.001619) scale(0.145 -0.145)">
      <defs>
       <path id="DejaVuSans-39" d="M 703 97 
L 703 672 
Q 941 559 1184 500 
Q 1428 441 1663 441 
Q 2288 441 2617 861 
Q 2947 1281 2994 2138 
Q 2813 1869 2534 1725 
Q 2256 1581 1919 1581 
Q 1219 1581 811 2004 
Q 403 2428 403 3163 
Q 403 3881 828 4315 
Q 1253 4750 1959 4750 
Q 2769 4750 3195 4129 
Q 3622 3509 3622 2328 
Q 3622 1225 3098 567 
Q 2575 -91 1691 -91 
Q 1453 -91 1209 -44 
Q 966 3 703 97 
z
M 1959 2075 
Q 2384 2075 2632 2365 
Q 2881 2656 2881 3163 
Q 2881 3666 2632 3958 
Q 2384 4250 1959 4250 
Q 1534 4250 1286 3958 
Q 1038 3666 1038 3163 
Q 1038 2656 1286 2365 
Q 1534 2075 1959 2075 
z
" transform="scale(0.015625)"/>
       <path id="DejaVuSans-36" d="M 2113 2584 
Q 1688 2584 1439 2293 
Q 1191 2003 1191 1497 
Q 1191 994 1439 701 
Q 1688 409 2113 409 
Q 2538 409 2786 701 
Q 3034 994 3034 1497 
Q 3034 2003 2786 2293 
Q 2538 2584 2113 2584 
z
M 3366 4563 
L 3366 3988 
Q 3128 4100 2886 4159 
Q 2644 4219 2406 4219 
Q 1781 4219 1451 3797 
Q 1122 3375 1075 2522 
Q 1259 2794 1537 2939 
Q 1816 3084 2150 3084 
Q 2853 3084 3261 2657 
Q 3669 2231 3669 1497 
Q 3669 778 3244 343 
Q 2819 -91 2113 -91 
Q 1303 -91 875 529 
Q 447 1150 447 2328 
Q 447 3434 972 4092 
Q 1497 4750 2381 4750 
Q 2619 4750 2861 4703 
Q 3103 4656 3366 4563 
z
" transform="scale(0.015625)"/>
       <path id="DejaVuSans-38" d="M 2034 2216 
Q 1584 2216 1326 1975 
Q 1069 1734 1069 1313 
Q 1069 891 1326 650 
Q 1584 409 2034 409 
Q 2484 409 2743 651 
Q 3003 894 3003 1313 
Q 3003 1734 2745 1975 
Q 2488 2216 2034 2216 
z
M 1403 2484 
Q 997 2584 770 2862 
Q 544 3141 544 3541 
Q 544 4100 942 4425 
Q 1341 4750 2034 4750 
Q 2731 4750 3128 4425 
Q 3525 4100 3525 3541 
Q 3525 3141 3298 2862 
Q 3072 2584 2669 2484 
Q 3125 2378 3379 2068 
Q 3634 1759 3634 1313 
Q 3634 634 3220 271 
Q 2806 -91 2034 -91 
Q 1263 -91 848 271 
Q 434 634 434 1313 
Q 434 1759 690 2068 
Q 947 2378 1403 2484 
z
M 1172 3481 
Q 1172 3119 1398 2916 
Q 1625 2713 2034 2713 
Q 2441 2713 2670 2916 
Q 2900 3119 2900 3481 
Q 2900 3844 2670 4047 
Q 2441 4250 2034 4250 
Q 1625 4250 1398 4047 
Q 1172 3844 1172 3481 
z
" transform="scale(0.015625)"/>
      </defs>
      <use xlink:href="#DejaVuSans-39" transform="translate(0 45.046875) scale(0.7)"/>
      <use xlink:href="#DejaVuSans-36" transform="translate(44.536133 45.046875) scale(0.7)"/>
      <use xlink:href="#DejaVuSans-31" transform="translate(89.072266 45.046875) scale(0.7)"/>
      <use xlink:href="#DejaVuSans-34" transform="translate(22 -39.151563) scale(0.7)"/>
      <use xlink:href="#DejaVuSans-38" transform="translate(66.536133 -39.151563) scale(0.7)"/>
      <path d="M 0 19.051563 
L 0 25.301563 
L 133.608398 25.301563 
L 133.608398 19.051563 
L 0 19.051563 
z
"/>
     </g>
    </g>
   </g>
   <g id="text_7">
    <g clip-path="url(#pf6d18df8cc)">
     <!-- $\frac{768}{961}$ -->
     <g transform="translate(132.6853 33.9766) scale(0.145 -0.145)">
      <defs>
       <path id="DejaVuSans-37" d="M 525 4666 
L 3525 4666 
L 3525 4397 
L 1831 0 
L 1172 0 
L 2766 4134 
L 525 4134 
L 525 4666 
z
" transform="scale(0.015625)"/>
      </defs>
      <use xlink:href="#DejaVuSans-37" transform="translate(0 45.046875) scale(0.7)"/>
      <use xlink:href="#DejaVuSans-36" transform="translate(44.536133 45.046875) scale(0.7)"/>
      <use xlink:href="#DejaVuSans-38" transform="translate(89.072266 45.046875) scale(0.7)"/>
      <use xlink:href="#DejaVuSans-39" transform="translate(0 -39.151563) scale(0.7)"/>
      <use xlink:href="#DejaVuSans-36" transform="translate(44.536133 -39.151563) scale(0.7)"/>
      <use xlink:href="#DejaVuSans-31" transform="translate(89.072266 -39.151563) scale(0.7)"/>
      <path d="M 0 19.051563 
L 0 25.301563 
L 133.608398 25.301563 
L 133.608398 19.051563 
L 0 19.051563 
z
"/>
     </g>
    </g>
   </g>
   <g id="text_8">
    <g clip-path="url(#pf6d18df8cc)">
     <!-- $\frac{31}{48}$ -->
     <g transform="translate(182.867819 177.0916) scale(0.145 -0.145)">
      <use xlink:href="#DejaVuSans-33" transform="translate(0 45.046875) scale(0.7)"/>
      <use xlink:href="#DejaVuSans-31" transform="translate(44.536133 45.046875) scale(0.7)"/>
      <use xlink:href="#DejaVuSans-34" transform="translate(0 -39.151563) scale(0.7)"/>
      <use xlink:href="#DejaVuSans-38" transform="translate(44.536133 -39.151563) scale(0.7)"/>
      <path d="M 0 19.051563 
L 0 25.301563 
L 89.072266 25.301563 
L 89.072266 19.051563 
L 0 19.051563 
z
"/>
     </g>
    </g>
   </g>
   <g id="patch_15">
    <path d="M 20.9428 114.1266 
C 21.551441 114.1266 22.135236 113.884784 22.56561 113.45441 
C 22.995984 113.024036 23.2378 112.440241 23.2378 111.8316 
C 23.2378 111.222959 22.995984 110.639164 22.56561 110.20879 
C 22.135236 109.778416 21.551441 109.5366 20.9428 109.5366 
C 20.334159 109.5366 19.750364 109.778416 19.31999 110.20879 
C 18.889616 110.639164 18.6478 111.222959 18.6478 111.8316 
C 18.6478 112.440241 18.889616 113.024036 19.31999 113.45441 
C 19.750364 113.884784 20.334159 114.1266 20.9428 114.1266 
z
" clip-path="url(#pf6d18df8cc)" style="fill: #ffffff; stroke: #000000; stroke-width: 2; stroke-linejoin: miter"/>
   </g>
   <g id="patch_16">
    <path d="M 20.9428 236.5266 
C 21.551441 236.5266 22.135236 236.284784 22.56561 235.85441 
C 22.995984 235.424036 23.2378 234.840241 23.2378 234.2316 
C 23.2378 233.622959 22.995984 233.039164 22.56561 232.60879 
C 22.135236 232.178416 21.551441 231.9366 20.9428 231.9366 
C 20.334159 231.9366 19.750364 232.178416 19.31999 232.60879 
C 18.889616 233.039164 18.6478 233.622959 18.6478 234.2316 
C 18.6478 234.840241 18.889616 235.424036 19.31999 235.85441 
C 19.750364 236.284784 20.334159 236.5266 20.9428 236.5266 
z
" clip-path="url(#pf6d18df8cc)" style="fill: #ffffff; stroke: #000000; stroke-width: 2; stroke-linejoin: miter"/>
   </g>
   <g id="patch_17">
    <path d="M 82.1428 236.5266 
C 82.751441 236.5266 83.335236 236.284784 83.76561 235.85441 
C 84.195984 235.424036 84.4378 234.840241 84.4378 234.2316 
C 84.4378 233.622959 84.195984 233.039164 83.76561 232.60879 
C 83.335236 232.178416 82.751441 231.9366 82.1428 231.9366 
C 81.534159 231.9366 80.950364 232.178416 80.51999 232.60879 
C 80.089616 233.039164 79.8478 233.622959 79.8478 234.2316 
C 79.8478 234.840241 80.089616 235.424036 80.51999 235.85441 
C 80.950364 236.284784 81.534159 236.5266 82.1428 236.5266 
z
" clip-path="url(#pf6d18df8cc)" style="stroke: #000000; stroke-width: 2; stroke-linejoin: miter"/>
   </g>
   <g id="patch_18">
    <path d="M 82.1428 114.1266 
C 82.751441 114.1266 83.335236 113.884784 83.76561 113.45441 
C 84.195984 113.024036 84.4378 112.440241 84.4378 111.8316 
C 84.4378 111.222959 84.195984 110.639164 83.76561 110.20879 
C 83.335236 109.778416 82.751441 109.5366 82.1428 109.5366 
C 81.534159 109.5366 80.950364 109.778416 80.51999 110.20879 
C 80.089616 110.639164 79.8478 111.222959 79.8478 111.8316 
C 79.8478 112.440241 80.089616 113.024036 80.51999 113.45441 
C 80.950364 113.884784 81.534159 114.1266 82.1428 114.1266 
z
" clip-path="url(#pf6d18df8cc)" style="stroke: #000000; stroke-width: 2; stroke-linejoin: miter"/>
   </g>
   <g id="patch_19">
    <path d="M 82.1428 114.1266 
C 82.751441 114.1266 83.335236 113.884784 83.76561 113.45441 
C 84.195984 113.024036 84.4378 112.440241 84.4378 111.8316 
C 84.4378 111.222959 84.195984 110.639164 83.76561 110.20879 
C 83.335236 109.778416 82.751441 109.5366 82.1428 109.5366 
C 81.534159 109.5366 80.950364 109.778416 80.51999 110.20879 
C 80.089616 110.639164 79.8478 111.222959 79.8478 111.8316 
C 79.8478 112.440241 80.089616 113.024036 80.51999 113.45441 
C 80.950364 113.884784 81.534159 114.1266 82.1428 114.1266 
z
" clip-path="url(#pf6d18df8cc)" style="stroke: #000000; stroke-width: 2; stroke-linejoin: miter"/>
   </g>
   <g id="patch_20">
    <path d="M 204.5428 114.1266 
C 205.151441 114.1266 205.735236 113.884784 206.16561 113.45441 
C 206.595984 113.024036 206.8378 112.440241 206.8378 111.8316 
C 206.8378 111.222959 206.595984 110.639164 206.16561 110.20879 
C 205.735236 109.778416 205.151441 109.5366 204.5428 109.5366 
C 203.934159 109.5366 203.350364 109.778416 202.91999 110.20879 
C 202.489616 110.639164 202.2478 111.222959 202.2478 111.8316 
C 202.2478 112.440241 202.489616 113.024036 202.91999 113.45441 
C 203.350364 113.884784 203.934159 114.1266 204.5428 114.1266 
z
" clip-path="url(#pf6d18df8cc)" style="stroke: #000000; stroke-width: 2; stroke-linejoin: miter"/>
   </g>
   <g id="patch_21">
    <path d="M 204.5428 236.5266 
C 205.151441 236.5266 205.735236 236.284784 206.16561 235.85441 
C 206.595984 235.424036 206.8378 234.840241 206.8378 234.2316 
C 206.8378 233.622959 206.595984 233.039164 206.16561 232.60879 
C 205.735236 232.178416 205.151441 231.9366 204.5428 231.9366 
C 203.934159 231.9366 203.350364 232.178416 202.91999 232.60879 
C 202.489616 233.039164 202.2478 233.622959 202.2478 234.2316 
C 202.2478 234.840241 202.489616 235.424036 202.91999 235.85441 
C 203.350364 236.284784 203.934159 236.5266 204.5428 236.5266 
z
" clip-path="url(#pf6d18df8cc)" style="stroke: #000000; stroke-width: 2; stroke-linejoin: miter"/>
   </g>
   <g id="patch_22">
    <path d="M 204.5428 114.1266 
C 205.151441 114.1266 205.735236 113.884784 206.16561 113.45441 
C 206.595984 113.024036 206.8378 112.440241 206.8378 111.8316 
C 206.8378 111.222959 206.595984 110.639164 206.16561 110.20879 
C 205.735236 109.778416 205.151441 109.5366 204.5428 109.5366 
C 203.934159 109.5366 203.350364 109.778416 202.91999 110.20879 
C 202.489616 110.639164 202.2478 111.222959 202.2478 111.8316 
C 202.2478 112.440241 202.489616 113.024036 202.91999 113.45441 
C 203.350364 113.884784 203.934159 114.1266 204.5428 114.1266 
z
" clip-path="url(#pf6d18df8cc)" style="stroke: #000000; stroke-width: 2; stroke-linejoin: miter"/>
   </g>
  </g>
 </g>
 <defs>
  <clipPath id="pf6d18df8cc">
   <rect x="7.2" y="7.2" width="212.6428" height="232.3866"/>
  </clipPath>
 </defs>
</svg>
