<?xml version="1.0" encoding="utf-8" standalone="no"?>
<!DOCTYPE svg PUBLIC "-//W3C//DTD SVG 1.1//EN"
  "http://www.w3.org/Graphics/SVG/1.1/DTD/svg11.dtd">
<svg xmlns:xlink="http://www.w3.org/1999/xlink" width="349.4428pt" height="181.742541pt" viewBox="0 0 349.4428 181.742541" xmlns="http://www.w3.org/2000/svg" version="1.1">
 <metadata>
  <rdf:RDF xmlns:dc="http://purl.org/dc/elements/1.1/" xmlns:cc="http://creativecommons.org/ns#" xmlns:rdf="http://www.w3.org/1999/02/22-rdf-syntax-ns#">
   <cc:Work>
    <dc:type rdf:resource="http://purl.org/dc/dcmitype/StillImage"/>
    <dc:date>2024-10-20T16:15:54.962081</dc:date>
    <dc:format>image/svg+xml</dc:format>
    <dc:creator>
     <cc:Agent>
      <dc:title>Matplotlib v3.9.1, https://matplotlib.org/</dc:title>
     </cc:Agent>
    </dc:creator>
   </cc:Work>
  </rdf:RDF>
 </metadata>
 <defs>
  <style type="text/css">*{stroke-linejoin: round; stroke-linecap: butt}</style>
 </defs>
 <g id="figure_1">
  <g id="patch_1">
   <path d="M 0 181.742541 
L 349.4428 181.742541 
L 349.4428 0 
L 0 0 
z
" style="fill: #ffffff"/>
  </g>
  <g id="axes_1">
   <g id="patch_2">
    <path d="M 135.6928 46.787541 
C 135.6928 45.773477 135.289535 44.799909 134.572483 44.082858 
C 133.855432 43.365806 132.881864 42.962541 131.8678 42.962541 
C 130.853736 42.962541 129.880168 43.365806 129.163117 44.082858 
C 128.446065 44.799909 128.0428 45.773477 128.0428 46.787541 
" clip-path="url(#pd582f00b93)" style="fill: none; stroke: #000000; stroke-width: 2; stroke-linejoin: miter"/>
   </g>
   <g id="patch_3">
    <path d="M 143.3428 46.787541 
C 143.3428 45.773477 142.939535 44.799909 142.222483 44.082858 
C 141.505432 43.365806 140.531864 42.962541 139.5178 42.962541 
C 138.503736 42.962541 137.530168 43.365806 136.813117 44.082858 
C 136.096065 44.799909 135.6928 45.773477 135.6928 46.787541 
" clip-path="url(#pd582f00b93)" style="fill: none; stroke: #000000; stroke-width: 2; stroke-linejoin: miter"/>
   </g>
   <g id="patch_4">
    <path d="M 150.9928 46.787541 
C 150.9928 45.773477 150.589535 44.799909 149.872483 44.082858 
C 149.155432 43.365806 148.181864 42.962541 147.1678 42.962541 
C 146.153736 42.962541 145.180168 43.365806 144.463117 44.082858 
C 143.746065 44.799909 143.3428 45.773477 143.3428 46.787541 
" clip-path="url(#pd582f00b93)" style="fill: none; stroke: #000000; stroke-width: 2; stroke-linejoin: miter"/>
   </g>
   <g id="patch_5">
    <path d="M 158.6428 46.787541 
C 158.6428 45.773477 158.239535 44.799909 157.522483 44.082858 
C 156.805432 43.365806 155.831864 42.962541 154.8178 42.962541 
C 153.803736 42.962541 152.830168 43.365806 152.113117 44.082858 
C 151.396065 44.799909 150.9928 45.773477 150.9928 46.787541 
" clip-path="url(#pd582f00b93)" style="fill: none; stroke: #000000; stroke-width: 2; stroke-linejoin: miter"/>
   </g>
   <g id="patch_6">
    <path d="M 204.5428 130.937541 
C 205.556864 130.937541 206.530432 130.534276 207.247483 129.817224 
C 207.964535 129.100173 208.3678 128.126605 208.3678 127.112541 
C 208.3678 126.098477 207.964535 125.124909 207.247483 124.407858 
C 206.530432 123.690806 205.556864 123.287541 204.5428 123.287541 
" clip-path="url(#pd582f00b93)" style="fill: none; stroke: #000000; stroke-width: 2; stroke-linejoin: miter"/>
   </g>
   <g id="patch_7">
    <path d="M 204.5428 138.587541 
C 205.556864 138.587541 206.530432 138.184276 207.247483 137.467224 
C 207.964535 136.750173 208.3678 135.776605 208.3678 134.762541 
C 208.3678 133.748477 207.964535 132.774909 207.247483 132.057858 
C 206.530432 131.340806 205.556864 130.937541 204.5428 130.937541 
" clip-path="url(#pd582f00b93)" style="fill: none; stroke: #000000; stroke-width: 2; stroke-linejoin: miter"/>
   </g>
   <g id="patch_8">
    <path d="M 204.5428 146.237541 
C 205.556864 146.237541 206.530432 145.834276 207.247483 145.117224 
C 207.964535 144.400173 208.3678 143.426605 208.3678 142.412541 
C 208.3678 141.398477 207.964535 140.424909 207.247483 139.707858 
C 206.530432 138.990806 205.556864 138.587541 204.5428 138.587541 
" clip-path="url(#pd582f00b93)" style="fill: none; stroke: #000000; stroke-width: 2; stroke-linejoin: miter"/>
   </g>
   <g id="patch_9">
    <path d="M 204.5428 153.887541 
C 205.556864 153.887541 206.530432 153.484276 207.247483 152.767224 
C 207.964535 152.050173 208.3678 151.076605 208.3678 150.062541 
C 208.3678 149.048477 207.964535 148.074909 207.247483 147.357858 
C 206.530432 146.640806 205.556864 146.237541 204.5428 146.237541 
" clip-path="url(#pd582f00b93)" style="fill: none; stroke: #000000; stroke-width: 2; stroke-linejoin: miter"/>
   </g>
   <g id="patch_10">
    <path d="M 258.0928 46.787541 
C 258.0928 45.773477 257.689535 44.799909 256.972483 44.082858 
C 256.255432 43.365806 255.281864 42.962541 254.2678 42.962541 
C 253.253736 42.962541 252.280168 43.365806 251.563117 44.082858 
C 250.846065 44.799909 250.4428 45.773477 250.4428 46.787541 
" clip-path="url(#pd582f00b93)" style="fill: none; stroke: #000000; stroke-width: 2; stroke-linejoin: miter"/>
   </g>
   <g id="patch_11">
    <path d="M 265.7428 46.787541 
C 265.7428 45.773477 265.339535 44.799909 264.622483 44.082858 
C 263.905432 43.365806 262.931864 42.962541 261.9178 42.962541 
C 260.903736 42.962541 259.930168 43.365806 259.213117 44.082858 
C 258.496065 44.799909 258.0928 45.773477 258.0928 46.787541 
" clip-path="url(#pd582f00b93)" style="fill: none; stroke: #000000; stroke-width: 2; stroke-linejoin: miter"/>
   </g>
   <g id="patch_12">
    <path d="M 273.3928 46.787541 
C 273.3928 45.773477 272.989535 44.799909 272.272483 44.082858 
C 271.555432 43.365806 270.581864 42.962541 269.5678 42.962541 
C 268.553736 42.962541 267.580168 43.365806 266.863117 44.082858 
C 266.146065 44.799909 265.7428 45.773477 265.7428 46.787541 
" clip-path="url(#pd582f00b93)" style="fill: none; stroke: #000000; stroke-width: 2; stroke-linejoin: miter"/>
   </g>
   <g id="patch_13">
    <path d="M 281.0428 46.787541 
C 281.0428 45.773477 280.639535 44.799909 279.922483 44.082858 
C 279.205432 43.365806 278.231864 42.962541 277.2178 42.962541 
C 276.203736 42.962541 275.230168 43.365806 274.513117 44.082858 
C 273.796065 44.799909 273.3928 45.773477 273.3928 46.787541 
" clip-path="url(#pd582f00b93)" style="fill: none; stroke: #000000; stroke-width: 2; stroke-linejoin: miter"/>
   </g>
   <g id="patch_14">
    <path d="M 326.9428 130.937541 
C 327.956864 130.937541 328.930432 130.534276 329.647483 129.817224 
C 330.364535 129.100173 330.7678 128.126605 330.7678 127.112541 
C 330.7678 126.098477 330.364535 125.124909 329.647483 124.407858 
C 328.930432 123.690806 327.956864 123.287541 326.9428 123.287541 
" clip-path="url(#pd582f00b93)" style="fill: none; stroke: #000000; stroke-width: 2; stroke-linejoin: miter"/>
   </g>
   <g id="patch_15">
    <path d="M 326.9428 138.587541 
C 327.956864 138.587541 328.930432 138.184276 329.647483 137.467224 
C 330.364535 136.750173 330.7678 135.776605 330.7678 134.762541 
C 330.7678 133.748477 330.364535 132.774909 329.647483 132.057858 
C 328.930432 131.340806 327.956864 130.937541 326.9428 130.937541 
" clip-path="url(#pd582f00b93)" style="fill: none; stroke: #000000; stroke-width: 2; stroke-linejoin: miter"/>
   </g>
   <g id="patch_16">
    <path d="M 326.9428 146.237541 
C 327.956864 146.237541 328.930432 145.834276 329.647483 145.117224 
C 330.364535 144.400173 330.7678 143.426605 330.7678 142.412541 
C 330.7678 141.398477 330.364535 140.424909 329.647483 139.707858 
C 328.930432 138.990806 327.956864 138.587541 326.9428 138.587541 
" clip-path="url(#pd582f00b93)" style="fill: none; stroke: #000000; stroke-width: 2; stroke-linejoin: miter"/>
   </g>
   <g id="patch_17">
    <path d="M 326.9428 153.887541 
C 327.956864 153.887541 328.930432 153.484276 329.647483 152.767224 
C 330.364535 152.050173 330.7678 151.076605 330.7678 150.062541 
C 330.7678 149.048477 330.364535 148.074909 329.647483 147.357858 
C 328.930432 146.640806 327.956864 146.237541 326.9428 146.237541 
" clip-path="url(#pd582f00b93)" style="fill: none; stroke: #000000; stroke-width: 2; stroke-linejoin: miter"/>
   </g>
   <g id="line2d_1">
    <path d="M 20.9428 169.187541 
L 51.5428 169.187541 
L 82.1428 169.187541 
" clip-path="url(#pd582f00b93)" style="fill: none; stroke: #000000; stroke-width: 2; stroke-linecap: round"/>
   </g>
   <g id="line2d_2">
    <path d="M 82.1428 46.787541 
L 66.8428 46.787541 
L 51.5428 46.787541 
" clip-path="url(#pd582f00b93)" style="fill: none; stroke: #000000; stroke-width: 2; stroke-linecap: round"/>
   </g>
   <g id="line2d_3">
    <path d="M 43.8928 46.787541 
L 36.2428 46.787541 
L 20.9428 46.787541 
" clip-path="url(#pd582f00b93)" style="fill: none; stroke: #000000; stroke-width: 2; stroke-linecap: round"/>
   </g>
   <g id="patch_18">
    <path d="M 43.8928 44.492541 
L 51.5428 46.787541 
L 43.8928 49.082541 
z
" clip-path="url(#pd582f00b93)"/>
   </g>
   <g id="line2d_4">
    <path d="M 82.1428 46.787541 
L 128.0428 46.787541 
M 158.6428 46.787541 
L 204.5428 46.787541 
" clip-path="url(#pd582f00b93)" style="fill: none; stroke: #000000; stroke-width: 2; stroke-linecap: round"/>
   </g>
   <g id="line2d_5">
    <path d="M 204.5428 169.187541 
L 143.3428 169.187541 
L 82.1428 169.187541 
" clip-path="url(#pd582f00b93)" style="fill: none; stroke: #000000; stroke-width: 2; stroke-linecap: round"/>
   </g>
   <g id="line2d_6">
    <path d="M 204.5428 46.787541 
L 204.5428 74.633541 
M 212.1928 74.633541 
L 196.8928 74.633541 
M 212.1928 80.141541 
L 196.8928 80.141541 
M 204.5428 80.141541 
L 204.5428 107.987541 
" clip-path="url(#pd582f00b93)" style="fill: none; stroke: #000000; stroke-width: 2; stroke-linecap: round"/>
   </g>
   <g id="line2d_7">
    <path d="M 204.5428 107.987541 
L 204.5428 123.287541 
M 204.5428 153.887541 
L 204.5428 169.187541 
" clip-path="url(#pd582f00b93)" style="fill: none; stroke: #000000; stroke-width: 2; stroke-linecap: round"/>
   </g>
   <g id="line2d_8">
    <path d="M 204.5428 46.787541 
L 250.4428 46.787541 
M 281.0428 46.787541 
L 326.9428 46.787541 
" clip-path="url(#pd582f00b93)" style="fill: none; stroke: #000000; stroke-width: 2; stroke-linecap: round"/>
   </g>
   <g id="line2d_9">
    <path d="M 326.9428 169.187541 
L 265.7428 169.187541 
L 204.5428 169.187541 
" clip-path="url(#pd582f00b93)" style="fill: none; stroke: #000000; stroke-width: 2; stroke-linecap: round"/>
   </g>
   <g id="line2d_10">
    <path d="M 326.9428 46.787541 
L 326.9428 74.633541 
M 334.5928 74.633541 
L 319.2928 74.633541 
M 334.5928 80.141541 
L 319.2928 80.141541 
M 326.9428 80.141541 
L 326.9428 107.987541 
" clip-path="url(#pd582f00b93)" style="fill: none; stroke: #000000; stroke-width: 2; stroke-linecap: round"/>
   </g>
   <g id="line2d_11">
    <path d="M 326.9428 107.987541 
L 326.9428 123.287541 
M 326.9428 153.887541 
L 326.9428 169.187541 
" clip-path="url(#pd582f00b93)" style="fill: none; stroke: #000000; stroke-width: 2; stroke-linecap: round"/>
   </g>
   <g id="text_1">
    <g clip-path="url(#pd582f00b93)">
     <!-- + -->
     <g transform="translate(14.867527 81.388635) scale(0.145 -0.145)">
      <defs>
       <path id="DejaVuSans-2b" d="M 2944 4013 
L 2944 2272 
L 4684 2272 
L 4684 1741 
L 2944 1741 
L 2944 0 
L 2419 0 
L 2419 1741 
L 678 1741 
L 678 2272 
L 2419 2272 
L 2419 4013 
L 2944 4013 
z
" transform="scale(0.015625)"/>
      </defs>
      <use xlink:href="#DejaVuSans-2b"/>
     </g>
    </g>
   </g>
   <g id="text_2">
    <g clip-path="url(#pd582f00b93)">
     <!-- $V$ -->
     <g transform="translate(15.9403 111.988635) scale(0.145 -0.145)">
      <defs>
       <path id="DejaVuSans-Oblique-56" d="M 1319 0 
L 500 4666 
L 1119 4666 
L 1797 653 
L 4063 4666 
L 4750 4666 
L 2053 0 
L 1319 0 
z
" transform="scale(0.015625)"/>
      </defs>
      <use xlink:href="#DejaVuSans-Oblique-56" transform="translate(0 0.09375)"/>
     </g>
    </g>
   </g>
   <g id="text_3">
    <g clip-path="url(#pd582f00b93)">
     <!-- - -->
     <g transform="translate(18.327136 142.588635) scale(0.145 -0.145)">
      <defs>
       <path id="DejaVuSans-2d" d="M 313 2009 
L 1997 2009 
L 1997 1497 
L 313 1497 
L 313 2009 
z
" transform="scale(0.015625)"/>
      </defs>
      <use xlink:href="#DejaVuSans-2d"/>
     </g>
    </g>
   </g>
   <g id="text_4">
    <g clip-path="url(#pd582f00b93)">
     <!-- $I$ -->
     <g transform="translate(34.0678 40.711994) scale(0.145 -0.145)">
      <defs>
       <path id="DejaVuSans-Oblique-49" d="M 1081 4666 
L 1716 4666 
L 806 0 
L 172 0 
L 1081 4666 
z
" transform="scale(0.015625)"/>
      </defs>
      <use xlink:href="#DejaVuSans-Oblique-49" transform="translate(0 0.09375)"/>
     </g>
    </g>
   </g>
   <g id="text_5">
    <g clip-path="url(#pd582f00b93)">
     <!-- $\frac{32}{45}$ -->
     <g transform="translate(135.9478 34.10256) scale(0.145 -0.145)">
      <defs>
       <path id="DejaVuSans-33" d="M 2597 2516 
Q 3050 2419 3304 2112 
Q 3559 1806 3559 1356 
Q 3559 666 3084 287 
Q 2609 -91 1734 -91 
Q 1441 -91 1130 -33 
Q 819 25 488 141 
L 488 750 
Q 750 597 1062 519 
Q 1375 441 1716 441 
Q 2309 441 2620 675 
Q 2931 909 2931 1356 
Q 2931 1769 2642 2001 
Q 2353 2234 1838 2234 
L 1294 2234 
L 1294 2753 
L 1863 2753 
Q 2328 2753 2575 2939 
Q 2822 3125 2822 3475 
Q 2822 3834 2567 4026 
Q 2313 4219 1838 4219 
Q 1578 4219 1281 4162 
Q 984 4106 628 3988 
L 628 4550 
Q 988 4650 1302 4700 
Q 1616 4750 1894 4750 
Q 2613 4750 3031 4423 
Q 3450 4097 3450 3541 
Q 3450 3153 3228 2886 
Q 3006 2619 2597 2516 
z
" transform="scale(0.015625)"/>
       <path id="DejaVuSans-32" d="M 1228 531 
L 3431 531 
L 3431 0 
L 469 0 
L 469 531 
Q 828 903 1448 1529 
Q 2069 2156 2228 2338 
Q 2531 2678 2651 2914 
Q 2772 3150 2772 3378 
Q 2772 3750 2511 3984 
Q 2250 4219 1831 4219 
Q 1534 4219 1204 4116 
Q 875 4013 500 3803 
L 500 4441 
Q 881 4594 1212 4672 
Q 1544 4750 1819 4750 
Q 2544 4750 2975 4387 
Q 3406 4025 3406 3419 
Q 3406 3131 3298 2873 
Q 3191 2616 2906 2266 
Q 2828 2175 2409 1742 
Q 1991 1309 1228 531 
z
" transform="scale(0.015625)"/>
       <path id="DejaVuSans-34" d="M 2419 4116 
L 825 1625 
L 2419 1625 
L 2419 4116 
z
M 2253 4666 
L 3047 4666 
L 3047 1625 
L 3713 1625 
L 3713 1100 
L 3047 1100 
L 3047 0 
L 2419 0 
L 2419 1100 
L 313 1100 
L 313 1709 
L 2253 4666 
z
" transform="scale(0.015625)"/>
       <path id="DejaVuSans-35" d="M 691 4666 
L 3169 4666 
L 3169 4134 
L 1269 4134 
L 1269 2991 
Q 1406 3038 1543 3061 
Q 1681 3084 1819 3084 
Q 2600 3084 3056 2656 
Q 3513 2228 3513 1497 
Q 3513 744 3044 326 
Q 2575 -91 1722 -91 
Q 1428 -91 1123 -41 
Q 819 9 494 109 
L 494 744 
Q 775 591 1075 516 
Q 1375 441 1709 441 
Q 2250 441 2565 725 
Q 2881 1009 2881 1497 
Q 2881 1984 2565 2268 
Q 2250 2553 1709 2553 
Q 1456 2553 1204 2497 
Q 953 2441 691 2322 
L 691 4666 
z
" transform="scale(0.015625)"/>
      </defs>
      <use xlink:href="#DejaVuSans-33" transform="translate(0 45.046875) scale(0.7)"/>
      <use xlink:href="#DejaVuSans-32" transform="translate(44.536133 45.046875) scale(0.7)"/>
      <use xlink:href="#DejaVuSans-34" transform="translate(0 -38.232812) scale(0.7)"/>
      <use xlink:href="#DejaVuSans-35" transform="translate(44.536133 -38.232812) scale(0.7)"/>
      <path d="M 0 19.051563 
L 0 25.301563 
L 89.072266 25.301563 
L 89.072266 19.051563 
L 0 19.051563 
z
"/>
     </g>
    </g>
   </g>
   <g id="text_6">
    <g clip-path="url(#pd582f00b93)">
     <!-- $\frac{25}{68}$ -->
     <g transform="translate(179.0428 81.447541) scale(0.145 -0.145)">
      <defs>
       <path id="DejaVuSans-36" d="M 2113 2584 
Q 1688 2584 1439 2293 
Q 1191 2003 1191 1497 
Q 1191 994 1439 701 
Q 1688 409 2113 409 
Q 2538 409 2786 701 
Q 3034 994 3034 1497 
Q 3034 2003 2786 2293 
Q 2538 2584 2113 2584 
z
M 3366 4563 
L 3366 3988 
Q 3128 4100 2886 4159 
Q 2644 4219 2406 4219 
Q 1781 4219 1451 3797 
Q 1122 3375 1075 2522 
Q 1259 2794 1537 2939 
Q 1816 3084 2150 3084 
Q 2853 3084 3261 2657 
Q 3669 2231 3669 1497 
Q 3669 778 3244 343 
Q 2819 -91 2113 -91 
Q 1303 -91 875 529 
Q 447 1150 447 2328 
Q 447 3434 972 4092 
Q 1497 4750 2381 4750 
Q 2619 4750 2861 4703 
Q 3103 4656 3366 4563 
z
" transform="scale(0.015625)"/>
       <path id="DejaVuSans-38" d="M 2034 2216 
Q 1584 2216 1326 1975 
Q 1069 1734 1069 1313 
Q 1069 891 1326 650 
Q 1584 409 2034 409 
Q 2484 409 2743 651 
Q 3003 894 3003 1313 
Q 3003 1734 2745 1975 
Q 2488 2216 2034 2216 
z
M 1403 2484 
Q 997 2584 770 2862 
Q 544 3141 544 3541 
Q 544 4100 942 4425 
Q 1341 4750 2034 4750 
Q 2731 4750 3128 4425 
Q 3525 4100 3525 3541 
Q 3525 3141 3298 2862 
Q 3072 2584 2669 2484 
Q 3125 2378 3379 2068 
Q 3634 1759 3634 1313 
Q 3634 634 3220 271 
Q 2806 -91 2034 -91 
Q 1263 -91 848 271 
Q 434 634 434 1313 
Q 434 1759 690 2068 
Q 947 2378 1403 2484 
z
M 1172 3481 
Q 1172 3119 1398 2916 
Q 1625 2713 2034 2713 
Q 2441 2713 2670 2916 
Q 2900 3119 2900 3481 
Q 2900 3844 2670 4047 
Q 2441 4250 2034 4250 
Q 1625 4250 1398 4047 
Q 1172 3844 1172 3481 
z
" transform="scale(0.015625)"/>
      </defs>
      <use xlink:href="#DejaVuSans-32" transform="translate(0 45.046875) scale(0.7)"/>
      <use xlink:href="#DejaVuSans-35" transform="translate(44.536133 45.046875) scale(0.7)"/>
      <use xlink:href="#DejaVuSans-36" transform="translate(0 -39.151563) scale(0.7)"/>
      <use xlink:href="#DejaVuSans-38" transform="translate(44.536133 -39.151563) scale(0.7)"/>
      <path d="M 0 19.051563 
L 0 25.301563 
L 89.072266 25.301563 
L 89.072266 19.051563 
L 0 19.051563 
z
"/>
     </g>
    </g>
   </g>
   <g id="text_7">
    <g clip-path="url(#pd582f00b93)">
     <!-- $\frac{68}{225}$ -->
     <g transform="translate(180.1678 142.647541) scale(0.145 -0.145)">
      <use xlink:href="#DejaVuSans-36" transform="translate(22 45.046875) scale(0.7)"/>
      <use xlink:href="#DejaVuSans-38" transform="translate(66.536133 45.046875) scale(0.7)"/>
      <use xlink:href="#DejaVuSans-32" transform="translate(0 -39.151563) scale(0.7)"/>
      <use xlink:href="#DejaVuSans-32" transform="translate(44.536133 -39.151563) scale(0.7)"/>
      <use xlink:href="#DejaVuSans-35" transform="translate(89.072266 -39.151563) scale(0.7)"/>
      <path d="M 0 19.051563 
L 0 25.301563 
L 133.608398 25.301563 
L 133.608398 19.051563 
L 0 19.051563 
z
"/>
     </g>
    </g>
   </g>
   <g id="text_8">
    <g clip-path="url(#pd582f00b93)">
     <!-- $\frac{374}{135}$ -->
     <g transform="translate(255.0853 33.95756) scale(0.145 -0.145)">
      <defs>
       <path id="DejaVuSans-37" d="M 525 4666 
L 3525 4666 
L 3525 4397 
L 1831 0 
L 1172 0 
L 2766 4134 
L 525 4134 
L 525 4666 
z
" transform="scale(0.015625)"/>
       <path id="DejaVuSans-31" d="M 794 531 
L 1825 531 
L 1825 4091 
L 703 3866 
L 703 4441 
L 1819 4666 
L 2450 4666 
L 2450 531 
L 3481 531 
L 3481 0 
L 794 0 
L 794 531 
z
" transform="scale(0.015625)"/>
      </defs>
      <use xlink:href="#DejaVuSans-33" transform="translate(0 45.046875) scale(0.7)"/>
      <use xlink:href="#DejaVuSans-37" transform="translate(44.536133 45.046875) scale(0.7)"/>
      <use xlink:href="#DejaVuSans-34" transform="translate(89.072266 45.046875) scale(0.7)"/>
      <use xlink:href="#DejaVuSans-31" transform="translate(0 -39.151563) scale(0.7)"/>
      <use xlink:href="#DejaVuSans-33" transform="translate(44.536133 -39.151563) scale(0.7)"/>
      <use xlink:href="#DejaVuSans-35" transform="translate(89.072266 -39.151563) scale(0.7)"/>
      <path d="M 0 19.051563 
L 0 25.301563 
L 133.608398 25.301563 
L 133.608398 19.051563 
L 0 19.051563 
z
"/>
     </g>
    </g>
   </g>
   <g id="text_9">
    <g clip-path="url(#pd582f00b93)">
     <!-- $\frac{9}{68}$ -->
     <g transform="translate(301.4428 81.447541) scale(0.145 -0.145)">
      <defs>
       <path id="DejaVuSans-39" d="M 703 97 
L 703 672 
Q 941 559 1184 500 
Q 1428 441 1663 441 
Q 2288 441 2617 861 
Q 2947 1281 2994 2138 
Q 2813 1869 2534 1725 
Q 2256 1581 1919 1581 
Q 1219 1581 811 2004 
Q 403 2428 403 3163 
Q 403 3881 828 4315 
Q 1253 4750 1959 4750 
Q 2769 4750 3195 4129 
Q 3622 3509 3622 2328 
Q 3622 1225 3098 567 
Q 2575 -91 1691 -91 
Q 1453 -91 1209 -44 
Q 966 3 703 97 
z
M 1959 2075 
Q 2384 2075 2632 2365 
Q 2881 2656 2881 3163 
Q 2881 3666 2632 3958 
Q 2384 4250 1959 4250 
Q 1534 4250 1286 3958 
Q 1038 3666 1038 3163 
Q 1038 2656 1286 2365 
Q 1534 2075 1959 2075 
z
" transform="scale(0.015625)"/>
      </defs>
      <use xlink:href="#DejaVuSans-39" transform="translate(22 45.046875) scale(0.7)"/>
      <use xlink:href="#DejaVuSans-36" transform="translate(0 -39.151563) scale(0.7)"/>
      <use xlink:href="#DejaVuSans-38" transform="translate(44.536133 -39.151563) scale(0.7)"/>
      <path d="M 0 19.051563 
L 0 25.301563 
L 89.072266 25.301563 
L 89.072266 19.051563 
L 0 19.051563 
z
"/>
     </g>
    </g>
   </g>
   <g id="text_10">
    <g clip-path="url(#pd582f00b93)">
     <!-- $\frac{34}{9}$ -->
     <g transform="translate(309.0928 142.647541) scale(0.145 -0.145)">
      <use xlink:href="#DejaVuSans-33" transform="translate(0 45.046875) scale(0.7)"/>
      <use xlink:href="#DejaVuSans-34" transform="translate(44.536133 45.046875) scale(0.7)"/>
      <use xlink:href="#DejaVuSans-39" transform="translate(22 -39.151563) scale(0.7)"/>
      <path d="M 0 19.051563 
L 0 25.301563 
L 89.072266 25.301563 
L 89.072266 19.051563 
L 0 19.051563 
z
"/>
     </g>
    </g>
   </g>
   <g id="patch_19">
    <path d="M 20.9428 49.082541 
C 21.551441 49.082541 22.135236 48.840725 22.56561 48.410351 
C 22.995984 47.979977 23.2378 47.396182 23.2378 46.787541 
C 23.2378 46.1789 22.995984 45.595105 22.56561 45.164731 
C 22.135236 44.734357 21.551441 44.492541 20.9428 44.492541 
C 20.334159 44.492541 19.750364 44.734357 19.31999 45.164731 
C 18.889616 45.595105 18.6478 46.1789 18.6478 46.787541 
C 18.6478 47.396182 18.889616 47.979977 19.31999 48.410351 
C 19.750364 48.840725 20.334159 49.082541 20.9428 49.082541 
z
" clip-path="url(#pd582f00b93)" style="fill: #ffffff; stroke: #000000; stroke-width: 2; stroke-linejoin: miter"/>
   </g>
   <g id="patch_20">
    <path d="M 20.9428 171.482541 
C 21.551441 171.482541 22.135236 171.240725 22.56561 170.810351 
C 22.995984 170.379977 23.2378 169.796182 23.2378 169.187541 
C 23.2378 168.5789 22.995984 167.995105 22.56561 167.564731 
C 22.135236 167.134357 21.551441 166.892541 20.9428 166.892541 
C 20.334159 166.892541 19.750364 167.134357 19.31999 167.564731 
C 18.889616 167.995105 18.6478 168.5789 18.6478 169.187541 
C 18.6478 169.796182 18.889616 170.379977 19.31999 170.810351 
C 19.750364 171.240725 20.334159 171.482541 20.9428 171.482541 
z
" clip-path="url(#pd582f00b93)" style="fill: #ffffff; stroke: #000000; stroke-width: 2; stroke-linejoin: miter"/>
   </g>
   <g id="patch_21">
    <path d="M 204.5428 49.082541 
C 205.151441 49.082541 205.735236 48.840725 206.16561 48.410351 
C 206.595984 47.979977 206.8378 47.396182 206.8378 46.787541 
C 206.8378 46.1789 206.595984 45.595105 206.16561 45.164731 
C 205.735236 44.734357 205.151441 44.492541 204.5428 44.492541 
C 203.934159 44.492541 203.350364 44.734357 202.91999 45.164731 
C 202.489616 45.595105 202.2478 46.1789 202.2478 46.787541 
C 202.2478 47.396182 202.489616 47.979977 202.91999 48.410351 
C 203.350364 48.840725 203.934159 49.082541 204.5428 49.082541 
z
" clip-path="url(#pd582f00b93)" style="stroke: #000000; stroke-width: 2; stroke-linejoin: miter"/>
   </g>
   <g id="patch_22">
    <path d="M 204.5428 171.482541 
C 205.151441 171.482541 205.735236 171.240725 206.16561 170.810351 
C 206.595984 170.379977 206.8378 169.796182 206.8378 169.187541 
C 206.8378 168.5789 206.595984 167.995105 206.16561 167.564731 
C 205.735236 167.134357 205.151441 166.892541 204.5428 166.892541 
C 203.934159 166.892541 203.350364 167.134357 202.91999 167.564731 
C 202.489616 167.995105 202.2478 168.5789 202.2478 169.187541 
C 202.2478 169.796182 202.489616 170.379977 202.91999 170.810351 
C 203.350364 171.240725 203.934159 171.482541 204.5428 171.482541 
z
" clip-path="url(#pd582f00b93)" style="stroke: #000000; stroke-width: 2; stroke-linejoin: miter"/>
   </g>
   <g id="patch_23">
    <path d="M 326.9428 49.082541 
C 327.551441 49.082541 328.135236 48.840725 328.56561 48.410351 
C 328.995984 47.979977 329.2378 47.396182 329.2378 46.787541 
C 329.2378 46.1789 328.995984 45.595105 328.56561 45.164731 
C 328.135236 44.734357 327.551441 44.492541 326.9428 44.492541 
C 326.334159 44.492541 325.750364 44.734357 325.31999 45.164731 
C 324.889616 45.595105 324.6478 46.1789 324.6478 46.787541 
C 324.6478 47.396182 324.889616 47.979977 325.31999 48.410351 
C 325.750364 48.840725 326.334159 49.082541 326.9428 49.082541 
z
" clip-path="url(#pd582f00b93)" style="stroke: #000000; stroke-width: 2; stroke-linejoin: miter"/>
   </g>
   <g id="patch_24">
    <path d="M 326.9428 171.482541 
C 327.551441 171.482541 328.135236 171.240725 328.56561 170.810351 
C 328.995984 170.379977 329.2378 169.796182 329.2378 169.187541 
C 329.2378 168.5789 328.995984 167.995105 328.56561 167.564731 
C 328.135236 167.134357 327.551441 166.892541 326.9428 166.892541 
C 326.334159 166.892541 325.750364 167.134357 325.31999 167.564731 
C 324.889616 167.995105 324.6478 168.5789 324.6478 169.187541 
C 324.6478 169.796182 324.889616 170.379977 325.31999 170.810351 
C 325.750364 171.240725 326.334159 171.482541 326.9428 171.482541 
z
" clip-path="url(#pd582f00b93)" style="stroke: #000000; stroke-width: 2; stroke-linejoin: miter"/>
   </g>
  </g>
 </g>
 <defs>
  <clipPath id="pd582f00b93">
   <rect x="7.2" y="7.2" width="335.0428" height="167.342541"/>
  </clipPath>
 </defs>
</svg>
