<?xml version="1.0" encoding="utf-8" standalone="no"?>
<!DOCTYPE svg PUBLIC "-//W3C//DTD SVG 1.1//EN"
  "http://www.w3.org/Graphics/SVG/1.1/DTD/svg11.dtd">
<svg xmlns:xlink="http://www.w3.org/1999/xlink" width="410.6428pt" height="232.016981pt" viewBox="0 0 410.6428 232.016981" xmlns="http://www.w3.org/2000/svg" version="1.1">
 <metadata>
  <rdf:RDF xmlns:dc="http://purl.org/dc/elements/1.1/" xmlns:cc="http://creativecommons.org/ns#" xmlns:rdf="http://www.w3.org/1999/02/22-rdf-syntax-ns#">
   <cc:Work>
    <dc:type rdf:resource="http://purl.org/dc/dcmitype/StillImage"/>
    <dc:date>2024-09-30T21:26:25.794250</dc:date>
    <dc:format>image/svg+xml</dc:format>
    <dc:creator>
     <cc:Agent>
      <dc:title>Matplotlib v3.9.1, https://matplotlib.org/</dc:title>
     </cc:Agent>
    </dc:creator>
   </cc:Work>
  </rdf:RDF>
 </metadata>
 <defs>
  <style type="text/css">*{stroke-linejoin: round; stroke-linecap: butt}</style>
 </defs>
 <g id="figure_1">
  <g id="patch_1">
   <path d="M 0 232.016981 
L 410.6428 232.016981 
L 410.6428 0 
L 0 0 
z
" style="fill: #ffffff"/>
  </g>
  <g id="axes_1">
   <g id="patch_2">
    <path d="M 196.8928 38.156981 
C 196.8928 37.142917 196.489535 36.169349 195.772483 35.452298 
C 195.055432 34.735246 194.081864 34.331981 193.0678 34.331981 
C 192.053736 34.331981 191.080168 34.735246 190.363117 35.452298 
C 189.646065 36.169349 189.2428 37.142917 189.2428 38.156981 
" clip-path="url(#p1789cad0e8)" style="fill: none; stroke: #000000; stroke-width: 2; stroke-linejoin: miter"/>
   </g>
   <g id="patch_3">
    <path d="M 204.5428 38.156981 
C 204.5428 37.142917 204.139535 36.169349 203.422483 35.452298 
C 202.705432 34.735246 201.731864 34.331981 200.7178 34.331981 
C 199.703736 34.331981 198.730168 34.735246 198.013117 35.452298 
C 197.296065 36.169349 196.8928 37.142917 196.8928 38.156981 
" clip-path="url(#p1789cad0e8)" style="fill: none; stroke: #000000; stroke-width: 2; stroke-linejoin: miter"/>
   </g>
   <g id="patch_4">
    <path d="M 212.1928 38.156981 
C 212.1928 37.142917 211.789535 36.169349 211.072483 35.452298 
C 210.355432 34.735246 209.381864 34.331981 208.3678 34.331981 
C 207.353736 34.331981 206.380168 34.735246 205.663117 35.452298 
C 204.946065 36.169349 204.5428 37.142917 204.5428 38.156981 
" clip-path="url(#p1789cad0e8)" style="fill: none; stroke: #000000; stroke-width: 2; stroke-linejoin: miter"/>
   </g>
   <g id="patch_5">
    <path d="M 219.8428 38.156981 
C 219.8428 37.142917 219.439535 36.169349 218.722483 35.452298 
C 218.005432 34.735246 217.031864 34.331981 216.0178 34.331981 
C 215.003736 34.331981 214.030168 34.735246 213.313117 35.452298 
C 212.596065 36.169349 212.1928 37.142917 212.1928 38.156981 
" clip-path="url(#p1789cad0e8)" style="fill: none; stroke: #000000; stroke-width: 2; stroke-linejoin: miter"/>
   </g>
   <g id="patch_6">
    <path d="M 319.2928 38.156981 
C 319.2928 37.142917 318.889535 36.169349 318.172483 35.452298 
C 317.455432 34.735246 316.481864 34.331981 315.4678 34.331981 
C 314.453736 34.331981 313.480168 34.735246 312.763117 35.452298 
C 312.046065 36.169349 311.6428 37.142917 311.6428 38.156981 
" clip-path="url(#p1789cad0e8)" style="fill: none; stroke: #000000; stroke-width: 2; stroke-linejoin: miter"/>
   </g>
   <g id="patch_7">
    <path d="M 326.9428 38.156981 
C 326.9428 37.142917 326.539535 36.169349 325.822483 35.452298 
C 325.105432 34.735246 324.131864 34.331981 323.1178 34.331981 
C 322.103736 34.331981 321.130168 34.735246 320.413117 35.452298 
C 319.696065 36.169349 319.2928 37.142917 319.2928 38.156981 
" clip-path="url(#p1789cad0e8)" style="fill: none; stroke: #000000; stroke-width: 2; stroke-linejoin: miter"/>
   </g>
   <g id="patch_8">
    <path d="M 334.5928 38.156981 
C 334.5928 37.142917 334.189535 36.169349 333.472483 35.452298 
C 332.755432 34.735246 331.781864 34.331981 330.7678 34.331981 
C 329.753736 34.331981 328.780168 34.735246 328.063117 35.452298 
C 327.346065 36.169349 326.9428 37.142917 326.9428 38.156981 
" clip-path="url(#p1789cad0e8)" style="fill: none; stroke: #000000; stroke-width: 2; stroke-linejoin: miter"/>
   </g>
   <g id="patch_9">
    <path d="M 342.2428 38.156981 
C 342.2428 37.142917 341.839535 36.169349 341.122483 35.452298 
C 340.405432 34.735246 339.431864 34.331981 338.4178 34.331981 
C 337.403736 34.331981 336.430168 34.735246 335.713117 35.452298 
C 334.996065 36.169349 334.5928 37.142917 334.5928 38.156981 
" clip-path="url(#p1789cad0e8)" style="fill: none; stroke: #000000; stroke-width: 2; stroke-linejoin: miter"/>
   </g>
   <g id="line2d_1">
    <path d="M 20.9428 160.556981 
L 51.5428 160.556981 
L 82.1428 160.556981 
" clip-path="url(#p1789cad0e8)" style="fill: none; stroke: #000000; stroke-width: 2; stroke-linecap: round"/>
   </g>
   <g id="line2d_2">
    <path d="M 82.1428 38.156981 
L 66.8428 38.156981 
L 51.5428 38.156981 
" clip-path="url(#p1789cad0e8)" style="fill: none; stroke: #000000; stroke-width: 2; stroke-linecap: round"/>
   </g>
   <g id="line2d_3">
    <path d="M 43.8928 38.156981 
L 36.2428 38.156981 
L 20.9428 38.156981 
" clip-path="url(#p1789cad0e8)" style="fill: none; stroke: #000000; stroke-width: 2; stroke-linecap: round"/>
   </g>
   <g id="patch_10">
    <path d="M 43.8928 35.861981 
L 51.5428 38.156981 
L 43.8928 40.451981 
z
" clip-path="url(#p1789cad0e8)"/>
   </g>
   <g id="line2d_4">
    <path d="M 82.1428 38.156981 
L 97.4428 38.156981 
L 112.7428 38.156981 
" clip-path="url(#p1789cad0e8)" style="fill: none; stroke: #000000; stroke-width: 2; stroke-linecap: round"/>
   </g>
   <g id="line2d_5">
    <path d="M 112.7428 166.676981 
L 112.7428 151.376981 
L 112.7428 136.076981 
" clip-path="url(#p1789cad0e8)" style="fill: none; stroke: #000000; stroke-linecap: round"/>
   </g>
   <g id="line2d_6">
    <path d="M 112.7428 136.076981 
L 120.3928 136.076981 
L 120.3928 136.076981 
" clip-path="url(#p1789cad0e8)" style="fill: none; stroke: #000000; stroke-linecap: round"/>
   </g>
   <g id="patch_11">
    <path d="M 120.3928 133.781981 
L 128.0428 136.076981 
L 120.3928 138.371981 
z
" clip-path="url(#p1789cad0e8)"/>
   </g>
   <g id="line2d_7">
    <path d="M 112.7428 160.556981 
L 97.4428 160.556981 
L 82.1428 160.556981 
" clip-path="url(#p1789cad0e8)" style="fill: none; stroke: #000000; stroke-width: 2; stroke-linecap: round"/>
   </g>
   <g id="line2d_8">
    <path d="M 112.7428 160.556981 
L 128.0428 160.556981 
L 143.3428 160.556981 
" clip-path="url(#p1789cad0e8)" style="fill: none; stroke: #000000; stroke-width: 2; stroke-linecap: round"/>
   </g>
   <g id="line2d_9">
    <path d="M 112.7428 38.156981 
L 128.0428 38.156981 
L 143.3428 38.156981 
" clip-path="url(#p1789cad0e8)" style="fill: none; stroke: #000000; stroke-width: 2; stroke-linecap: round"/>
   </g>
   <g id="line2d_10">
    <path d="M 143.3428 38.156981 
L 189.2428 38.156981 
M 219.8428 38.156981 
L 265.7428 38.156981 
" clip-path="url(#p1789cad0e8)" style="fill: none; stroke: #000000; stroke-width: 2; stroke-linecap: round"/>
   </g>
   <g id="line2d_11">
    <path d="M 265.7428 160.556981 
L 204.5428 160.556981 
L 143.3428 160.556981 
" clip-path="url(#p1789cad0e8)" style="fill: none; stroke: #000000; stroke-width: 2; stroke-linecap: round"/>
   </g>
   <g id="line2d_12">
    <path d="M 265.7428 160.556981 
L 265.7428 102.110981 
M 258.0928 102.110981 
L 273.3928 102.110981 
M 258.0928 96.602981 
L 273.3928 96.602981 
M 265.7428 96.602981 
L 265.7428 38.156981 
" clip-path="url(#p1789cad0e8)" style="fill: none; stroke: #000000; stroke-width: 2; stroke-linecap: round"/>
   </g>
   <g id="line2d_13">
    <path d="M 265.7428 38.156981 
L 311.6428 38.156981 
M 342.2428 38.156981 
L 388.1428 38.156981 
" clip-path="url(#p1789cad0e8)" style="fill: none; stroke: #000000; stroke-width: 2; stroke-linecap: round"/>
   </g>
   <g id="line2d_14">
    <path d="M 388.1428 160.556981 
L 326.9428 160.556981 
L 265.7428 160.556981 
" clip-path="url(#p1789cad0e8)" style="fill: none; stroke: #000000; stroke-width: 2; stroke-linecap: round"/>
   </g>
   <g id="line2d_15">
    <path d="M 388.1428 160.556981 
L 388.1428 102.110981 
M 380.4928 102.110981 
L 395.7928 102.110981 
M 380.4928 96.602981 
L 395.7928 96.602981 
M 388.1428 96.602981 
L 388.1428 38.156981 
" clip-path="url(#p1789cad0e8)" style="fill: none; stroke: #000000; stroke-width: 2; stroke-linecap: round"/>
   </g>
   <g id="text_1">
    <g clip-path="url(#p1789cad0e8)">
     <!-- + -->
     <g transform="translate(14.867527 72.758075) scale(0.145 -0.145)">
      <defs>
       <path id="DejaVuSans-2b" d="M 2944 4013 
L 2944 2272 
L 4684 2272 
L 4684 1741 
L 2944 1741 
L 2944 0 
L 2419 0 
L 2419 1741 
L 678 1741 
L 678 2272 
L 2419 2272 
L 2419 4013 
L 2944 4013 
z
" transform="scale(0.015625)"/>
      </defs>
      <use xlink:href="#DejaVuSans-2b"/>
     </g>
    </g>
   </g>
   <g id="text_2">
    <g clip-path="url(#p1789cad0e8)">
     <!-- $V$ -->
     <g transform="translate(15.9403 103.358075) scale(0.145 -0.145)">
      <defs>
       <path id="DejaVuSans-Oblique-56" d="M 1319 0 
L 500 4666 
L 1119 4666 
L 1797 653 
L 4063 4666 
L 4750 4666 
L 2053 0 
L 1319 0 
z
" transform="scale(0.015625)"/>
      </defs>
      <use xlink:href="#DejaVuSans-Oblique-56" transform="translate(0 0.09375)"/>
     </g>
    </g>
   </g>
   <g id="text_3">
    <g clip-path="url(#p1789cad0e8)">
     <!-- - -->
     <g transform="translate(18.327136 133.958075) scale(0.145 -0.145)">
      <defs>
       <path id="DejaVuSans-2d" d="M 313 2009 
L 1997 2009 
L 1997 1497 
L 313 1497 
L 313 2009 
z
" transform="scale(0.015625)"/>
      </defs>
      <use xlink:href="#DejaVuSans-2d"/>
     </g>
    </g>
   </g>
   <g id="text_4">
    <g clip-path="url(#p1789cad0e8)">
     <!-- $I$ -->
     <g transform="translate(34.0678 32.081434) scale(0.145 -0.145)">
      <defs>
       <path id="DejaVuSans-Oblique-49" d="M 1081 4666 
L 1716 4666 
L 806 0 
L 172 0 
L 1081 4666 
z
" transform="scale(0.015625)"/>
      </defs>
      <use xlink:href="#DejaVuSans-Oblique-49" transform="translate(0 0.09375)"/>
     </g>
    </g>
   </g>
   <g id="text_5">
    <g clip-path="url(#p1789cad0e8)">
     <!-- $ Z = s + \frac{1}{\frac{s}{2} + \frac{1}{4 s + \frac{6}{s}}} $ -->
     <g transform="translate(45.1953 195.331981) scale(0.205 -0.205)">
      <defs>
       <path id="DejaVuSans-Oblique-5a" d="M 838 4666 
L 4500 4666 
L 4409 4184 
L 794 531 
L 3769 531 
L 3669 0 
L -141 0 
L -50 481 
L 3566 4134 
L 738 4134 
L 838 4666 
z
" transform="scale(0.015625)"/>
       <path id="DejaVuSans-3d" d="M 678 2906 
L 4684 2906 
L 4684 2381 
L 678 2381 
L 678 2906 
z
M 678 1631 
L 4684 1631 
L 4684 1100 
L 678 1100 
L 678 1631 
z
" transform="scale(0.015625)"/>
       <path id="DejaVuSans-Oblique-73" d="M 3200 3397 
L 3091 2853 
Q 2863 2978 2609 3040 
Q 2356 3103 2088 3103 
Q 1634 3103 1373 2948 
Q 1113 2794 1113 2528 
Q 1113 2219 1719 2053 
Q 1766 2041 1788 2034 
L 1972 1978 
Q 2547 1819 2739 1644 
Q 2931 1469 2931 1166 
Q 2931 609 2489 259 
Q 2047 -91 1331 -91 
Q 1053 -91 747 -37 
Q 441 16 72 128 
L 184 722 
Q 500 559 806 475 
Q 1113 391 1394 391 
Q 1816 391 2080 572 
Q 2344 753 2344 1031 
Q 2344 1331 1650 1516 
L 1591 1531 
L 1394 1581 
Q 956 1697 753 1886 
Q 550 2075 550 2369 
Q 550 2928 970 3256 
Q 1391 3584 2113 3584 
Q 2397 3584 2667 3537 
Q 2938 3491 3200 3397 
z
" transform="scale(0.015625)"/>
       <path id="DejaVuSans-31" d="M 794 531 
L 1825 531 
L 1825 4091 
L 703 3866 
L 703 4441 
L 1819 4666 
L 2450 4666 
L 2450 531 
L 3481 531 
L 3481 0 
L 794 0 
L 794 531 
z
" transform="scale(0.015625)"/>
       <path id="DejaVuSans-32" d="M 1228 531 
L 3431 531 
L 3431 0 
L 469 0 
L 469 531 
Q 828 903 1448 1529 
Q 2069 2156 2228 2338 
Q 2531 2678 2651 2914 
Q 2772 3150 2772 3378 
Q 2772 3750 2511 3984 
Q 2250 4219 1831 4219 
Q 1534 4219 1204 4116 
Q 875 4013 500 3803 
L 500 4441 
Q 881 4594 1212 4672 
Q 1544 4750 1819 4750 
Q 2544 4750 2975 4387 
Q 3406 4025 3406 3419 
Q 3406 3131 3298 2873 
Q 3191 2616 2906 2266 
Q 2828 2175 2409 1742 
Q 1991 1309 1228 531 
z
" transform="scale(0.015625)"/>
       <path id="DejaVuSans-34" d="M 2419 4116 
L 825 1625 
L 2419 1625 
L 2419 4116 
z
M 2253 4666 
L 3047 4666 
L 3047 1625 
L 3713 1625 
L 3713 1100 
L 3047 1100 
L 3047 0 
L 2419 0 
L 2419 1100 
L 313 1100 
L 313 1709 
L 2253 4666 
z
" transform="scale(0.015625)"/>
       <path id="DejaVuSans-36" d="M 2113 2584 
Q 1688 2584 1439 2293 
Q 1191 2003 1191 1497 
Q 1191 994 1439 701 
Q 1688 409 2113 409 
Q 2538 409 2786 701 
Q 3034 994 3034 1497 
Q 3034 2003 2786 2293 
Q 2538 2584 2113 2584 
z
M 3366 4563 
L 3366 3988 
Q 3128 4100 2886 4159 
Q 2644 4219 2406 4219 
Q 1781 4219 1451 3797 
Q 1122 3375 1075 2522 
Q 1259 2794 1537 2939 
Q 1816 3084 2150 3084 
Q 2853 3084 3261 2657 
Q 3669 2231 3669 1497 
Q 3669 778 3244 343 
Q 2819 -91 2113 -91 
Q 1303 -91 875 529 
Q 447 1150 447 2328 
Q 447 3434 972 4092 
Q 1497 4750 2381 4750 
Q 2619 4750 2861 4703 
Q 3103 4656 3366 4563 
z
" transform="scale(0.015625)"/>
      </defs>
      <use xlink:href="#DejaVuSans-Oblique-5a" transform="translate(0 0.16875)"/>
      <use xlink:href="#DejaVuSans-3d" transform="translate(87.988281 0.16875)"/>
      <use xlink:href="#DejaVuSans-Oblique-73" transform="translate(191.259766 0.16875)"/>
      <use xlink:href="#DejaVuSans-2b" transform="translate(262.841797 0.16875)"/>
      <use xlink:href="#DejaVuSans-31" transform="translate(483.113281 43.965625) scale(0.7)"/>
      <use xlink:href="#DejaVuSans-Oblique-73" transform="translate(369.113281 -22.311719) scale(0.49)"/>
      <use xlink:href="#DejaVuSans-32" transform="translate(366.113281 -81.250625) scale(0.49)"/>
      <use xlink:href="#DejaVuSans-2b" transform="translate(419.67627 -53.66625) scale(0.7)"/>
      <use xlink:href="#DejaVuSans-31" transform="translate(548.966309 -23.008437) scale(0.49)"/>
      <use xlink:href="#DejaVuSans-34" transform="translate(491.966309 -92.288641) scale(0.49)"/>
      <use xlink:href="#DejaVuSans-Oblique-73" transform="translate(523.141602 -92.288641) scale(0.49)"/>
      <use xlink:href="#DejaVuSans-2b" transform="translate(558.216797 -92.288641) scale(0.49)"/>
      <use xlink:href="#DejaVuSans-36" transform="translate(608.819824 -70.340469) scale(0.343)"/>
      <use xlink:href="#DejaVuSans-Oblique-73" transform="translate(610.819824 -105.348672) scale(0.343)"/>
      <path d="M 366.113281 18.965625 
L 366.113281 25.215625 
L 645.517529 25.215625 
L 645.517529 18.965625 
L 366.113281 18.965625 
z
"/>
      <path d="M 366.113281 -40.508437 
L 366.113281 -36.133437 
L 397.288574 -36.133437 
L 397.288574 -40.508437 
L 366.113281 -40.508437 
z
"/>
      <path d="M 491.966309 -40.508437 
L 491.966309 -36.133437 
L 636.767529 -36.133437 
L 636.767529 -40.508437 
L 491.966309 -40.508437 
z
"/>
      <path d="M 608.819824 -83.078172 
L 608.819824 -80.015672 
L 630.642529 -80.015672 
L 630.642529 -83.078172 
L 608.819824 -83.078172 
z
"/>
     </g>
    </g>
   </g>
   <g id="text_6">
    <g clip-path="url(#p1789cad0e8)">
     <!-- $1$ -->
     <g transform="translate(199.9028 28.256453) scale(0.145 -0.145)">
      <use xlink:href="#DejaVuSans-31" transform="translate(0 0.09375)"/>
     </g>
    </g>
   </g>
   <g id="text_7">
    <g clip-path="url(#p1789cad0e8)">
     <!-- $\frac{1}{2}$ -->
     <g transform="translate(246.6228 103.344481) scale(0.145 -0.145)">
      <use xlink:href="#DejaVuSans-31" transform="translate(0 43.965625) scale(0.7)"/>
      <use xlink:href="#DejaVuSans-32" transform="translate(0 -39.2375) scale(0.7)"/>
      <path d="M 0 18.965625 
L 0 25.215625 
L 44.536133 25.215625 
L 44.536133 18.965625 
L 0 18.965625 
z
"/>
     </g>
    </g>
   </g>
   <g id="text_8">
    <g clip-path="url(#p1789cad0e8)">
     <!-- $4$ -->
     <g transform="translate(322.3028 28.256453) scale(0.145 -0.145)">
      <use xlink:href="#DejaVuSans-34" transform="translate(0 0.09375)"/>
     </g>
    </g>
   </g>
   <g id="text_9">
    <g clip-path="url(#p1789cad0e8)">
     <!-- $\frac{1}{6}$ -->
     <g transform="translate(369.0228 103.271981) scale(0.145 -0.145)">
      <use xlink:href="#DejaVuSans-31" transform="translate(0 43.965625) scale(0.7)"/>
      <use xlink:href="#DejaVuSans-36" transform="translate(0 -39.2375) scale(0.7)"/>
      <path d="M 0 18.965625 
L 0 25.215625 
L 44.536133 25.215625 
L 44.536133 18.965625 
L 0 18.965625 
z
"/>
     </g>
    </g>
   </g>
   <g id="patch_12">
    <path d="M 20.9428 40.451981 
C 21.551441 40.451981 22.135236 40.210165 22.56561 39.779791 
C 22.995984 39.349417 23.2378 38.765622 23.2378 38.156981 
C 23.2378 37.54834 22.995984 36.964545 22.56561 36.534171 
C 22.135236 36.103797 21.551441 35.861981 20.9428 35.861981 
C 20.334159 35.861981 19.750364 36.103797 19.31999 36.534171 
C 18.889616 36.964545 18.6478 37.54834 18.6478 38.156981 
C 18.6478 38.765622 18.889616 39.349417 19.31999 39.779791 
C 19.750364 40.210165 20.334159 40.451981 20.9428 40.451981 
z
" clip-path="url(#p1789cad0e8)" style="fill: #ffffff; stroke: #000000; stroke-width: 2; stroke-linejoin: miter"/>
   </g>
   <g id="patch_13">
    <path d="M 20.9428 162.851981 
C 21.551441 162.851981 22.135236 162.610165 22.56561 162.179791 
C 22.995984 161.749417 23.2378 161.165622 23.2378 160.556981 
C 23.2378 159.94834 22.995984 159.364545 22.56561 158.934171 
C 22.135236 158.503797 21.551441 158.261981 20.9428 158.261981 
C 20.334159 158.261981 19.750364 158.503797 19.31999 158.934171 
C 18.889616 159.364545 18.6478 159.94834 18.6478 160.556981 
C 18.6478 161.165622 18.889616 161.749417 19.31999 162.179791 
C 19.750364 162.610165 20.334159 162.851981 20.9428 162.851981 
z
" clip-path="url(#p1789cad0e8)" style="fill: #ffffff; stroke: #000000; stroke-width: 2; stroke-linejoin: miter"/>
   </g>
   <g id="patch_14">
    <path d="M 265.7428 162.851981 
C 266.351441 162.851981 266.935236 162.610165 267.36561 162.179791 
C 267.795984 161.749417 268.0378 161.165622 268.0378 160.556981 
C 268.0378 159.94834 267.795984 159.364545 267.36561 158.934171 
C 266.935236 158.503797 266.351441 158.261981 265.7428 158.261981 
C 265.134159 158.261981 264.550364 158.503797 264.11999 158.934171 
C 263.689616 159.364545 263.4478 159.94834 263.4478 160.556981 
C 263.4478 161.165622 263.689616 161.749417 264.11999 162.179791 
C 264.550364 162.610165 265.134159 162.851981 265.7428 162.851981 
z
" clip-path="url(#p1789cad0e8)" style="stroke: #000000; stroke-width: 2; stroke-linejoin: miter"/>
   </g>
   <g id="patch_15">
    <path d="M 265.7428 40.451981 
C 266.351441 40.451981 266.935236 40.210165 267.36561 39.779791 
C 267.795984 39.349417 268.0378 38.765622 268.0378 38.156981 
C 268.0378 37.54834 267.795984 36.964545 267.36561 36.534171 
C 266.935236 36.103797 266.351441 35.861981 265.7428 35.861981 
C 265.134159 35.861981 264.550364 36.103797 264.11999 36.534171 
C 263.689616 36.964545 263.4478 37.54834 263.4478 38.156981 
C 263.4478 38.765622 263.689616 39.349417 264.11999 39.779791 
C 264.550364 40.210165 265.134159 40.451981 265.7428 40.451981 
z
" clip-path="url(#p1789cad0e8)" style="stroke: #000000; stroke-width: 2; stroke-linejoin: miter"/>
   </g>
   <g id="patch_16">
    <path d="M 388.1428 162.851981 
C 388.751441 162.851981 389.335236 162.610165 389.76561 162.179791 
C 390.195984 161.749417 390.4378 161.165622 390.4378 160.556981 
C 390.4378 159.94834 390.195984 159.364545 389.76561 158.934171 
C 389.335236 158.503797 388.751441 158.261981 388.1428 158.261981 
C 387.534159 158.261981 386.950364 158.503797 386.51999 158.934171 
C 386.089616 159.364545 385.8478 159.94834 385.8478 160.556981 
C 385.8478 161.165622 386.089616 161.749417 386.51999 162.179791 
C 386.950364 162.610165 387.534159 162.851981 388.1428 162.851981 
z
" clip-path="url(#p1789cad0e8)" style="stroke: #000000; stroke-width: 2; stroke-linejoin: miter"/>
   </g>
   <g id="patch_17">
    <path d="M 388.1428 40.451981 
C 388.751441 40.451981 389.335236 40.210165 389.76561 39.779791 
C 390.195984 39.349417 390.4378 38.765622 390.4378 38.156981 
C 390.4378 37.54834 390.195984 36.964545 389.76561 36.534171 
C 389.335236 36.103797 388.751441 35.861981 388.1428 35.861981 
C 387.534159 35.861981 386.950364 36.103797 386.51999 36.534171 
C 386.089616 36.964545 385.8478 37.54834 385.8478 38.156981 
C 385.8478 38.765622 386.089616 39.349417 386.51999 39.779791 
C 386.950364 40.210165 387.534159 40.451981 388.1428 40.451981 
z
" clip-path="url(#p1789cad0e8)" style="stroke: #000000; stroke-width: 2; stroke-linejoin: miter"/>
   </g>
  </g>
 </g>
 <defs>
  <clipPath id="p1789cad0e8">
   <rect x="7.2" y="7.2" width="396.2428" height="217.616981"/>
  </clipPath>
 </defs>
</svg>
